<svg width="32" height="32" viewBox="0 0 32 32" fill="none" xmlns="http://www.w3.org/2000/svg">
<path d="M16.175 29.126C16.1375 29.1572 16.1062 29.1947 16.0687 29.2322V29.1885C16.0812 29.1822 16.0937 29.176 16.1062 29.1635H16.1125C16.1312 29.151 16.1562 29.1385 16.175 29.126Z" fill="#D3DCFB"/>
<path d="M27.8125 23.8132C24.6062 23.6695 21.2187 25.0007 18.2 27.3507C17.5062 27.8882 16.8312 28.482 16.1812 29.1257H16.1749C16.1499 29.1382 16.1312 29.1507 16.1062 29.1695C16.7687 28.0195 17.4687 26.9507 18.1937 25.9695C20.3437 23.0632 22.7 20.9695 24.9375 20.1882V10.7257C24.9312 9.73824 24.9312 8.74449 24.9312 7.75699V5.11949C25.8937 4.91324 26.8499 4.83199 27.7999 4.87574V12.6132C27.8124 16.3445 27.8125 20.082 27.8125 23.8132Z" fill="#D3DCFB"/>
<path d="M16.0125 29.2254C16.0063 29.2316 16.0063 29.2316 16 29.2316V29.2129L16.0125 29.2254Z" fill="#BEC8F7"/>
<path d="M24.9438 10.7254V20.1816C22.7 20.9629 20.3438 23.0566 18.2001 25.9629C17.4751 26.9441 16.775 28.0191 16.1125 29.1629H16.1063C16.0938 29.1691 16.0813 29.1754 16.0688 29.1879C16.0563 29.1941 16.0438 29.2004 16.0313 29.2129V10.4754C16.025 10.4691 16.025 10.4691 16.0188 10.4691C16.0375 10.4566 16.05 10.4441 16.0688 10.4379V10.2941C18.7125 5.71914 21.925 2.29414 24.9438 1.24414V7.75664C24.9375 8.75039 24.9375 9.73789 24.9438 10.7254Z" fill="#E9EFFF"/>
<path d="M29.7687 8.3125V27.0688C29.7562 27.0625 29.75 27.0625 29.7375 27.0625C25.8812 26.025 21.8062 26.475 18.1937 28.075C17.5062 28.375 16.8375 28.725 16.1937 29.1125L16.2 29.1C16.8375 28.4688 17.5062 27.8813 18.1937 27.35C21.2187 25 24.6 23.6687 27.8125 23.8125C27.8125 20.0813 27.8125 16.3438 27.8062 12.6062V7.90625C28.4687 8.00625 29.1187 8.1375 29.7687 8.3125Z" fill="#BEC8F7"/>
<path d="M16.2 29.1006L16.1938 29.1131C16.1875 29.1131 16.1813 29.1193 16.1813 29.1193L16.2 29.1006Z" fill="#BEC8F7"/>
<path d="M31.3937 10.7256H29.7687V27.0693C29.7625 27.0631 29.7437 27.0631 29.7375 27.0631V28.8756H19.25L18.1938 28.3756V28.0756C17.5 28.3818 16.825 28.7318 16.175 29.1193H16.1688C16.1438 29.1318 16.125 29.1443 16.1 29.1631H16.0938C16.0812 29.1693 16.0688 29.1756 16.0562 29.1881C16.0437 29.1943 16.0312 29.2006 16.0187 29.2131C16.0125 29.2193 16.0125 29.2193 16.0063 29.2256H16L15.9875 29.2131C15.9812 29.2131 15.9812 29.2068 15.9812 29.2068C15.9625 29.1943 15.9438 29.1818 15.925 29.1693C15.2375 28.7568 14.525 28.3881 13.7937 28.0631V28.3756L12.7437 28.8756H2.2625V10.7256H0.60625C0.3 10.7256 0.0625 10.9318 0.0625 11.1943V30.2943C0.0625 30.5568 0.30625 30.7631 0.60625 30.7631H12.7875C13.1375 30.7631 13.4875 30.6881 13.7875 30.5381L16 29.4818L18.2125 30.5381C18.5187 30.6818 18.8625 30.7631 19.2125 30.7631H31.3875C31.6938 30.7631 31.9312 30.5568 31.9312 30.2943V11.1943C31.9375 10.9318 31.6937 10.7256 31.3937 10.7256Z" fill="#2A428C"/>
<path d="M13.8 28.0625V28.375L12.75 28.875H2.26245V27.0687C6.1187 26.025 10.1937 26.4687 13.8 28.0625Z" fill="#3C58A0"/>
<path d="M29.7375 27.0628V28.8753H19.25L18.1937 28.3753V28.0753C21.8062 26.4753 25.8875 26.0253 29.7375 27.0628Z" fill="#3C58A0"/>
<path d="M15.9312 29.1691C15.2437 28.7566 14.5312 28.3879 13.8 28.0629C10.1937 26.4691 6.11873 26.0254 2.25623 27.0691V8.31289C2.91248 8.13164 3.58123 7.99414 4.25623 7.90039C4.24998 8.84414 4.24998 9.78164 4.24998 10.7254V12.6066C4.24998 16.3441 4.24998 20.0754 4.24373 23.8129C7.43123 23.6691 10.7875 24.9816 13.7937 27.3004C14.5375 27.8629 15.25 28.4941 15.9312 29.1691Z" fill="#BEC8F7"/>
<path d="M16.0312 10.4751V29.2126C16.025 29.2188 16.025 29.2188 16.0187 29.2251H16.0125L16 29.2126C15.9937 29.2126 15.9937 29.2063 15.9937 29.2063C15.975 29.1938 15.9563 29.1813 15.9375 29.1688C15.25 28.4938 14.5375 27.8626 13.8062 27.3001C10.7937 24.9813 7.4375 23.6688 4.25 23.8126C4.25625 20.0813 4.25625 16.3438 4.25625 12.6063V10.7251C4.25625 9.78134 4.25625 8.84384 4.2625 7.90009V4.87509C8.25 4.69384 12.5063 6.80009 16 10.2938V10.4563C16.0063 10.4626 16.0063 10.4626 16.0125 10.4688H16.0187C16.025 10.4688 16.025 10.4688 16.0312 10.4751Z" fill="#D3DCFB"/>
<path d="M14.1062 13.6938C13.9937 13.6938 13.8812 13.6563 13.7812 13.5813C11.4812 11.7438 8.99997 10.5501 6.61872 10.1313C6.33747 10.0813 6.14997 9.81256 6.19997 9.53131C6.24997 9.25006 6.51872 9.06256 6.79997 9.11256C9.35622 9.55631 11.9937 10.8251 14.4312 12.7751C14.6562 12.9563 14.6937 13.2813 14.5125 13.5063C14.4062 13.6251 14.2562 13.6938 14.1062 13.6938Z" fill="#FD995B"/>
<path d="M14.1062 18.0503C13.9937 18.0503 13.8812 18.0128 13.7812 17.9378C11.4812 16.1003 8.99997 14.9065 6.61872 14.4878C6.33747 14.4378 6.14997 14.169 6.19997 13.8878C6.24997 13.6065 6.51872 13.419 6.79997 13.469C9.35622 13.9128 11.9937 15.1815 14.4312 17.1315C14.6562 17.3128 14.6937 17.6378 14.5125 17.8628C14.4062 17.9815 14.2562 18.0503 14.1062 18.0503Z" fill="#FD995B"/>
<path d="M14.1062 22.9008C13.9937 22.9008 13.8812 22.8633 13.7812 22.7883C11.4812 20.9508 8.99997 19.7571 6.61872 19.3383C6.33747 19.2883 6.14997 19.0196 6.19997 18.7383C6.24997 18.4571 6.51872 18.2696 6.79997 18.3196C9.35622 18.7633 11.9937 20.0321 14.4312 21.9821C14.6562 22.1633 14.6937 22.4883 14.5125 22.7133C14.4062 22.8321 14.2562 22.9008 14.1062 22.9008Z" fill="#FD995B"/>
</svg>
