<svg width="32" height="32" viewBox="0 0 32 32" fill="none" xmlns="http://www.w3.org/2000/svg">
<mask id="mask0_68_250" style="mask-type:alpha" maskUnits="userSpaceOnUse" x="0" y="0" width="32" height="32">
<rect width="32" height="32" fill="#D9D9D9"/>
</mask>
<g mask="url(#mask0_68_250)">
<path d="M14.6667 22.7333V9.59996C13.7556 9.06663 12.7889 8.66663 11.7667 8.39996C10.7445 8.13329 9.71112 7.99996 8.66668 7.99996C7.86668 7.99996 7.07223 8.07774 6.28334 8.23329C5.49445 8.38885 4.73334 8.62218 4.00001 8.93329V22.1333C4.77779 21.8666 5.55001 21.6666 6.31668 21.5333C7.08334 21.4 7.86668 21.3333 8.66668 21.3333C9.71112 21.3333 10.7278 21.45 11.7167 21.6833C12.7056 21.9166 13.6889 22.2666 14.6667 22.7333ZM16 26.6666C14.9333 25.8222 13.7778 25.1666 12.5333 24.7C11.2889 24.2333 10 24 8.66668 24C7.73334 24 6.81668 24.1222 5.91668 24.3666C5.01668 24.6111 4.15557 24.9555 3.33334 25.4C2.86668 25.6444 2.41668 25.6333 1.98334 25.3666C1.55001 25.1 1.33334 24.7111 1.33334 24.2V8.13329C1.33334 7.88885 1.39445 7.65552 1.51668 7.43329C1.6389 7.21107 1.82223 7.0444 2.06668 6.93329C3.0889 6.39996 4.15557 5.99996 5.26668 5.73329C6.37779 5.46663 7.51112 5.33329 8.66668 5.33329C10.3111 5.33329 11.7111 5.52218 12.8667 5.89996C14.0222 6.27774 15.2667 6.85552 16.6 7.63329C16.8445 7.76663 17.0278 7.92218 17.15 8.09996C17.2722 8.27774 17.3333 8.51107 17.3333 8.79996V22.7333C18.3111 22.2666 19.2945 21.9166 20.2833 21.6833C21.2722 21.45 22.2889 21.3333 23.3333 21.3333C24.1333 21.3333 24.9167 21.4 25.6833 21.5333C26.45 21.6666 27.2222 21.8666 28 22.1333V6.09996C28.3333 6.21107 28.6611 6.33329 28.9833 6.46663C29.3056 6.59996 29.6222 6.75552 29.9333 6.93329C30.1778 7.0444 30.3611 7.21107 30.4833 7.43329C30.6056 7.65552 30.6667 7.88885 30.6667 8.13329V24.2C30.6667 24.7111 30.45 25.1 30.0167 25.3666C29.5833 25.6333 29.1333 25.6444 28.6667 25.4C27.8445 24.9555 26.9833 24.6111 26.0833 24.3666C25.1833 24.1222 24.2667 24 23.3333 24C22 24 20.7111 24.2333 19.4667 24.7C18.2222 25.1666 17.0667 25.8222 16 26.6666ZM20.6667 18.6666V3.99996L24.6667 2.66663V17.3333L20.6667 18.6666Z" fill="#0E9F6E"/>
</g>
</svg>
