<svg width="32" height="32" viewBox="0 0 32 32" fill="none" xmlns="http://www.w3.org/2000/svg">
<path d="M16 10.625C18.934 10.625 21.3125 8.24651 21.3125 5.3125C21.3125 2.37849 18.934 0 16 0C13.066 0 10.6875 2.37849 10.6875 5.3125C10.6875 8.24651 13.066 10.625 16 10.625Z" fill="#3C424E"/>
<path d="M19.9037 11.3447C18.7789 12.0752 17.4382 12.5 16 12.5C14.5618 12.5 13.2211 12.0752 12.0963 11.3447C10.8529 11.8199 9.69999 12.521 8.69756 13.4207L16 16.1592L23.3024 13.4207C22.3 12.521 21.1471 11.8199 19.9037 11.3447Z" fill="#3C424E"/>
<path d="M27.25 19.375H26.625C26.1072 19.375 25.6875 19.7947 25.6875 20.3125V22.8125C25.6875 23.3303 26.1072 23.75 26.625 23.75H27.25C28.4581 23.75 29.4375 22.7706 29.4375 21.5625C29.4375 20.3544 28.4581 19.375 27.25 19.375Z" fill="#3C424E"/>
<path d="M5.466 14.6424C5.21325 14.8175 5.0625 15.1054 5.0625 15.4129V17.5001H5.375C6.92581 17.5001 8.1875 18.7618 8.1875 20.3126V22.8126C8.1875 24.3634 6.92581 25.6251 5.375 25.6251H5.0625V27.6004C5.0625 27.9912 5.30494 28.341 5.67081 28.4782L15.0625 32.0001V17.8101L6.32919 14.5351C6.04125 14.427 5.71869 14.4671 5.466 14.6424Z" fill="#3C424E"/>
<path d="M23.8125 22.8126V20.3126C23.8125 18.7618 25.0742 17.5001 26.625 17.5001H26.9375V15.4129C26.9375 15.1054 26.7868 14.8175 26.534 14.6424C26.2812 14.4671 25.9586 14.427 25.6708 14.5351L16.9375 17.8101V32.0001L26.3292 28.4782C26.6951 28.341 26.9375 27.9912 26.9375 27.6004V25.6251H26.625C25.0742 25.6251 23.8125 24.3634 23.8125 22.8126Z" fill="#3C424E"/>
<path d="M6.3125 22.8125V20.3125C6.3125 19.7947 5.89275 19.375 5.375 19.375H4.75C3.54188 19.375 2.5625 20.3544 2.5625 21.5625C2.5625 22.7706 3.54188 23.75 4.75 23.75H5.375C5.89275 23.75 6.3125 23.3303 6.3125 22.8125Z" fill="#3C424E"/>
</svg>
