<svg width="24" height="25" viewBox="0 0 24 25" fill="none" xmlns="http://www.w3.org/2000/svg">
<g clip-path="url(#clip0_109_1855)">
<path fill-rule="evenodd" clip-rule="evenodd" d="M3.8795 3.24707H16.7067C17.4238 3.24707 18.0085 3.85223 18.0085 4.59534V21.9851C18.0085 22.7282 17.4238 23.3334 16.7067 23.3334H3.8795C3.16095 23.3334 2.57764 22.7282 2.57764 21.9851V4.59534C2.57764 3.85223 3.16095 3.24707 3.8795 3.24707Z" fill="#60B7FF"/>
<path fill-rule="evenodd" clip-rule="evenodd" d="M4.12954 5.20342V21.3774C4.13001 21.4843 4.1728 21.5868 4.24856 21.6623C4.32432 21.7379 4.4269 21.7803 4.53388 21.7805H16.0522C16.159 21.7801 16.2613 21.7375 16.3369 21.662C16.4124 21.5865 16.455 21.4842 16.4554 21.3774V5.20342C16.455 5.09662 16.4124 4.99431 16.3369 4.91879C16.2613 4.84327 16.159 4.80068 16.0522 4.80029H4.53374C4.42676 4.80044 4.32418 4.84292 4.24842 4.91846C4.17266 4.99399 4.12987 5.09644 4.12939 5.20342H4.12954Z" fill="#EAF6FF"/>
<path fill-rule="evenodd" clip-rule="evenodd" d="M8.01173 2.08733H8.70548C8.70548 1.66634 8.87272 1.2626 9.1704 0.964918C9.46808 0.667236 9.87183 0.5 10.2928 0.5C10.7138 0.5 11.1175 0.667236 11.4152 0.964918C11.7129 1.2626 11.8801 1.66634 11.8801 2.08733H12.5727C12.9148 2.08845 13.2425 2.22482 13.4843 2.46668C13.7262 2.70853 13.8625 3.03623 13.8637 3.37827V5.73195C13.8635 5.83882 13.821 5.94126 13.7454 6.01683C13.6698 6.09239 13.5674 6.13492 13.4605 6.13508H7.12383C7.01703 6.13468 6.91473 6.09208 6.83921 6.01657C6.7637 5.94105 6.7211 5.83875 6.7207 5.73195V3.37813C6.72182 3.0361 6.85817 2.7084 7.10002 2.46654C7.34187 2.22468 7.66957 2.08831 8.01159 2.08719L8.01173 2.08733Z" fill="#685E68"/>
<path d="M10.2985 1.64746C10.3428 1.64746 10.3867 1.65619 10.4276 1.67315C10.4686 1.69011 10.5058 1.71497 10.5371 1.74631C10.5685 1.77765 10.5933 1.81486 10.6103 1.85581C10.6272 1.89675 10.636 1.94064 10.636 1.98496C10.636 2.02928 10.6272 2.07317 10.6103 2.11412C10.5933 2.15506 10.5685 2.19227 10.5371 2.22361C10.5058 2.25495 10.4686 2.27981 10.4276 2.29677C10.3867 2.31373 10.3428 2.32246 10.2985 2.32246H10.2862C10.1967 2.32246 10.1108 2.2869 10.0475 2.22361C9.98425 2.16032 9.9487 2.07447 9.9487 1.98496C9.9487 1.89545 9.98425 1.80961 10.0475 1.74631C10.1108 1.68302 10.1967 1.64746 10.2862 1.64746H10.2985ZM8.0377 5.13768C7.94818 5.13768 7.86234 5.10212 7.79905 5.03883C7.73575 4.97553 7.7002 4.88969 7.7002 4.80018C7.7002 4.71067 7.73575 4.62482 7.79905 4.56153C7.86234 4.49824 7.94818 4.46268 8.0377 4.46268H12.5471C12.6366 4.46268 12.7224 4.49824 12.7857 4.56153C12.849 4.62482 12.8846 4.71067 12.8846 4.80018C12.8846 4.88969 12.849 4.97553 12.7857 5.03883C12.7224 5.10212 12.6366 5.13768 12.5471 5.13768H8.0377Z" fill="#EAF6FF"/>
<path fill-rule="evenodd" clip-rule="evenodd" d="M21.4222 20.3088C21.4223 21.1377 21.1767 21.9479 20.7163 22.6371C20.2559 23.3263 19.6014 23.8635 18.8357 24.1807C18.07 24.498 17.2274 24.581 16.4145 24.4193C15.6016 24.2577 14.8549 23.8586 14.2688 23.2725C13.6827 22.6864 13.2836 21.9397 13.122 21.1268C12.9603 20.3139 13.0434 19.4713 13.3606 18.7056C13.6779 17.9399 14.2151 17.2854 14.9043 16.825C15.5935 16.3647 16.4037 16.119 17.2326 16.1191C18.3436 16.1194 19.4091 16.5609 20.1948 17.3466C20.9805 18.1322 21.4219 19.1977 21.4222 20.3088Z" fill="#3BB54A"/>
<path d="M14.8746 20.7244C14.8112 20.6611 14.7755 20.5753 14.7754 20.4858C14.7753 20.3962 14.8107 20.3103 14.8739 20.2469C14.9372 20.1835 15.023 20.1478 15.1125 20.1477C15.2021 20.1476 15.288 20.183 15.3514 20.2462L16.4087 21.3036L19.1121 18.6002C19.1753 18.5372 19.261 18.5019 19.3503 18.502C19.4396 18.5021 19.5252 18.5376 19.5883 18.6007C19.6514 18.6638 19.687 18.7494 19.6871 18.8387C19.6872 18.928 19.6518 19.0137 19.5888 19.0769L16.6464 22.0194C16.583 22.0824 16.4973 22.1177 16.408 22.1177C16.3187 22.1177 16.233 22.0824 16.1696 22.0194L14.8746 20.7244Z" fill="#EAF6FF"/>
<path fill-rule="evenodd" clip-rule="evenodd" d="M13.7807 7.43555H12.6961C12.6577 7.43557 12.6209 7.45084 12.5937 7.47798C12.5666 7.50513 12.5513 7.54195 12.5513 7.58034V12.4052C12.5515 12.4435 12.5668 12.4802 12.5939 12.5073C12.621 12.5344 12.6577 12.5498 12.6961 12.55H13.7807C13.819 12.5498 13.8557 12.5344 13.8828 12.5073C13.9099 12.4802 13.9253 12.4435 13.9255 12.4052V7.58034C13.9255 7.54195 13.9102 7.50513 13.8831 7.47798C13.8559 7.45084 13.8191 7.43557 13.7807 7.43555Z" fill="#35A343"/>
<path fill-rule="evenodd" clip-rule="evenodd" d="M10.8354 8.51855H9.7508C9.71247 8.5188 9.67578 8.53413 9.64867 8.56123C9.62156 8.58833 9.60622 8.62502 9.60596 8.66335V12.4049C9.6062 12.4433 9.62154 12.48 9.64865 12.5071C9.67576 12.5342 9.71246 12.5495 9.7508 12.5498H10.8354C10.8736 12.5494 10.9101 12.534 10.937 12.5069C10.9638 12.4798 10.9789 12.4431 10.9788 12.4049V8.66335C10.9789 8.62517 10.9638 8.58852 10.937 8.56139C10.9101 8.53426 10.8736 8.51886 10.8354 8.51855Z" fill="#CF3A45"/>
<path fill-rule="evenodd" clip-rule="evenodd" d="M7.88926 9.60303H6.80457C6.76639 9.60334 6.72988 9.61873 6.70301 9.64586C6.67614 9.67299 6.66108 9.70964 6.66113 9.74782V12.4047C6.66107 12.4429 6.67612 12.4796 6.70299 12.5067C6.72986 12.5339 6.76638 12.5493 6.80457 12.5496H7.88926C7.92758 12.5493 7.96427 12.534 7.99136 12.5069C8.01845 12.4798 8.03377 12.4431 8.03401 12.4047V9.74801C8.03381 9.70966 8.01851 9.67293 7.99141 9.64579C7.96431 9.61865 7.92761 9.60329 7.88926 9.60303Z" fill="#E6A82E"/>
<path d="M6.66104 14.5495C6.57153 14.5495 6.48568 14.514 6.42239 14.4507C6.35909 14.3874 6.32354 14.3015 6.32354 14.212C6.32354 14.1225 6.35909 14.0367 6.42239 13.9734C6.48568 13.9101 6.57153 13.8745 6.66104 13.8745H13.9255C14.015 13.8745 14.1009 13.9101 14.1642 13.9734C14.2275 14.0367 14.263 14.1225 14.263 14.212C14.263 14.3015 14.2275 14.3874 14.1642 14.4507C14.1009 14.514 14.015 14.5495 13.9255 14.5495H6.66104ZM6.66104 19.4823C6.57153 19.4823 6.48568 19.4468 6.42239 19.3835C6.35909 19.3202 6.32354 19.2343 6.32354 19.1448C6.32354 19.0553 6.35909 18.9695 6.42239 18.9062C6.48568 18.8429 6.57153 18.8073 6.66104 18.8073H11.4001C11.4896 18.8073 11.5755 18.8429 11.6387 18.9062C11.702 18.9695 11.7376 19.0553 11.7376 19.1448C11.7376 19.2343 11.702 19.3202 11.6387 19.3835C11.5755 19.4468 11.4896 19.4823 11.4001 19.4823H6.66104ZM6.66104 17.8376C6.61648 17.8381 6.57227 17.8298 6.53095 17.8131C6.48964 17.7964 6.45205 17.7717 6.42035 17.7404C6.38866 17.709 6.3635 17.6717 6.34633 17.6306C6.32916 17.5895 6.32031 17.5454 6.32031 17.5008C6.32031 17.4563 6.32916 17.4122 6.34633 17.371C6.3635 17.3299 6.38866 17.2926 6.42035 17.2613C6.45205 17.23 6.48964 17.2053 6.53095 17.1886C6.57227 17.1719 6.61648 17.1636 6.66104 17.1641H11.4001C11.4447 17.1636 11.4889 17.1719 11.5302 17.1886C11.5715 17.2053 11.6091 17.23 11.6408 17.2613C11.6725 17.2926 11.6976 17.3299 11.7148 17.371C11.732 17.4122 11.7408 17.4563 11.7408 17.5008C11.7408 17.5454 11.732 17.5895 11.7148 17.6306C11.6976 17.6717 11.6725 17.709 11.6408 17.7404C11.6091 17.7717 11.5715 17.7964 11.5302 17.8131C11.4889 17.8298 11.4447 17.8381 11.4001 17.8376H6.66104ZM6.66104 16.1942C6.57153 16.1942 6.48568 16.1587 6.42239 16.0954C6.35909 16.0321 6.32354 15.9462 6.32354 15.8567C6.32354 15.7672 6.35909 15.6814 6.42239 15.6181C6.48568 15.5548 6.57153 15.5192 6.66104 15.5192H13.9255C14.015 15.5192 14.1009 15.5548 14.1642 15.6181C14.2275 15.6814 14.263 15.7672 14.263 15.8567C14.263 15.9462 14.2275 16.0321 14.1642 16.0954C14.1009 16.1587 14.015 16.1942 13.9255 16.1942H6.66104Z" fill="#D3DDE6"/>
<path fill-rule="evenodd" clip-rule="evenodd" d="M7.5228 3.24711C7.55641 2.92958 7.70604 2.63562 7.943 2.4216C8.17997 2.20758 8.48759 2.08855 8.8069 2.08733H9.50064C9.50069 1.73553 9.61759 1.3937 9.83299 1.11554C10.0484 0.83738 10.3501 0.638641 10.6907 0.550536C10.4561 0.489884 10.2107 0.48374 9.97337 0.532574C9.73603 0.581408 9.51302 0.683924 9.32143 0.832267C9.12984 0.980611 8.97475 1.17084 8.86805 1.38839C8.76134 1.60594 8.70585 1.84503 8.70583 2.08733H8.01208C7.69272 2.08833 7.38499 2.20729 7.14798 2.42135C6.91098 2.63542 6.76143 2.9295 6.72804 3.24711C6.72391 3.2908 6.72119 3.33454 6.72119 3.37836V5.73205C6.72159 5.83885 6.76419 5.94115 6.8397 6.01667C6.91522 6.09218 7.01752 6.13478 7.12432 6.13518H7.92072C7.81374 6.13503 7.71116 6.09255 7.6354 6.01701C7.55964 5.94148 7.51685 5.83903 7.51638 5.73205V3.37813C7.51638 3.3344 7.5191 3.29066 7.52318 3.24688L7.5228 3.24711Z" fill="#5E555E"/>
<path fill-rule="evenodd" clip-rule="evenodd" d="M4.89027 21.7802V4.80029H4.53374C4.42676 4.80044 4.32418 4.84292 4.24842 4.91846C4.17266 4.99399 4.12987 5.09644 4.12939 5.20342V21.3772C4.12987 21.4842 4.17266 21.5866 4.24842 21.6622C4.32418 21.7377 4.42676 21.7802 4.53374 21.7803L4.89027 21.7802Z" fill="#D3DDE6"/>
<path fill-rule="evenodd" clip-rule="evenodd" d="M4.12962 21.3772V5.20326C4.13009 5.09628 4.17288 4.99383 4.24864 4.91829C4.32441 4.84276 4.42698 4.80028 4.53396 4.80013H4.8905V3.24707H3.8795C3.16095 3.24707 2.57764 3.85223 2.57764 4.59534V21.9851C2.57764 22.7282 3.16095 23.3334 3.8795 23.3334H4.89036V21.7802H4.53382C4.42684 21.78 4.32427 21.7375 4.2485 21.662C4.17274 21.5865 4.12995 21.484 4.12948 21.3771L4.12962 21.3772Z" fill="#56A5E6"/>
<path fill-rule="evenodd" clip-rule="evenodd" d="M12.8994 7.43555V12.55H13.7807C13.819 12.5498 13.8557 12.5344 13.8828 12.5073C13.9099 12.4802 13.9252 12.4435 13.9255 12.4052V7.58034C13.9254 7.54195 13.9102 7.50513 13.883 7.47798C13.8559 7.45084 13.8191 7.43557 13.7807 7.43555H12.8994Z" fill="#3BB54A"/>
<path fill-rule="evenodd" clip-rule="evenodd" d="M9.9541 8.51855V12.5498H10.8354C10.8735 12.5495 10.9101 12.5341 10.9369 12.507C10.9638 12.4798 10.9789 12.4432 10.9788 12.405V8.6634C10.9788 8.62522 10.9638 8.58856 10.9369 8.56143C10.91 8.53431 10.8735 8.51891 10.8354 8.5186L9.9541 8.51855Z" fill="#E6404D"/>
<path fill-rule="evenodd" clip-rule="evenodd" d="M7.02423 9.60303C7.01321 9.62262 7.00755 9.64477 7.00782 9.66725V12.5496H7.88907C7.9274 12.5493 7.96408 12.534 7.99117 12.5069C8.01827 12.4798 8.03359 12.4431 8.03382 12.4047V9.74801C8.03363 9.70966 8.01832 9.67293 7.99122 9.64579C7.96413 9.61865 7.92742 9.60329 7.88907 9.60303H7.02423Z" fill="#FFBB33"/>
<path fill-rule="evenodd" clip-rule="evenodd" d="M14.1633 20.3088C14.1631 19.2945 14.5309 18.3146 15.1984 17.5509C15.8658 16.7872 16.7877 16.2916 17.7929 16.156C17.6072 16.1313 17.4201 16.119 17.2328 16.1191C16.6825 16.1191 16.1376 16.2275 15.6293 16.4381C15.1209 16.6487 14.6589 16.9574 14.2698 17.3465C13.8807 17.7356 13.572 18.1975 13.3615 18.7059C13.1509 19.2143 13.0425 19.7592 13.0425 20.3095C13.0425 20.8598 13.1509 21.4047 13.3615 21.9131C13.572 22.4215 13.8807 22.8834 14.2698 23.2725C14.6589 23.6616 15.1209 23.9703 15.6293 24.1809C16.1376 24.3914 16.6825 24.4998 17.2328 24.4998C17.4202 24.4996 17.6073 24.4868 17.7929 24.4616C16.7872 24.3272 15.8647 23.8319 15.1969 23.0679C14.5292 22.304 14.1619 21.3234 14.1633 20.3088Z" fill="#35A343"/>
</g>
<defs>
<clipPath id="clip0_109_1855">
<rect width="24" height="24" fill="white" transform="translate(0 0.5)"/>
</clipPath>
</defs>
</svg>
