<svg width="24" height="24" viewBox="0 0 24 24" fill="none" xmlns="http://www.w3.org/2000/svg">
<path d="M19.9044 5.16318C20.2548 8.7389 18.988 11.4943 15.4613 12.18C15.4451 12.1817 15.4311 12.1732 15.4294 12.157C15.3971 11.9855 15.2491 11.2013 15.2586 11.2515C15.254 11.2388 15.2689 11.2242 15.2852 11.2225C18.2713 10.6354 19.2305 8.31208 18.9353 5.25839C18.935 5.25514 18.934 5.24538 18.9236 5.23986C18.9122 5.22458 18.8992 5.2259 18.896 5.22623C16.5111 5.4586 16.5577 5.48577 16.5532 5.44139C16.4773 4.57693 16.4325 4.49792 16.483 4.49279L18.7552 4.26183C19.3696 4.19937 19.8487 4.61582 19.9044 5.16318Z" fill="#FFB63C"/>
<path d="M19.342 5.22034C19.745 9.29456 17.9773 11.4634 15.4219 12.115C15.2762 11.2666 15.224 11.2287 15.2852 11.2225C18.2713 10.6354 19.2305 8.31208 18.9353 5.25839C18.935 5.25513 18.934 5.24537 18.9236 5.23986C18.9122 5.22457 18.8992 5.2259 18.896 5.22623C15.8976 5.52082 15.9952 5.54257 15.9908 5.49856L15.8979 4.58514C15.8914 4.52096 15.8542 4.57344 18.1929 4.31899C18.4399 4.29388 18.7047 4.34579 18.91 4.49241C19.16 4.65751 19.3119 4.92452 19.342 5.22034Z" fill="#FFCA6C"/>
<path d="M8.78922 12.809L8.78828 12.832C8.78993 12.8483 8.77791 12.8594 8.75843 12.8614C5.19669 12.8989 3.37322 10.4804 2.99433 6.88201C2.94022 6.3497 3.31516 5.83124 3.9419 5.76754C6.28712 5.54592 6.2368 5.50139 6.24342 5.56648C6.32316 6.47659 6.36334 6.50012 6.31258 6.50527C3.86679 6.75388 3.98989 6.72503 3.97373 6.75945C3.96141 6.76727 3.9624 6.77704 3.96274 6.78029C4.2923 9.82347 5.69239 11.9134 8.74156 11.8877C8.7953 11.8822 8.75905 11.9229 8.78922 12.809Z" fill="#FFB63C"/>
<path d="M8.78922 12.809C5.42505 12.6432 3.79531 10.2139 3.43971 6.83674C3.38489 6.29736 3.76491 5.78553 4.38724 5.72227C6.7174 5.50207 6.68204 5.4547 6.6888 5.5212C6.77007 6.44874 6.81128 6.45458 6.75467 6.46034C3.83537 6.75707 3.98987 6.72508 3.97373 6.75945C3.96141 6.76727 3.9624 6.77703 3.96273 6.78029C4.2923 9.82347 5.69238 11.9134 8.74156 11.8877C8.7953 11.8822 8.75905 11.9229 8.78922 12.809Z" fill="#FFCA6C"/>
<path d="M14.7664 17.5933L10.5312 18.0238C10.8302 16.8653 11.1079 15.8647 11.2879 14.9689C11.2909 14.9652 11.2913 14.9686 11.2913 14.9686C11.387 14.4777 11.4588 14.0165 11.4852 13.5768L12.9372 13.4292C13.0602 13.8402 13.2263 14.2738 13.4259 14.738C13.7885 15.5719 14.2566 16.5102 14.7664 17.5933Z" fill="#FFCA6C"/>
<path d="M13.0048 13.6282C12.9835 13.5626 12.9565 13.4936 12.9372 13.4292L11.4852 13.5768C11.4812 13.6444 11.4695 13.7162 11.4634 13.7849L13.0048 13.6282Z" fill="#ED8D28"/>
<path d="M10.7841 17.0534C10.7024 17.3655 10.6184 17.6862 10.5312 18.0238L14.7665 17.5933C14.619 17.2801 14.4766 16.9822 14.3377 16.6922L10.7841 17.0534Z" fill="#ED8D28"/>
<path d="M17.9573 17.9873L18.1887 20.2642L7.71634 21.3287L7.48491 19.0517C7.42184 18.4314 7.87405 17.8806 8.49105 17.8179L16.7234 16.9811C17.3303 16.9194 17.8936 17.3606 17.9573 17.9873Z" fill="#613941"/>
<path d="M17.2891 17.547L17.463 19.2572C17.4948 19.5702 17.2669 19.8497 16.9539 19.8815L7.66522 20.8257L7.48491 19.0517C7.42184 18.4313 7.87405 17.8806 8.49105 17.8179L16.7234 16.9811C16.8441 16.9688 16.9635 16.977 17.078 17.0027C17.1916 17.1537 17.2683 17.3424 17.2891 17.547Z" fill="#804F59"/>
<path d="M8.78715 12.8312C8.78885 12.848 8.77645 12.8594 8.75967 12.8611C8.50579 12.8632 8.26095 12.8542 8.02481 12.8308C7.72048 12.4616 7.383 11.9654 7.23247 11.7018C7.67539 11.8262 8.17688 11.8938 8.74198 11.8872C8.79681 11.8816 8.76 11.9268 8.78715 12.8312Z" fill="#ED8D28"/>
<path d="M16.7257 10.7369C16.5681 11.1866 16.3843 11.6118 16.1737 12.0059C15.9467 12.073 15.7087 12.1311 15.4629 12.1798C15.4096 12.1852 15.443 12.166 15.2602 11.2517C15.2307 11.1701 15.8079 11.2105 16.7257 10.7369Z" fill="#ED8D28"/>
<path d="M17.3471 5.38508C16.6062 5.45091 16.5578 5.48615 16.5533 5.44207C16.4777 4.57593 16.4319 4.49903 16.4841 4.49372L17.2386 4.41703C17.2876 4.74539 17.3335 5.19101 17.3471 5.38508Z" fill="#ED8D28"/>
<path d="M13.4259 14.738C12.7825 15.0099 12.0468 15.1007 11.2913 14.9686C11.387 14.4777 11.4588 14.0165 11.4852 13.5768L12.9372 13.4292C13.0603 13.8402 13.2263 14.2738 13.4259 14.738Z" fill="#ED8D28"/>
<path d="M12.2977 14.3707C10.5775 14.5456 8.9161 13.3999 7.74919 11.4858C6.45386 9.37073 5.91834 6.58977 6.14633 4.04949L16.2498 3.02251C17.7806 8.1139 15.9799 13.9964 12.2977 14.3707Z" fill="#FFB63C"/>
<path d="M6.33583 6.48064C6.3403 6.52459 6.28678 6.49984 5.55019 6.58419C5.51322 6.36045 5.47133 5.85184 5.4584 5.61444L6.2129 5.53775C6.26507 5.53244 6.23549 5.61569 6.33583 6.48064Z" fill="#ED8D28"/>
<path d="M15.1131 3.57173C15.5828 8.1926 13.5957 12.1755 10.6784 12.472C9.64888 12.5767 8.63916 12.2084 7.74919 11.4858C6.45386 9.37073 5.91834 6.58977 6.14633 4.04949L15.0628 3.14318C15.0804 3.28369 15.0984 3.42756 15.1131 3.57173Z" fill="#FFCA6C"/>
<path d="M16.7569 2.74488C16.63 2.8967 16.4478 3.00331 16.2331 3.02513L6.16316 4.0487C5.86475 4.07903 5.5858 3.9346 5.43646 3.69907C5.42877 3.68972 5.42103 3.68034 5.41665 3.6706C5.12262 3.15612 5.46799 2.56091 6.00636 2.50619C16.6422 1.43918 16.0977 1.44484 16.3319 1.49729C16.8906 1.6283 17.116 2.30467 16.7569 2.74488Z" fill="#ED8D28"/>
<path d="M15.4931 2.67686L5.43646 3.69907C5.42877 3.68972 5.42103 3.68034 5.41665 3.67061C5.12262 3.15612 5.46799 2.56091 6.00636 2.50619L16.0663 1.48364C16.3718 1.95219 16.0893 2.61625 15.4931 2.67686Z" fill="#FFB63C"/>
<path d="M15.228 1.56885C15.144 1.86922 14.876 2.08908 14.5625 2.12095L5.3409 3.05828C5.41237 2.7906 5.66906 2.54047 6.00637 2.50619L15.228 1.56885Z" fill="#FFCA6C"/>
<path d="M18.973 20.5808L19.0306 21.1475C19.0398 21.2381 18.9732 21.316 18.8861 21.3248L7.13026 22.5198C7.04308 22.5286 6.96551 22.4654 6.95631 22.3748L6.8987 21.8081C6.87689 21.5935 7.03018 21.4017 7.2448 21.3799L18.5445 20.2314C18.7591 20.2096 18.9512 20.3662 18.973 20.5808Z" fill="#613941"/>
<path d="M18.4674 20.2392L18.5247 20.8026C18.5339 20.8931 18.4706 20.9707 18.3801 20.9799L6.93279 22.1435L6.8987 21.8081C6.87689 21.5935 7.03018 21.4018 7.2448 21.3799L18.4674 20.2392Z" fill="#804F59"/>
<path d="M12.1424 5.51875L12.6108 6.26628C12.6998 6.40821 12.8528 6.49728 13.0202 6.50448L13.9015 6.5424C14.3229 6.56054 14.5406 7.05398 14.2699 7.37742L13.7037 8.0539C13.5962 8.18233 13.5587 8.35544 13.6036 8.51681L13.8399 9.36673C13.9529 9.77309 13.5508 10.1326 13.1596 9.97509L12.3412 9.64565C12.1859 9.58311 12.0097 9.60102 11.8701 9.69355L11.1348 10.1809C10.7832 10.4139 10.3171 10.1427 10.346 9.72188L10.4064 8.84179C10.4179 8.6747 10.3464 8.51266 10.2152 8.40848L9.52451 7.85976C9.19426 7.59741 9.30819 7.07026 9.71731 6.96771L10.573 6.75323C10.7355 6.71251 10.8675 6.59445 10.926 6.43753L11.2344 5.61105C11.3819 5.21589 11.9185 5.16135 12.1424 5.51875Z" fill="#ED8D28"/>
<path d="M11.7355 5.11946L12.2039 5.86699C12.2928 6.00891 12.4459 6.09799 12.6132 6.10519L13.4945 6.14311C13.9159 6.16124 14.1336 6.65469 13.8629 6.97813L13.2967 7.65461C13.1892 7.78304 13.1518 7.95615 13.1967 8.11752L13.4329 8.96744C13.5459 9.3738 13.1439 9.73331 12.7526 9.5758L11.9343 9.24636C11.7789 9.18381 11.6027 9.20173 11.4631 9.29425L10.7278 9.78162C10.3763 10.0146 9.91011 9.74337 9.939 9.32259L9.99944 8.4425C10.0109 8.27541 9.93943 8.11337 9.80829 8.00919L9.11756 7.46047C8.78731 7.19812 8.90124 6.67097 9.31036 6.56842L10.166 6.35394C10.3285 6.31321 10.4605 6.19516 10.5191 6.03824L10.8275 5.21176C10.975 4.8166 11.5115 4.76206 11.7355 5.11946Z" fill="white"/>
<g opacity="0.5">
<path d="M15.4111 18.1567L15.5149 19.1775C15.5308 19.334 15.4168 19.4739 15.2602 19.4898L10.4292 19.9808C10.2726 19.9967 10.1328 19.8827 10.1169 19.7262L10.0131 18.7054C9.99723 18.5489 10.1112 18.409 10.2678 18.3931L15.0989 17.9021C15.2554 17.8862 15.3952 18.0002 15.4111 18.1567Z" fill="white"/>
</g>
<g opacity="0.49">
<path d="M8.29313 20.0506C8.29719 20.085 8.31767 20.3281 8.29166 20.3738C8.26555 20.41 8.20458 20.3843 8.16571 20.3408C8.09821 20.2522 8.07393 20.0786 8.06879 19.98C8.06116 19.9102 8.10027 19.7336 8.18656 19.7624C8.27885 19.8111 8.27971 19.9055 8.29313 20.0506Z" fill="white"/>
<path d="M8.44113 18.8255C8.43706 18.9315 8.4035 19.3693 8.33462 19.4494C8.26761 19.5269 8.1301 19.5012 8.06042 19.4234C7.92881 19.2762 7.9298 18.9456 7.94747 18.7585C7.95808 18.6266 8.10112 18.27 8.28709 18.3006C8.49733 18.3233 8.44586 18.6445 8.44113 18.8255Z" fill="white"/>
</g>
<path d="M7.0546 4.69044C7.16653 4.79053 7.22327 5.04066 7.25293 5.24619C7.33758 5.83274 7.36275 6.42666 7.25309 6.8754C7.19898 7.09683 7.0471 7.12511 6.91999 6.85481C6.49082 5.94213 6.71656 4.38815 7.0546 4.69044Z" fill="white"/>
<path d="M7.32696 7.6704C7.43064 7.97592 7.50966 8.30841 7.51413 8.6088C7.51867 8.91297 7.29638 8.8078 7.14059 8.17329C6.99373 7.57518 7.14106 7.12261 7.32696 7.6704Z" fill="white"/>
<path d="M12.2264 2.65316C14.4932 2.16443 14.8805 2.60059 15.613 1.82067C15.4651 2.08244 15.2228 2.3053 14.9249 2.41253C14.5598 2.5659 12.7662 2.65845 12.2264 2.65316Z" fill="white"/>
<path d="M20.8759 15.997C20.6904 15.7462 20.419 15.5333 20.0858 15.3409C19.813 15.7503 19.5725 16.1052 19.0448 16.7082C19.9071 14.0732 16.3823 13.1456 16.3033 10.8713C17.0427 10.4897 17.7156 9.91481 18.2684 9.28416C17.3065 12.2318 21.8379 13.046 20.8759 15.997Z" fill="#0843B5"/>
<path d="M6.20655 18.4018C5.70838 17.9896 5.29954 17.6014 4.95599 17.2235C4.69419 17.4347 4.44185 17.6958 4.28266 17.9965C2.85353 15.2447 7.19248 13.7022 5.76336 10.9503C6.44348 11.3326 7.12236 11.6528 7.87957 11.8195C8.62852 14.2896 4.85979 15.8081 6.20655 18.4018Z" fill="#0843B5"/>
<path d="M19.0448 16.7082C19.9071 14.0732 16.3823 13.1456 16.3033 10.8713C16.7293 10.6515 17.1278 10.3732 17.5057 10.0434C17.3975 10.9268 17.5609 11.7963 17.9283 12.5478C18.6138 13.9334 19.5512 14.0715 20.0068 15.4645C19.7457 15.8562 19.4296 16.2684 19.0448 16.7082Z" fill="#0B5FFF"/>
<path d="M6.20655 18.4018C5.70838 17.9896 5.29954 17.6014 4.956 17.2235C4.84952 17.3094 4.74992 17.3987 4.66403 17.488C4.97819 16.1777 6.26895 16.1335 6.52602 13.2384C6.5911 12.4182 6.64731 12.0247 7.36082 11.689C7.36426 11.689 7.36769 11.6855 7.37113 11.6821C7.53947 11.7371 7.7078 11.7817 7.87957 11.8195C8.62852 14.2896 4.85979 15.8081 6.20655 18.4018Z" fill="#0B5FFF"/>
</svg>
