<svg width="24" height="24" viewBox="0 0 24 24" fill="none" xmlns="http://www.w3.org/2000/svg">
<g clip-path="url(#clip0_63_826)">
<path d="M22.383 6.70236V20.8123C22.383 22.0527 21.3776 23.0582 20.137 23.0582H3.85955C2.62234 23.0582 1.61703 22.0527 1.61703 20.8123V6.70236C1.61703 5.4619 2.62234 4.45643 3.85955 4.45643H20.137C21.3776 4.45643 22.383 5.4619 22.383 6.70236Z" fill="#E8EDF2"/>
<path d="M20.137 4.45643H12.2812V23.0582H20.137C21.3776 23.0582 22.383 22.0528 22.383 20.8124V6.70229C22.383 5.46183 21.3776 4.45643 20.137 4.45643Z" fill="#C4D3E4"/>
<path d="M23.2941 4.01698V6.79467C23.2941 7.52519 22.7011 8.1182 21.9706 8.1182H2.02942C1.2988 8.1182 0.705887 7.52519 0.705887 6.79467V4.01698C0.705887 3.28645 1.2988 2.69 2.02942 2.69H21.9706C22.7011 2.69 23.2941 3.28645 23.2941 4.01698Z" fill="#0B5FFF"/>
<path d="M21.9706 2.69H12.2812V8.1182H21.9706C22.7011 8.1182 23.2941 7.52519 23.2941 6.79467V4.01698C23.2941 3.28645 22.7011 2.69 21.9706 2.69Z" fill="#0B5FFF"/>
<path d="M20.1241 1.6466V4.41236C20.1241 4.80426 19.8077 5.11705 19.4195 5.11705H18.6169C18.2288 5.11705 17.9122 4.80426 17.9122 4.41236V1.6466C17.9122 1.25838 18.2288 0.941914 18.6169 0.941914H19.4195C19.8077 0.941914 20.1241 1.25838 20.1241 1.6466Z" fill="#FABB53"/>
<path d="M19.4194 0.941837H18.9797V5.11699H19.4194C19.8077 5.11699 20.1242 4.8042 20.1242 4.41231V1.64669C20.1242 1.25842 19.8077 0.941837 19.4194 0.941837Z" fill="#F99944"/>
<path d="M15.4286 1.64674V4.4125C15.4286 4.8044 15.1121 5.11718 14.7239 5.11718H13.9213C13.5332 5.11718 13.2166 4.8044 13.2166 4.4125V1.64674C13.2166 1.25852 13.5332 0.942051 13.9213 0.942051H14.7239C15.1121 0.942051 15.4286 1.25852 15.4286 1.64674Z" fill="#FABB53"/>
<path d="M14.7239 0.941837H14.2841V5.11699H14.7239C15.1121 5.11699 15.4286 4.8042 15.4286 4.41231V1.64669C15.4286 1.25842 15.1121 0.941837 14.7239 0.941837Z" fill="#F99944"/>
<path d="M10.7833 1.64674V4.4125C10.7833 4.8044 10.4668 5.11718 10.0786 5.11718H9.27602C8.88789 5.11718 8.57133 4.8044 8.57133 4.4125V1.64674C8.57133 1.25852 8.88789 0.942051 9.27602 0.942051H10.0786C10.4668 0.942051 10.7833 1.25852 10.7833 1.64674Z" fill="#FABB53"/>
<path d="M10.0786 0.941837H9.63881V5.11699H10.0786C10.4668 5.11699 10.7833 4.8042 10.7833 4.41231V1.64669C10.7833 1.25842 10.4668 0.941837 10.0786 0.941837Z" fill="#F99944"/>
<path d="M6.08778 1.64674V4.4125C6.08778 4.8044 5.77132 5.11718 5.3831 5.11718H4.58053C4.1924 5.11718 3.87584 4.8044 3.87584 4.4125V1.64674C3.87584 1.25852 4.1924 0.942051 4.58053 0.942051H5.3831C5.77132 0.942051 6.08778 1.25852 6.08778 1.64674Z" fill="#FABB53"/>
<path d="M5.38308 0.941837H4.94331V5.11699H5.38308C5.77135 5.11699 6.08784 4.8042 6.08784 4.41231V1.64669C6.08784 1.25842 5.77135 0.941837 5.38308 0.941837Z" fill="#F99944"/>
<path d="M19.4701 21.3096C19.3899 21.3782 19.2896 21.4126 19.1923 21.4126C19.072 21.4126 18.9488 21.3582 18.8657 21.258L18.3101 20.5993L17.7545 21.258C17.6714 21.3582 17.5482 21.4126 17.4279 21.4126C17.3277 21.4126 17.2303 21.3782 17.1501 21.3096C16.9697 21.1578 16.9467 20.8885 17.0985 20.7053L17.8805 19.7744V13.9029C17.8805 13.6651 18.0723 13.4732 18.3101 13.4732C18.5478 13.4732 18.7397 13.6651 18.7397 13.9029V19.7744L19.5216 20.7053C19.6734 20.8885 19.6505 21.1578 19.4701 21.3096Z" fill="white"/>
<path d="M18.7394 13.9016V14.8641C18.6391 15.0044 18.4959 15.1218 18.3127 15.1992L17.8802 15.3768V13.9016C17.8802 13.6639 18.072 13.472 18.3098 13.472C18.5475 13.472 18.7394 13.6639 18.7394 13.9016Z" fill="#E8EDF2"/>
<path d="M16.8004 18.9483L12.0115 21.3285C11.7279 21.4717 11.3928 21.4717 11.1092 21.3285L6.3204 18.9455C5.85637 18.7135 5.63869 18.1749 5.81917 17.6881L6.44641 15.9868L6.82163 14.9729L11.5618 13.5723V13.5695L16.2963 14.9729L16.6715 15.9896L17.2987 17.6911C17.4763 18.1749 17.2615 18.7163 16.8004 18.9483Z" fill="#454545"/>
<path d="M17.2994 17.6904L16.2975 14.974L11.5609 13.5682V13.571L11.5016 13.5885V21.4292C11.6758 21.4392 11.8516 21.4093 12.0114 21.3294L16.7997 18.9489C17.261 18.7167 17.4768 18.1735 17.2994 17.6904Z" fill="#2C2C2C"/>
<path d="M16.6715 15.9896L11.9427 17.9431C11.6964 18.0432 11.4214 18.0432 11.178 17.9431L6.44641 15.9868L6.82163 14.9729L11.5618 13.5723V13.5695L16.2963 14.9729L16.6715 15.9896Z" fill="#0C0C0C"/>
<path d="M18.1207 14.8541L11.9427 17.406C11.6963 17.5062 11.4214 17.5062 11.178 17.406L4.99707 14.8511C4.17215 14.5103 4.17215 13.3417 4.9942 13.0009L11.175 10.4261C11.4214 10.3229 11.6992 10.3229 11.9456 10.4261L18.1236 13.0009C18.9456 13.3445 18.9456 14.5131 18.1207 14.8541Z" fill="#454545"/>
<path d="M18.1236 13.0008L11.9455 10.426C11.8039 10.3667 11.6521 10.3456 11.5016 10.3544V17.4755C11.6506 17.4841 11.8012 17.4635 11.9427 17.4059L18.1206 14.854C18.9456 14.5131 18.9456 13.3445 18.1236 13.0008Z" fill="#2C2C2C"/>
<path d="M11.5588 14.7025C12.1982 14.7025 12.7165 14.3498 12.7165 13.9147C12.7165 13.4797 12.1982 13.127 11.5588 13.127C10.9195 13.127 10.4012 13.4797 10.4012 13.9147C10.4012 14.3498 10.9195 14.7025 11.5588 14.7025Z" fill="white"/>
<path d="M12.716 13.916C12.716 14.3485 12.1976 14.7037 11.5589 14.7037C11.0921 14.7037 10.6883 14.5146 10.5078 14.2426C10.6825 14.3142 10.8859 14.3571 11.1064 14.3571C11.7451 14.3571 12.2636 14.0048 12.2636 13.5695C12.2636 13.452 12.2263 13.3403 12.1575 13.2429C12.4926 13.3804 12.716 13.6296 12.716 13.916Z" fill="#E8EDF2"/>
<path d="M6.7933 12.6018L9.45549 11.4821C9.56107 11.4377 9.67915 11.4378 9.78042 11.4791C9.8817 11.5204 9.97145 11.6007 10.0181 11.7116C10.1103 11.9307 10.0051 12.1831 9.78862 12.2741L7.12643 13.3938C6.90727 13.486 6.65601 13.3835 6.56384 13.1644C6.47169 12.9453 6.57414 12.694 6.7933 12.6018Z" fill="#7D7D7D"/>
<path d="M3.41766 6.75094H3.90119C4.03095 6.75094 4.15421 6.8029 4.24182 6.89052C4.32943 6.97813 4.38789 7.10139 4.38789 7.23764C4.38789 7.50697 4.1672 7.72434 3.90119 7.72434H3.41766C3.14832 7.72434 2.93095 7.50697 2.93095 7.23764C2.93095 6.96839 3.14832 6.75094 3.41766 6.75094Z" fill="#4DB6FF"/>
<path d="M5.48614 6.75094H8.7579C8.88766 6.75094 9.01092 6.8029 9.09853 6.89052C9.18614 6.97813 9.24461 7.10139 9.24461 7.23764C9.24461 7.50697 9.02391 7.72434 8.7579 7.72434H5.48614C5.2168 7.72434 4.99944 7.50697 4.99944 7.23764C4.99944 6.96839 5.2168 6.75094 5.48614 6.75094Z" fill="#4DB6FF"/>
</g>
<defs>
<clipPath id="clip0_63_826">
<rect width="24" height="24" fill="white"/>
</clipPath>
</defs>
</svg>
