<svg width="24" height="24" viewBox="0 0 24 24" fill="none" xmlns="http://www.w3.org/2000/svg">
<path d="M20.418 20.3783H7.20375C6.40364 20.3783 5.75508 19.7296 5.75508 18.9296V1.44867C5.75503 0.648609 6.40364 0 7.20375 0H20.418C21.2181 0 21.8667 0.648609 21.8667 1.44867V18.9296C21.8667 19.7297 21.2181 20.3783 20.418 20.3783Z" fill="#0E9F6E"/>
<path d="M20.418 0H18.9693C19.7694 0 20.418 0.648609 20.418 1.44867V18.9296C20.418 19.7297 19.7694 20.3783 18.9693 20.3783H20.418C21.2181 20.3783 21.8667 19.7296 21.8667 18.9296V1.44867C21.8667 0.648609 21.2181 0 20.418 0Z" fill="#0E6D4D"/>
<path d="M7.68666 11.7344V2.12475C7.68666 2.01806 7.77315 1.93158 7.87983 1.93158H19.7419C19.8486 1.93158 19.9351 2.01806 19.9351 2.12475V11.7344C19.9351 11.8411 19.8486 11.9276 19.7419 11.9276H7.87983C7.77315 11.9276 7.68666 11.8411 7.68666 11.7344Z" fill="#F9F7F8"/>
<path d="M19.9351 14.6801H7.68666C7.4866 14.6801 7.32451 14.5179 7.32451 14.3179C7.32451 14.1179 7.48665 13.9558 7.68666 13.9558H19.9351C20.1352 13.9558 20.2973 14.1179 20.2973 14.3179C20.2973 14.5179 20.1351 14.6801 19.9351 14.6801Z" fill="#88D4BA"/>
<path d="M19.9351 16.1288H7.68666C7.4866 16.1288 7.32451 15.9666 7.32451 15.7666C7.32451 15.5666 7.48665 15.4044 7.68666 15.4044H19.9351C20.1352 15.4044 20.2973 15.5666 20.2973 15.7666C20.2973 15.9666 20.1351 16.1288 19.9351 16.1288Z" fill="#88D4BA"/>
<path d="M19.9351 17.5775H7.68666C7.4866 17.5775 7.32451 17.4153 7.32451 17.2153C7.32451 17.0153 7.48665 16.8532 7.68666 16.8532H19.9351C20.1352 16.8532 20.2973 17.0153 20.2973 17.2153C20.2973 17.4153 20.1351 17.5775 19.9351 17.5775Z" fill="#88D4BA"/>
<path d="M16.7963 24H3.582C2.78189 24 2.13333 23.3514 2.13333 22.5513V5.07042C2.13333 4.27031 2.78194 3.62175 3.582 3.62175H16.7963C17.5964 3.62175 18.2449 4.27036 18.2449 5.07042V22.5513C18.245 23.3514 17.5964 24 16.7963 24Z" fill="#0B5FFF"/>
<path d="M16.7963 3.62175H15.3476C16.1477 3.62175 16.7963 4.27036 16.7963 5.07042V22.5513C16.7963 23.3514 16.1476 24 15.3476 24H16.7963C17.5964 24 18.2449 23.3514 18.2449 22.5513V5.07042C18.245 4.27031 17.5964 3.62175 16.7963 3.62175Z" fill="#0951D9"/>
<path d="M4.06491 15.3562V5.7465C4.06491 5.63981 4.1514 5.55333 4.25808 5.55333H16.1202C16.2269 5.55333 16.3133 5.63981 16.3133 5.7465V15.3562C16.3133 15.4628 16.2269 15.5493 16.1202 15.5493H4.25808C4.1514 15.5493 4.06491 15.4628 4.06491 15.3562Z" fill="#F9F7F8"/>
<path d="M16.3134 18.3018H4.06492C3.86485 18.3018 3.70276 18.1397 3.70276 17.9397C3.70276 17.7397 3.8649 17.5775 4.06492 17.5775H16.3134C16.5134 17.5775 16.6755 17.7397 16.6755 17.9397C16.6755 18.1396 16.5134 18.3018 16.3134 18.3018Z" fill="#FFF5C6"/>
<path d="M16.3134 19.7505H4.06492C3.86485 19.7505 3.70276 19.5884 3.70276 19.3883C3.70276 19.1883 3.8649 19.0262 4.06492 19.0262H16.3134C16.5134 19.0262 16.6755 19.1883 16.6755 19.3883C16.6755 19.5884 16.5134 19.7505 16.3134 19.7505Z" fill="#FFF5C6"/>
<path d="M16.3134 21.1992H4.06492C3.86485 21.1992 3.70276 21.0371 3.70276 20.8371C3.70276 20.637 3.8649 20.4749 4.06492 20.4749H16.3134C16.5134 20.4749 16.6755 20.637 16.6755 20.8371C16.6755 21.037 16.5134 21.1992 16.3134 21.1992Z" fill="#FFF5C6"/>
<path d="M13.416 22.6479H4.06492C3.86485 22.6479 3.70276 22.4857 3.70276 22.2857C3.70276 22.0857 3.8649 21.9236 4.06492 21.9236H13.416C13.616 21.9236 13.7781 22.0857 13.7781 22.2857C13.7782 22.4857 13.616 22.6479 13.416 22.6479Z" fill="#FFF5C6"/>
<path d="M10.7097 7.68858L11.286 8.85637C11.3706 9.0277 11.5341 9.14648 11.7232 9.17395L13.0119 9.36122C13.4881 9.4304 13.6782 10.0155 13.3336 10.3514L12.4011 11.2604C12.2643 11.3938 12.2018 11.5859 12.2341 11.7742L12.4543 13.0578C12.5356 13.532 12.0378 13.8937 11.612 13.6697L10.4593 13.0637C10.2902 12.9748 10.0882 12.9748 9.91903 13.0637L8.76638 13.6697C8.34047 13.8937 7.84275 13.532 7.92408 13.0578L8.14421 11.7742C8.1765 11.586 8.11407 11.3938 7.97724 11.2604L7.04471 10.3514C6.70018 10.0155 6.8903 9.4304 7.36646 9.36122L8.65519 9.17395C8.84428 9.14648 9.00774 9.0277 9.0923 8.85637L9.66863 7.68858C9.88149 7.25709 10.4968 7.25709 10.7097 7.68858Z" fill="#FFD15B"/>
<path d="M13.3336 10.3514C13.6781 10.0155 13.488 9.43036 13.0118 9.36117L11.7231 9.17391C11.534 9.14644 11.3706 9.02766 11.286 8.85633L10.7097 7.68853C10.4967 7.25705 9.88149 7.25705 9.66854 7.68853L9.38977 8.25337L9.7186 8.91966C9.8775 9.24159 10.1846 9.46477 10.5399 9.51638C11.4346 9.64641 11.7919 10.7459 11.1444 11.377C10.8873 11.6276 10.7701 11.9887 10.8307 12.3425L11.0035 13.3498L11.6119 13.6696C12.0378 13.8936 12.5356 13.5319 12.4542 13.0576L12.2341 11.7742C12.2018 11.5859 12.2642 11.3937 12.4011 11.2603L13.3336 10.3514Z" fill="#FFC344"/>
</svg>
