<svg width="24" height="24" viewBox="0 0 24 24" fill="none" xmlns="http://www.w3.org/2000/svg">
<g clip-path="url(#clip0_226_1162)">
<path d="M13.4062 24H10.5938C10.2494 24 9.95569 23.7506 9.89991 23.4108L9.46753 20.7766C8.81348 20.5881 8.18325 20.3264 7.58508 19.9951L5.44805 21.5215C5.16834 21.7212 4.78523 21.6895 4.54219 21.4465L2.55352 19.4578C2.31047 19.2148 2.27878 18.8317 2.47852 18.552L4.00491 16.415C3.67355 15.8168 3.41189 15.1865 3.22336 14.5325L0.589266 14.1002C0.249422 14.0443 0 13.7507 0 13.4063V10.5938C0 10.2494 0.249422 9.95572 0.589266 9.89994L3.22336 9.46761C3.41189 8.81356 3.67355 8.18333 4.00491 7.58516L2.47852 5.44812C2.27873 5.16842 2.31047 4.78531 2.55352 4.54226L4.54219 2.55355C4.78523 2.3105 5.16834 2.27881 5.44805 2.47855L7.58508 4.00494C8.18325 3.67358 8.81348 3.41192 9.46753 3.22339L9.89991 0.589249C9.95569 0.249452 10.2494 3.05176e-05 10.5938 3.05176e-05H13.4062C13.7506 3.05176e-05 14.0443 0.249452 14.1001 0.589296L14.5325 3.22339C15.1865 3.41192 15.8167 3.67358 16.4149 4.00494L18.552 2.47855C18.8316 2.27876 19.2148 2.31045 19.4578 2.55355L21.4465 4.54222C21.6895 4.78526 21.7212 5.16837 21.5215 5.44808L19.9951 7.58511C20.3265 8.18333 20.5881 8.81356 20.7766 9.46756L23.4107 9.89989C23.7506 9.95572 24 10.2494 24 10.5938V13.4063C24 13.7507 23.7506 14.0443 23.4107 14.1001L20.7766 14.5325C20.5882 15.1865 20.3265 15.8167 19.9951 16.4149L21.5215 18.5519C21.7213 18.8316 21.6895 19.2147 21.4465 19.4578L19.4578 21.4465C19.2147 21.6896 18.8317 21.7212 18.552 21.5215L16.4149 19.9951C15.8167 20.3265 15.1865 20.5881 14.5325 20.7767L14.1001 23.4108C14.0443 23.7506 13.7506 24 13.4062 24Z" fill="#0B5FFF"/>
<path d="M12 16.9219C9.28608 16.9219 7.07812 14.714 7.07812 12C7.07812 9.28611 9.28608 7.07816 12 7.07816C14.7139 7.07816 16.9219 9.28611 16.9219 12C16.9219 14.714 14.7139 16.9219 12 16.9219Z" fill="url(#paint0_linear_226_1162)"/>
</g>
<defs>
<linearGradient id="paint0_linear_226_1162" x1="12" y1="16.9219" x2="12" y2="7.07816" gradientUnits="userSpaceOnUse">
<stop stop-color="#ADDCFF"/>
<stop offset="0.5028" stop-color="#EAF6FF"/>
<stop offset="1" stop-color="#EAF6FF"/>
</linearGradient>
<clipPath id="clip0_226_1162">
<rect width="24" height="24" fill="white"/>
</clipPath>
</defs>
</svg>
