<svg width="24" height="24" viewBox="0 0 24 24" fill="none" xmlns="http://www.w3.org/2000/svg">
<path d="M6.41092 2.56909L2.47637 2.82C1.85819 2.86 1.38728 3.39455 1.42728 4.01273L2.40365 19.3255C2.44365 19.9436 2.97819 20.4145 3.59637 20.3745L7.53092 20.1236L6.41092 2.56909Z" fill="#003ED3"/>
<path d="M3.12909 20.3964C3.11818 20.3964 3.10727 20.3945 3.09637 20.3909C2.65091 20.2218 2.34364 19.8073 2.31273 19.3327L1.65818 9.06728C1.65455 9.01637 1.69273 8.97455 1.74364 8.97091C1.79273 8.96728 1.83637 9.00546 1.84 9.05637L2.49455 19.3218C2.52 19.7255 2.78182 20.0782 3.16 20.2218C3.20727 20.24 3.23091 20.2927 3.21273 20.34C3.2 20.3745 3.16546 20.3964 3.12909 20.3964Z" fill="black"/>
<path d="M1.58182 6.52182C1.53455 6.52182 1.49455 6.48546 1.49091 6.43637L1.33637 4.02C1.29819 3.42182 1.69455 2.89091 2.27819 2.75819C2.32728 2.74728 2.37637 2.77819 2.38728 2.82728C2.39819 2.87637 2.36728 2.92546 2.31819 2.93637C1.82182 3.0491 1.48546 3.5 1.51637 4.0091L1.67273 6.42546C1.67637 6.47637 1.63819 6.51819 1.58728 6.52182C1.58546 6.52182 1.58364 6.52182 1.58182 6.52182Z" fill="black"/>
<path d="M17.2527 3.00364L18.2291 18.3164C18.2691 18.9345 17.7982 19.4691 17.18 19.5091L4.86728 20.2945C4.2491 20.3346 3.71455 19.8636 3.67455 19.2455L2.69819 3.93273C2.65819 3.31455 3.1291 2.78 3.74728 2.74L16.06 1.95455C16.6782 1.91455 17.2127 2.38546 17.2527 3.00364Z" fill="#158ED8"/>
<path d="M17.2527 3.00364L18.2291 18.3164C18.2691 18.9345 17.7982 19.4691 17.18 19.5091L4.86727 20.2945C4.59273 20.3127 4.33454 20.2291 4.12909 20.0782L16.7655 2.14728C17.04 2.33637 17.2309 2.64546 17.2527 3.00364Z" fill="#015ED4"/>
<path d="M4.79454 20.3873C4.5 20.3873 4.21818 20.2818 3.99454 20.0836C3.75091 19.8691 3.60545 19.5727 3.58545 19.2491L2.60909 3.93636C2.58909 3.61273 2.69454 3.3 2.90909 3.05636C3.12363 2.81273 3.42 2.66727 3.74363 2.64727L16.0564 1.86182C16.7273 1.82 17.3036 2.32727 17.3455 2.99636L18.3218 18.3091C18.3636 18.9782 17.8545 19.5564 17.1873 19.5982L4.87454 20.3836C4.84545 20.3873 4.82 20.3873 4.79454 20.3873ZM16.1327 2.04182C16.1109 2.04182 16.0891 2.04182 16.0655 2.04363L3.75273 2.82909C3.47818 2.84727 3.22545 2.97091 3.04363 3.17818C2.86182 3.38545 2.77091 3.65091 2.78727 3.92545L3.76363 19.2382C3.78182 19.5127 3.90545 19.7655 4.11273 19.9473C4.32 20.1291 4.58545 20.22 4.86 20.2036L17.1727 19.4182C17.7418 19.3818 18.1745 18.8909 18.1382 18.3218L17.1618 3.00909C17.1273 2.46363 16.6727 2.04182 16.1327 2.04182Z" fill="#0B5FFF"/>
<path d="M16.1638 3.04167L17.15 18.4199L4.77119 19.2138L3.785 3.8355L16.1638 3.04167Z" fill="white"/>
<path d="M3.78432 3.82986L4.43937 3.78786L5.42555 19.1661L4.7705 19.2081L3.78432 3.82986Z" fill="#FADFCB"/>
<path d="M15.4733 3.07872L16.1283 3.03671L17.1145 18.415L16.4595 18.457L15.4733 3.07872Z" fill="#FADFCB"/>
<path d="M4.76546 19.3C4.74364 19.3 4.72183 19.2927 4.70546 19.2782C4.68728 19.2618 4.67637 19.24 4.67455 19.2164L3.69274 3.83819C3.69092 3.81455 3.70001 3.79091 3.71455 3.77273C3.73092 3.75455 3.75274 3.74364 3.77637 3.74182L16.1546 2.95273C16.2073 2.95091 16.2473 2.98728 16.2509 3.03819L17.2327 18.4164C17.2346 18.44 17.2255 18.4636 17.2109 18.4818C17.1946 18.5 17.1727 18.5109 17.1491 18.5127L4.77092 19.3018C4.7691 19.3 4.76728 19.3 4.76546 19.3ZM3.88001 3.91455L4.8491 19.1109L17.0455 18.3327L16.0764 3.13637L3.88001 3.91455Z" fill="black"/>
<path d="M12.6491 3.91636L7.47092 4.24727C7.14182 4.26909 6.88001 3.97454 6.93819 3.65273L7.16182 2.40364C7.20364 2.17454 7.39637 2 7.6291 1.98545L8.37455 1.93818C8.56546 1.92545 8.73819 1.80909 8.8091 1.63273C8.94728 1.28364 9.36001 1.01636 9.86364 0.983635C10.3673 0.950908 10.8091 1.16545 10.9927 1.49273C11.0855 1.66 11.2709 1.75273 11.4618 1.74182L12.2073 1.69454C12.44 1.68 12.6527 1.82727 12.7236 2.04909L13.1036 3.25818C13.2 3.57273 12.9782 3.89636 12.6491 3.91636Z" fill="#FFC378"/>
<path d="M7.39092 3.62363C7.33273 3.94545 7.59637 4.24 7.92364 4.21818L7.47092 4.24727C7.14182 4.26909 6.88001 3.97454 6.93819 3.65272L7.16182 2.40363C7.20182 2.17454 7.39455 2 7.62728 1.98545L8.08001 1.95636C7.84728 1.97091 7.65455 2.14545 7.61455 2.37454L7.39092 3.62363Z" fill="#FFAB41"/>
<path d="M10.0891 0.985458C9.69273 1.07091 9.37818 1.30909 9.26182 1.60364C9.18909 1.78364 9.01818 1.89819 8.82545 1.91091L8.37273 1.94C8.56545 1.92728 8.73636 1.81273 8.80909 1.63273C8.94727 1.28546 9.36 1.01637 9.86182 0.98364C9.94 0.978185 10.0145 0.978185 10.0891 0.985458Z" fill="#FFAB41"/>
<path d="M7.43636 4.34C7.26545 4.34 7.10545 4.26909 6.98909 4.14C6.86727 4.00182 6.81454 3.81818 6.84727 3.63637L7.07091 2.38728C7.12 2.11455 7.34545 1.91273 7.62182 1.89455L8.36727 1.84728C8.52727 1.83637 8.66727 1.74 8.72364 1.59818C8.87818 1.20909 9.33273 0.925457 9.85636 0.89273C10.3782 0.858185 10.8673 1.08364 11.0691 1.44909C11.1436 1.58182 11.2964 1.66182 11.4545 1.65091L12.2 1.60364C12.4764 1.58546 12.7255 1.75818 12.8091 2.02182L13.1891 3.23091C13.2436 3.40728 13.2164 3.59455 13.1109 3.74728C13.0055 3.9 12.84 3.99455 12.6545 4.00728L11.6618 4.07091C11.6109 4.07091 11.5691 4.03637 11.5655 3.98546C11.5618 3.93455 11.6 3.89273 11.6509 3.88909L12.6436 3.82546C12.7727 3.81637 12.8891 3.75091 12.9618 3.64546C13.0345 3.54 13.0545 3.40909 13.0164 3.28546L12.6364 2.07637C12.5782 1.89273 12.4036 1.77091 12.2127 1.78546L11.4673 1.83273C11.2382 1.84728 11.02 1.73091 10.9127 1.53818C10.7436 1.23273 10.3255 1.04546 9.86909 1.07455C9.41454 1.10364 9.02182 1.34182 8.89273 1.66728C8.81091 1.87273 8.60909 2.01637 8.38 2.03091L7.63455 2.07818C7.44364 2.09091 7.28545 2.23091 7.25091 2.42182L7.02727 3.67091C7.00545 3.79637 7.04182 3.92546 7.12727 4.02C7.21273 4.11637 7.33636 4.16728 7.46545 4.15819L10.5291 3.96364C10.5782 3.96182 10.6218 3.99819 10.6255 4.04909C10.6291 4.1 10.5909 4.14182 10.54 4.14546L7.47636 4.34C7.46364 4.33819 7.44909 4.34 7.43636 4.34Z" fill="black"/>
<path d="M8.60546 2.97636C8.55819 2.97636 8.51819 2.94 8.51455 2.8909C8.51092 2.84 8.5491 2.79818 8.60001 2.79454L11.4055 2.61636C11.4546 2.61272 11.4982 2.6509 11.5018 2.70181C11.5055 2.75272 11.4673 2.79454 11.4164 2.79818L8.61092 2.97636C8.6091 2.97636 8.60728 2.97636 8.60546 2.97636Z" fill="black"/>
<path d="M9.37455 6.16001C9.32728 6.16001 9.28728 6.12365 9.28364 6.07456C9.28 6.02365 9.31819 5.98183 9.3691 5.97819L14.9091 5.62365C14.96 5.62183 15.0018 5.65819 15.0055 5.7091C15.0091 5.76001 14.9709 5.80183 14.92 5.80546L9.38182 6.15819C9.38 6.15819 9.37819 6.16001 9.37455 6.16001Z" fill="black"/>
<path d="M9.43636 7.12728C9.38909 7.12728 9.34909 7.09092 9.34545 7.04183C9.34182 6.99092 9.38 6.9491 9.43091 6.94547L14.9709 6.59274C15.0236 6.5891 15.0636 6.62728 15.0673 6.67819C15.0709 6.7291 15.0327 6.77092 14.9818 6.77456L9.44364 7.12728C9.44182 7.12728 9.44 7.12728 9.43636 7.12728Z" fill="black"/>
<path d="M9.49819 8.09455C9.45092 8.09455 9.41092 8.05819 9.40728 8.0091C9.40365 7.95819 9.44183 7.91637 9.49274 7.91274L12.9164 7.69455C12.9709 7.69274 13.0091 7.7291 13.0127 7.78001C13.0164 7.83092 12.9782 7.87274 12.9273 7.87637L9.50365 8.09455C9.50365 8.09455 9.50001 8.09455 9.49819 8.09455Z" fill="black"/>
<path d="M9.64001 10.2964C9.59273 10.2964 9.55273 10.26 9.5491 10.2109C9.54546 10.16 9.58364 10.1182 9.63455 10.1146L14.1309 9.82728C14.1855 9.82364 14.2236 9.86183 14.2273 9.91274C14.2309 9.96365 14.1927 10.0055 14.1418 10.0091L9.64546 10.2964C9.64364 10.2964 9.64183 10.2964 9.64001 10.2964Z" fill="black"/>
<path d="M9.70182 11.2636C9.65455 11.2636 9.61455 11.2273 9.61091 11.1782C9.60728 11.1273 9.64546 11.0855 9.69637 11.0818L14.1927 10.7946C14.2473 10.7909 14.2855 10.8291 14.2891 10.88C14.2927 10.9309 14.2545 10.9727 14.2036 10.9764L9.70728 11.2636C9.70546 11.2636 9.70364 11.2636 9.70182 11.2636Z" fill="black"/>
<path d="M9.76365 12.2327C9.71638 12.2327 9.67638 12.1964 9.67274 12.1473C9.6691 12.0964 9.70729 12.0545 9.75819 12.0509L13.1818 11.8327C13.2364 11.8291 13.2746 11.8673 13.2782 11.9182C13.2818 11.9691 13.2436 12.0109 13.1927 12.0145L9.7691 12.2327C9.76729 12.2309 9.76547 12.2327 9.76365 12.2327Z" fill="black"/>
<path d="M9.90365 14.4327C9.85638 14.4327 9.81638 14.3964 9.81274 14.3473C9.8091 14.2964 9.84728 14.2545 9.89819 14.2509L15.4382 13.8982C15.4927 13.8964 15.5309 13.9327 15.5346 13.9836C15.5382 14.0345 15.5 14.0764 15.4491 14.08L9.9091 14.4327C9.90728 14.4327 9.90547 14.4327 9.90365 14.4327Z" fill="black"/>
<path d="M9.96546 15.4018C9.91819 15.4018 9.87819 15.3655 9.87455 15.3164C9.87092 15.2655 9.9091 15.2236 9.96001 15.22L15.5 14.8673C15.5546 14.8654 15.5927 14.9018 15.5964 14.9527C15.6 15.0036 15.5618 15.0454 15.5109 15.0491L9.97092 15.4018C9.9691 15.4018 9.96728 15.4018 9.96546 15.4018Z" fill="black"/>
<path d="M10.0273 16.3691C9.98002 16.3691 9.94002 16.3327 9.93638 16.2836C9.93275 16.2327 9.97093 16.1909 10.0218 16.1873L13.4455 15.9691C13.5018 15.9673 13.5382 16.0036 13.5418 16.0545C13.5455 16.1055 13.5073 16.1473 13.4564 16.1509L10.0327 16.3691C10.0309 16.3691 10.0291 16.3691 10.0273 16.3691Z" fill="black"/>
<path d="M8.05274 7.12363C8.07637 7.48727 7.9491 7.82363 7.72546 8.08C7.50364 8.33273 7.18364 8.5 6.82183 8.52363C6.09455 8.57091 5.4691 8.01818 5.42183 7.29273C5.39819 6.92909 5.52546 6.59273 5.74728 6.33818C5.9691 6.08545 6.29092 5.91818 6.65273 5.89454C7.01637 5.87091 7.35274 5.99818 7.60546 6.22C7.86183 6.44182 8.0291 6.76182 8.05274 7.12363Z" fill="#FF7D83"/>
<path d="M8.05274 7.12364C8.07637 7.48728 7.9491 7.82364 7.72546 8.08C7.50365 8.33273 7.18364 8.50001 6.82183 8.52364C6.48364 8.54546 6.1691 8.43819 5.92365 8.24364L7.43092 6.0891C7.49274 6.12728 7.55274 6.17091 7.60728 6.21819C7.86183 6.44182 8.0291 6.76 8.05274 7.12364Z" fill="#FF5671"/>
<path d="M6.73456 8.61818C6.39092 8.61818 6.06547 8.49455 5.80547 8.26728C5.52365 8.01818 5.35456 7.67455 5.33092 7.3C5.30729 6.92546 5.43092 6.56364 5.67819 6.27818C5.92729 5.99637 6.27092 5.82728 6.64729 5.80364C7.02183 5.78 7.38365 5.90364 7.66728 6.15091C7.95092 6.4 8.12001 6.74364 8.14365 7.12C8.16729 7.49455 8.04365 7.85818 7.79456 8.14182C7.54547 8.42364 7.20365 8.59273 6.82728 8.61637C6.79638 8.61637 6.76547 8.61818 6.73456 8.61818ZM6.73819 5.98182C6.71092 5.98182 6.68547 5.98182 6.65819 5.98364C6.33092 6.00546 6.03092 6.15091 5.81456 6.39637C5.59819 6.64364 5.49092 6.96 5.51092 7.28546C5.53092 7.61273 5.67819 7.91273 5.92365 8.12909C6.1691 8.34546 6.48547 8.45273 6.81274 8.43273C7.14001 8.41273 7.43819 8.26546 7.65456 8.02C7.87274 7.77273 7.98001 7.45637 7.96001 7.13091C7.94001 6.80364 7.79092 6.50546 7.54547 6.28728C7.32183 6.08728 7.03638 5.98182 6.73819 5.98182Z" fill="black"/>
<path d="M6.56001 7.66C6.53819 7.66 6.51638 7.65273 6.50001 7.63819L6.18547 7.36182C6.14728 7.3291 6.14365 7.27091 6.17819 7.23273C6.21092 7.19455 6.2691 7.19091 6.30728 7.22546L6.55274 7.44182L7.14365 6.77091C7.17638 6.73273 7.23456 6.72909 7.27274 6.76182C7.31092 6.79455 7.31456 6.85273 7.28183 6.89091L6.63092 7.63091C6.61456 7.6491 6.59274 7.66 6.5691 7.66182C6.56365 7.66 6.56183 7.66 6.56001 7.66Z" fill="black"/>
<path d="M8.31636 11.2618C8.34 11.6255 8.21272 11.9618 7.98909 12.2182C7.76727 12.4709 7.44727 12.6382 7.08545 12.6618C6.35818 12.7091 5.73272 12.1564 5.68545 11.4309C5.66182 11.0673 5.78909 10.7309 6.01091 10.4764C6.23272 10.2236 6.55454 10.0564 6.91636 10.0327C7.28 10.0091 7.61636 10.1364 7.86909 10.3582C8.12545 10.58 8.29272 10.8982 8.31636 11.2618Z" fill="#FF7D83"/>
<path d="M8.31636 11.26C8.34 11.6236 8.21273 11.96 7.98909 12.2164C7.76727 12.4691 7.44727 12.6364 7.08545 12.66C6.74727 12.6818 6.43273 12.5746 6.18727 12.38L7.69454 10.2255C7.75636 10.2636 7.81636 10.3073 7.87091 10.3546C8.12545 10.5782 8.29454 10.8982 8.31636 11.26Z" fill="#FF5671"/>
<path d="M6.99818 12.7546C6.65455 12.7546 6.32909 12.6309 6.06909 12.4036C5.78727 12.1546 5.61818 11.8109 5.59455 11.4364C5.57091 11.0618 5.69455 10.7 5.94182 10.4146C6.19091 10.1327 6.53455 9.96364 6.91091 9.94001C7.28546 9.91637 7.64909 10.04 7.93091 10.2873C8.21455 10.5364 8.38364 10.88 8.40727 11.2564C8.43091 11.6309 8.30727 11.9946 8.05818 12.2782C7.80909 12.56 7.46546 12.7273 7.09091 12.7509C7.06 12.7527 7.02909 12.7546 6.99818 12.7546ZM7.00182 10.1182C6.97455 10.1182 6.94909 10.1182 6.92182 10.12C6.59455 10.1418 6.29455 10.2873 6.07818 10.5327C5.86182 10.78 5.75455 11.0964 5.77455 11.4218C5.79455 11.7491 5.94182 12.0473 6.18727 12.2655C6.43273 12.4818 6.74727 12.5909 7.07637 12.5691C7.40364 12.5491 7.70182 12.4018 7.91818 12.1564C8.13637 11.9091 8.24364 11.5927 8.22364 11.2673C8.20364 10.94 8.05455 10.6418 7.80909 10.4236C7.58546 10.2255 7.3 10.1182 7.00182 10.1182Z" fill="black"/>
<path d="M6.82364 11.7964C6.80182 11.7964 6.78 11.7891 6.76364 11.7746L6.44909 11.4982C6.41091 11.4655 6.40727 11.4073 6.44182 11.3691C6.47455 11.3309 6.53273 11.3273 6.57091 11.3618L6.81637 11.5782L7.40727 10.9073C7.44 10.8691 7.49818 10.8655 7.53636 10.8982C7.57455 10.9309 7.57818 10.9891 7.54546 11.0273L6.89455 11.7673C6.87818 11.7855 6.85637 11.7964 6.83273 11.7982C6.82727 11.7964 6.82546 11.7964 6.82364 11.7964Z" fill="black"/>
<path d="M8.58 15.3982C8.60364 15.7618 8.47637 16.0982 8.25273 16.3545C8.03091 16.6073 7.71091 16.7745 7.34909 16.7982C6.62182 16.8455 5.99637 16.2927 5.94909 15.5673C5.92546 15.2036 6.05273 14.8673 6.27455 14.6127C6.49637 14.36 6.81818 14.1927 7.18 14.1691C7.54364 14.1455 7.88 14.2727 8.13273 14.4945C8.38909 14.7164 8.55818 15.0364 8.58 15.3982Z" fill="#FF7D83"/>
<path d="M8.58 15.3982C8.60364 15.7618 8.47637 16.0982 8.25273 16.3545C8.03091 16.6073 7.71091 16.7745 7.34909 16.7982C7.01091 16.82 6.69637 16.7127 6.45091 16.5182L7.95819 14.3636C8.02 14.4018 8.08 14.4455 8.13455 14.4927C8.38909 14.7164 8.55819 15.0345 8.58 15.3982Z" fill="#FF5671"/>
<path d="M7.26364 16.8909C6.52728 16.8909 5.90546 16.3164 5.85819 15.5709C5.83455 15.1964 5.95819 14.8345 6.20546 14.5491C6.45455 14.2673 6.79819 14.0982 7.17455 14.0745C7.5491 14.0509 7.91273 14.1745 8.19455 14.4218C8.47819 14.6709 8.64728 15.0145 8.67092 15.3909C8.69455 15.7655 8.57092 16.1291 8.32183 16.4127C8.07273 16.6945 7.73092 16.8636 7.35455 16.8873C7.32364 16.8909 7.29455 16.8909 7.26364 16.8909ZM7.26728 14.2545C7.24001 14.2545 7.21455 14.2545 7.18728 14.2564C6.86001 14.2782 6.56001 14.4236 6.34364 14.6691C6.12728 14.9164 6.02001 15.2327 6.04001 15.5582C6.08364 16.2327 6.6691 16.7491 7.34364 16.7055C7.67092 16.6855 7.9691 16.5382 8.18546 16.2927C8.40364 16.0455 8.51092 15.7291 8.49092 15.4036C8.47092 15.0764 8.32182 14.7782 8.07637 14.56C7.8491 14.3618 7.56546 14.2545 7.26728 14.2545Z" fill="black"/>
<path d="M7.08728 15.9345C7.06546 15.9345 7.04364 15.9273 7.02728 15.9127L6.71273 15.6364C6.67455 15.6036 6.67092 15.5454 6.70546 15.5073C6.73819 15.4691 6.79637 15.4654 6.83455 15.5L7.08001 15.7164L7.67092 15.0454C7.70364 15.0073 7.76182 15.0036 7.80001 15.0364C7.83819 15.0691 7.84182 15.1273 7.8091 15.1655L7.15819 15.9055C7.14182 15.9236 7.12001 15.9345 7.09637 15.9364C7.09092 15.9345 7.0891 15.9345 7.08728 15.9345Z" fill="black"/>
<path d="M15.5451 9.35292L18.7809 3.59455L21.435 5.08593L18.1992 10.8443L15.5451 9.35292Z" fill="#FF7D83"/>
<path d="M15.544 9.35316L18.7797 3.59479L19.2348 3.85048L15.999 9.60886L15.544 9.35316Z" fill="#FF5671"/>
<path d="M17.7462 10.5899L20.982 4.83152L21.437 5.08721L18.2012 10.8456L17.7462 10.5899Z" fill="#FF5671"/>
<path d="M22.4909 3.21637L21.9382 4.19818L19.2818 2.70546L19.8346 1.72364C20.0873 1.27455 20.6564 1.11637 21.1055 1.36727L22.1364 1.94727C22.5836 2.19818 22.7436 2.76728 22.4909 3.21637Z" fill="#0B5FFF"/>
<path d="M20.7127 1.25273C20.3655 1.22909 20.0182 1.4 19.8364 1.72364L19.2836 2.70546L19.7491 2.96727L20.7127 1.25273Z" fill="#015ED4"/>
<path d="M22.4364 2.22182C22.6364 2.50727 22.6727 2.89273 22.4909 3.21636L21.9382 4.19818L21.4727 3.93636L22.4364 2.22182Z" fill="#015ED4"/>
<path d="M18.7765 3.5955L19.2807 2.69814L21.9396 4.19219L21.4353 5.08956L18.7765 3.5955Z" fill="#FADFCB"/>
<path d="M19.2299 3.8503L19.7342 2.95293L21.4845 3.93649L20.9803 4.83386L19.2299 3.8503Z" fill="white"/>
<path d="M18.1982 10.8509L15.36 12.7891L15.5437 9.35637L18.1982 10.8509Z" fill="#FFC378"/>
<path d="M15.7437 12.5291L15.36 12.7891L15.5437 9.35637L15.9 9.55637L15.7437 12.5291Z" fill="#FFAB41"/>
<path d="M18.1964 10.9418C18.1818 10.9418 18.1655 10.9382 18.1509 10.9309L15.4982 9.44001C15.4764 9.4291 15.4618 9.4091 15.4546 9.38546C15.4473 9.36183 15.4509 9.33819 15.4636 9.31637L18.7 3.56001C18.7236 3.51637 18.78 3.50001 18.8236 3.52546L21.4764 5.01637C21.52 5.04183 21.5364 5.09637 21.5109 5.14001L20.5582 6.83637C20.5327 6.88001 20.4782 6.89637 20.4346 6.87092C20.3909 6.84546 20.3746 6.79092 20.4 6.74728L21.3091 5.13092L18.8146 3.7291L15.6673 9.32365L18.1618 10.7273L19.78 7.8491C19.8036 7.80546 19.86 7.7891 19.9036 7.81455C19.9473 7.84001 19.9636 7.89456 19.9382 7.93819L18.2764 10.8946C18.26 10.9236 18.2291 10.9418 18.1964 10.9418Z" fill="black"/>
<path d="M21.9382 4.2891C21.9237 4.2891 21.9073 4.28546 21.8927 4.27819L19.2382 2.78546C19.2164 2.77273 19.2018 2.75455 19.1946 2.73091C19.1873 2.70728 19.1909 2.68364 19.2037 2.66182L19.7564 1.68C19.8909 1.44182 20.1091 1.2691 20.3727 1.19637C20.6364 1.12364 20.9127 1.15637 21.1509 1.2891L22.1818 1.86728C22.6746 2.14364 22.8491 2.7691 22.5727 3.26L22.02 4.24182C22 4.27273 21.9709 4.2891 21.9382 4.2891ZM19.4073 2.67091L21.9037 4.07455L22.4109 3.17091C22.6382 2.76728 22.4946 2.25273 22.0891 2.02546L21.0582 1.44728C20.8618 1.33637 20.6346 1.3091 20.4182 1.37091C20.2018 1.43091 20.0218 1.57273 19.9109 1.7691L19.4073 2.67091Z" fill="black"/>
<path d="M21.4364 5.18728C21.4218 5.18728 21.4055 5.18365 21.3909 5.17638L18.7327 3.68183C18.7109 3.6691 18.6964 3.65092 18.6891 3.62728C18.6818 3.60365 18.6855 3.58001 18.6982 3.55819L19.2018 2.66183C19.2127 2.64001 19.2327 2.62547 19.2564 2.61819C19.28 2.61092 19.3036 2.61456 19.3255 2.62728L21.9836 4.12183C22.0273 4.14728 22.0436 4.20183 22.0182 4.24547L21.5146 5.14183C21.5036 5.16365 21.4836 5.17819 21.46 5.18547C21.4527 5.18547 21.4436 5.18728 21.4364 5.18728ZM18.9018 3.56728L21.4018 4.97274L21.8164 4.23456L19.3164 2.8291L18.9018 3.56728Z" fill="black"/>
<path d="M15.36 12.88C15.3455 12.88 15.3291 12.8764 15.3146 12.8691C15.2836 12.8527 15.2673 12.82 15.2691 12.7855L15.4509 9.35273C15.4527 9.32182 15.4709 9.29273 15.4982 9.27818C15.5255 9.26364 15.56 9.26364 15.5873 9.27818L18.2436 10.7709C18.2709 10.7855 18.2891 10.8145 18.2891 10.8455C18.2909 10.8764 18.2746 10.9073 18.2491 10.9236L15.4109 12.8655C15.3964 12.8745 15.3782 12.88 15.36 12.88ZM15.6255 9.50727L15.46 12.6109L18.0255 10.8582L15.6255 9.50727Z" fill="black"/>
<path d="M16.8709 10.1946C16.8564 10.1946 16.84 10.1909 16.8255 10.1836C16.7818 10.1582 16.7655 10.1036 16.7909 10.06L20.0273 4.30365C20.0509 4.26001 20.1073 4.24365 20.1509 4.2691C20.1946 4.29456 20.2109 4.3491 20.1855 4.39274L16.9491 10.1491C16.9327 10.1782 16.9018 10.1946 16.8709 10.1946Z" fill="black"/>
<path d="M15.4491 11.1055L15.36 12.7891L16.7527 11.8382L15.4491 11.1055Z" fill="black"/>
<path d="M15.36 12.88C15.3455 12.88 15.3291 12.8764 15.3146 12.8691C15.2836 12.8527 15.2673 12.82 15.2691 12.7855L15.3582 11.1018C15.36 11.0709 15.3782 11.0418 15.4055 11.0273C15.4327 11.0127 15.4673 11.0127 15.4946 11.0273L16.7964 11.76C16.8236 11.7746 16.8418 11.8036 16.8418 11.8346C16.8436 11.8655 16.8273 11.8964 16.8018 11.9127L15.4091 12.8636C15.3964 12.8746 15.3782 12.88 15.36 12.88ZM15.5327 11.2564L15.46 12.6109L16.58 11.8455L15.5327 11.2564Z" fill="black"/>
<path d="M19.6111 15.1453L20.1368 13.7061L21.0041 14.0229L20.4784 15.4621L19.6111 15.1453Z" fill="white"/>
<path d="M20.4873 15.5509C20.4764 15.5509 20.4655 15.5491 20.4564 15.5455L19.5891 15.2291C19.5673 15.22 19.5473 15.2036 19.5382 15.1818C19.5273 15.16 19.5273 15.1346 19.5345 15.1127L20.06 13.6727C20.0764 13.6255 20.1291 13.6018 20.1764 13.6182L21.0436 13.9346C21.0655 13.9436 21.0855 13.96 21.0945 13.9818C21.1055 14.0036 21.1055 14.0291 21.0982 14.0509L20.5727 15.4909C20.56 15.5291 20.5236 15.5509 20.4873 15.5509ZM19.7364 15.0891L20.4327 15.3436L20.8964 14.0746L20.2 13.82L19.7364 15.0891Z" fill="black"/>
<path d="M18.7636 23.1945C21.1736 23.1945 23.1273 21.2409 23.1273 18.8309C23.1273 16.4209 21.1736 14.4673 18.7636 14.4673C16.3537 14.4673 14.4 16.4209 14.4 18.8309C14.4 21.2409 16.3537 23.1945 18.7636 23.1945Z" fill="#FFC378"/>
<path d="M21.6564 19.8891C21.0727 21.4855 19.3036 22.3073 17.7073 21.7236C16.9473 21.4455 16.3636 20.9018 16.0236 20.2346C15.6455 19.4982 15.5655 18.6127 15.8709 17.7746C16.4545 16.1764 18.2236 15.3546 19.8218 15.9382C20.5945 16.22 21.1836 16.78 21.5236 17.4618C21.8855 18.1927 21.9582 19.0636 21.6564 19.8891Z" fill="white"/>
<path d="M22.8618 20.3291C22.0345 22.5909 19.5291 23.7564 17.2654 22.9291C16.1873 22.5345 15.36 21.76 14.8764 20.8109L22.6691 16.8836C23.1836 17.9218 23.2891 19.1582 22.8618 20.3291Z" fill="#FFAB41"/>
<path d="M18.7582 23.2855C18.2509 23.2855 17.7364 23.1982 17.2345 23.0145C14.9982 22.1964 13.8018 19.7764 14.5109 17.5055C14.5255 17.4582 14.5764 17.4309 14.6255 17.4455C14.6727 17.46 14.7 17.5109 14.6855 17.56C14.0055 19.7382 15.1527 22.06 17.2982 22.8436C18.3709 23.2364 19.5309 23.1855 20.5655 22.7055C21.6 22.2236 22.3855 21.3691 22.7782 20.2964C23.1691 19.2236 23.12 18.0636 22.64 17.0291C22.1582 15.9945 21.3036 15.2091 20.2309 14.8164C18.44 14.1618 16.4109 14.7836 15.2982 16.3291C15.2691 16.3691 15.2109 16.3782 15.1709 16.3491C15.1309 16.32 15.12 16.2636 15.1509 16.2218C16.3109 14.6109 18.4273 13.9618 20.2945 14.6436C21.4127 15.0527 22.3036 15.8709 22.8055 16.9509C23.3073 18.0309 23.3582 19.24 22.9491 20.3564C22.2873 22.1636 20.5764 23.2855 18.7582 23.2855Z" fill="black"/>
<path d="M21.6564 19.8891C21.0727 21.4855 19.3036 22.3073 17.7073 21.7236C16.9473 21.4455 16.3636 20.9018 16.0236 20.2345L21.5236 17.4636C21.8855 18.1927 21.9582 19.0636 21.6564 19.8891Z" fill="#FADFCB"/>
<path d="M18.7654 22.0036C18.3982 22.0036 18.0309 21.9382 17.6745 21.8091C16.8782 21.5182 16.2436 20.9345 15.8873 20.1673C15.5309 19.4 15.4945 18.5382 15.7854 17.7436C16.0764 16.9491 16.66 16.3145 17.4273 15.9564C18.1945 15.6 19.0564 15.5636 19.8509 15.8545C20.6473 16.1454 21.2818 16.7291 21.6382 17.4964C21.9945 18.2636 22.0309 19.1254 21.74 19.92C21.4491 20.7164 20.8654 21.3509 20.0982 21.7073C19.6745 21.9036 19.22 22.0036 18.7654 22.0036ZM18.7618 15.84C18.3327 15.84 17.9054 15.9345 17.5036 16.12C16.78 16.4564 16.2309 17.0545 15.9564 17.8036C15.6818 18.5527 15.7164 19.3654 16.0527 20.0891C16.3891 20.8127 16.9873 21.3618 17.7364 21.6364C18.4854 21.9109 19.2982 21.8764 20.0218 21.54C20.7454 21.2036 21.2945 20.6054 21.5691 19.8564C21.8436 19.1073 21.8091 18.2945 21.4727 17.5709C21.1364 16.8473 20.5382 16.2982 19.7891 16.0236C19.4545 15.9018 19.1073 15.84 18.7618 15.84Z" fill="black"/>
<path d="M19.6982 16.3636C19.6873 16.3636 19.6764 16.3618 19.6673 16.3582C19.62 16.3418 19.5964 16.2891 19.6127 16.2418L19.7345 15.9073C19.7509 15.86 19.8036 15.8364 19.8509 15.8527C19.8982 15.8691 19.9218 15.9218 19.9055 15.9691L19.7836 16.3036C19.7709 16.3418 19.7345 16.3636 19.6982 16.3636Z" fill="black"/>
<path d="M17.7073 21.8146C17.6964 21.8146 17.6855 21.8127 17.6764 21.8091C17.6291 21.7927 17.6055 21.74 17.6218 21.6927L17.7436 21.3582C17.76 21.3109 17.8127 21.2873 17.86 21.3036C17.9073 21.32 17.9309 21.3727 17.9146 21.42L17.7927 21.7546C17.7782 21.7909 17.7436 21.8146 17.7073 21.8146Z" fill="black"/>
<path d="M16.2055 17.9873C16.1945 17.9873 16.1836 17.9855 16.1745 17.9818L15.84 17.86C15.7927 17.8436 15.7691 17.7909 15.7855 17.7436C15.8018 17.6964 15.8545 17.6727 15.9018 17.6891L16.2364 17.8109C16.2836 17.8273 16.3073 17.88 16.2909 17.9273C16.2782 17.9636 16.2436 17.9873 16.2055 17.9873Z" fill="black"/>
<path d="M21.6564 19.9782C21.6455 19.9782 21.6346 19.9764 21.6255 19.9727L21.2909 19.8509C21.2436 19.8346 21.22 19.7818 21.2364 19.7346C21.2527 19.6873 21.3055 19.6636 21.3527 19.68L21.6873 19.8018C21.7346 19.8182 21.7582 19.8709 21.7418 19.9182C21.7273 19.9564 21.6927 19.9782 21.6564 19.9782Z" fill="black"/>
<path d="M17.6164 16.4527C17.5818 16.4527 17.5491 16.4327 17.5345 16.4L17.3836 16.0764C17.3618 16.0309 17.3818 15.9764 17.4273 15.9564C17.4727 15.9345 17.5273 15.9545 17.5473 16L17.6982 16.3236C17.72 16.3691 17.7 16.4236 17.6545 16.4436C17.6418 16.4491 17.6291 16.4527 17.6164 16.4527Z" fill="black"/>
<path d="M20.0618 21.7145C20.0273 21.7145 19.9945 21.6945 19.98 21.6618L19.8291 21.3382C19.8073 21.2927 19.8273 21.2382 19.8727 21.2182C19.9182 21.1982 19.9727 21.2164 19.9927 21.2618L20.1436 21.5855C20.1655 21.6309 20.1455 21.6855 20.1 21.7055C20.0873 21.7127 20.0745 21.7145 20.0618 21.7145Z" fill="black"/>
<path d="M15.9709 20.22C15.9364 20.22 15.9036 20.2 15.8891 20.1673C15.8673 20.1218 15.8873 20.0673 15.9327 20.0473L16.2564 19.8964C16.3018 19.8764 16.3564 19.8945 16.3764 19.94C16.3982 19.9854 16.3782 20.04 16.3327 20.06L16.0091 20.2109C15.9964 20.2164 15.9836 20.22 15.9709 20.22Z" fill="black"/>
<path d="M21.2327 17.7745C21.1982 17.7745 21.1655 17.7545 21.1509 17.7218C21.1291 17.6764 21.1491 17.6218 21.1945 17.6018L21.5182 17.4509C21.5636 17.4309 21.6182 17.4491 21.6382 17.4945C21.66 17.54 21.64 17.5945 21.5945 17.6145L21.2709 17.7655C21.2582 17.7709 21.2455 17.7745 21.2327 17.7745Z" fill="black"/>
<path d="M21.6073 14.1145V14.1164C21.5273 14.3327 21.2873 14.4455 21.0691 14.3655L19.88 13.9309C19.66 13.8509 19.5491 13.6109 19.6291 13.3945V13.3927C19.7091 13.1764 19.9491 13.0618 20.1691 13.1418L21.3582 13.5764C21.5764 13.6564 21.6873 13.8982 21.6073 14.1145Z" fill="#FF7D83"/>
<path d="M20.2909 14.0818L19.88 13.9309C19.6618 13.8509 19.5491 13.6109 19.6291 13.3945V13.3927C19.7091 13.1745 19.9491 13.06 20.1691 13.14L20.58 13.2909C20.36 13.2109 20.1182 13.3236 20.0382 13.5418V13.5436C19.96 13.7618 20.0709 14.0018 20.2909 14.0818Z" fill="#FF5671"/>
<path d="M21.2146 14.4836C21.1546 14.4836 21.0946 14.4727 21.0382 14.4527L19.8491 14.0182C19.5836 13.9218 19.4473 13.6273 19.5436 13.3636C19.5909 13.2327 19.6855 13.1309 19.8091 13.0745C19.9327 13.0164 20.0709 13.0109 20.2 13.0582L21.3891 13.4927C21.6546 13.5891 21.7909 13.8836 21.6946 14.1491V14.1509C21.6473 14.28 21.5546 14.3818 21.4309 14.4382C21.36 14.4673 21.2873 14.4836 21.2146 14.4836ZM20.0236 13.2073C19.9764 13.2073 19.9291 13.2182 19.8855 13.2382C19.8055 13.2745 19.7455 13.3418 19.7146 13.4236C19.6527 13.5945 19.74 13.7836 19.9109 13.8455L21.1 14.28C21.1836 14.3109 21.2727 14.3073 21.3527 14.2709C21.4327 14.2345 21.4927 14.1691 21.5218 14.0873V14.0855C21.5836 13.9145 21.4964 13.7255 21.3255 13.6636L20.1364 13.2291C20.1 13.2145 20.0618 13.2073 20.0236 13.2073Z" fill="black"/>
<path d="M19.5327 20.5782C19.4982 20.5782 19.4655 20.5582 19.4509 20.5255L18.6818 18.8691C18.6709 18.8473 18.6709 18.8218 18.6782 18.8L19.3818 16.8727C19.3982 16.8255 19.4509 16.8018 19.4982 16.8182C19.5455 16.8346 19.5691 16.8873 19.5527 16.9346L18.8618 18.8255L19.6164 20.4473C19.6382 20.4927 19.6182 20.5473 19.5727 20.5673C19.56 20.5764 19.5455 20.5782 19.5327 20.5782Z" fill="black"/>
<path d="M18.7636 19.2382C18.9886 19.2382 19.1709 19.0558 19.1709 18.8309C19.1709 18.606 18.9886 18.4236 18.7636 18.4236C18.5387 18.4236 18.3564 18.606 18.3564 18.8309C18.3564 19.0558 18.5387 19.2382 18.7636 19.2382Z" fill="black"/>
<path d="M16.2618 19.1455C16.2145 19.1455 16.1764 19.1091 16.1709 19.0618C16.1673 19.0127 16.2036 18.9673 16.2527 18.9636L18.7545 18.74C18.8036 18.7364 18.8491 18.7727 18.8527 18.8218C18.8564 18.8709 18.82 18.9164 18.7709 18.92L16.2691 19.1436C16.2673 19.1455 16.2655 19.1455 16.2618 19.1455Z" fill="black"/>
</svg>
