<svg width="24" height="24" viewBox="0 0 24 24" fill="none" xmlns="http://www.w3.org/2000/svg">
<g clip-path="url(#clip0_60_677)">
<path d="M16.588 23.0194H10.205C10.9827 22.5884 11.4651 21.7693 11.4651 20.8802V19.7163H15.3278V20.8802C15.3278 21.7693 15.8103 22.5884 16.588 23.0194Z" fill="#474747"/>
<path d="M23.7041 5.25432V18.5076C23.7041 19.1755 23.1627 19.7169 22.4947 19.7169H4.2982C3.63027 19.7169 3.08882 19.1755 3.08882 18.5076V5.25432C3.08882 4.5864 3.63027 4.04494 4.2982 4.04494H22.4947C23.1627 4.04499 23.7041 4.5864 23.7041 5.25432Z" fill="#0B5FFF"/>
<path opacity="0.12" d="M23.7036 5.2554V18.5084C23.7036 19.1751 23.1619 19.7168 22.4952 19.7168H4.29894C3.63004 19.7168 3.08835 19.1751 3.08835 18.5084V18.3702H7.89561C15.8369 18.3702 22.2824 11.9707 22.3548 4.04481H22.4952C23.1619 4.04481 23.7036 4.58649 23.7036 5.2554Z" fill="black"/>
<path d="M4.78191 5.73802H22.011V17.0459H4.78191V5.73802Z" fill="#E8F1F8"/>
<path d="M18.1753 23.2685H8.61768C8.48015 23.2685 8.36864 23.157 8.36864 23.0195C8.36864 22.8819 8.48015 22.7704 8.61768 22.7704H18.1753C18.3128 22.7704 18.4244 22.8819 18.4244 23.0195C18.4244 23.157 18.3128 23.2685 18.1753 23.2685Z" fill="#474747"/>
<path d="M20.7284 10.654V15.5583C20.7284 15.7007 20.6129 15.8162 20.4705 15.8162H19.3251C19.1826 15.8162 19.0672 15.7007 19.0672 15.5583V10.654C19.0672 10.5115 19.1826 10.3961 19.3251 10.3961H20.4705C20.6129 10.3961 20.7284 10.5115 20.7284 10.654Z" fill="#0E9C4A"/>
<path opacity="0.1" d="M20.7287 10.654V15.5583C20.7287 15.701 20.6126 15.8162 20.4708 15.8162H19.3248C19.1829 15.8162 19.0669 15.701 19.0669 15.5583V15.5325C19.734 15.425 20.2438 14.8456 20.2438 14.1484V10.3961H20.4708C20.6126 10.3961 20.7287 10.5113 20.7287 10.654Z" fill="black"/>
<path d="M18.1101 9.53176V15.5583C18.1101 15.7007 17.9947 15.8162 17.8522 15.8162H16.7068C16.5644 15.8162 16.4489 15.7007 16.4489 15.5583V9.53176C16.4489 9.3893 16.5644 9.27385 16.7068 9.27385H17.8522C17.9947 9.27385 18.1101 9.3893 18.1101 9.53176Z" fill="#FDCF17"/>
<path opacity="0.1" d="M18.1105 9.53176V15.5583C18.1105 15.701 17.9944 15.8162 17.8526 15.8162H16.7066C16.5647 15.8162 16.4487 15.701 16.4487 15.5583V15.5325C17.1158 15.425 17.6256 14.8456 17.6256 14.1484V9.27385H17.8526C17.9944 9.27385 18.1105 9.38902 18.1105 9.53176Z" fill="black"/>
<path d="M15.492 11.626V15.5583C15.492 15.7007 15.3765 15.8162 15.2341 15.8162H14.0887C13.9462 15.8162 13.8308 15.7007 13.8308 15.5583V11.626C13.8308 11.4835 13.9462 11.3681 14.0887 11.3681H15.2341C15.3765 11.3681 15.492 11.4835 15.492 11.626Z" fill="#F14F4A"/>
<path opacity="0.1" d="M15.4923 11.626V15.5583C15.4923 15.701 15.3763 15.8162 15.2344 15.8162H14.0884C13.9466 15.8162 13.8305 15.701 13.8305 15.5583V15.5325C14.4976 15.425 15.0074 14.8456 15.0074 14.1484V11.3681H15.2344C15.3763 11.3681 15.4923 11.4833 15.4923 11.626Z" fill="black"/>
<path d="M12.8738 10.0321V15.5583C12.8738 15.7007 12.7583 15.8162 12.6159 15.8162H11.4705C11.328 15.8162 11.2126 15.7007 11.2126 15.5583V10.0321C11.2126 9.8896 11.328 9.77415 11.4705 9.77415H12.6159C12.7583 9.7741 12.8738 9.8896 12.8738 10.0321Z" fill="#F78721"/>
<path opacity="0.1" d="M12.8741 10.0321V15.5583C12.8741 15.701 12.7581 15.8162 12.6162 15.8162H11.4702C11.3284 15.8162 11.2123 15.701 11.2123 15.5583V15.5325C11.8794 15.425 12.3892 14.8456 12.3892 14.1484V9.7741H12.6162C12.7581 9.7741 12.8741 9.88932 12.8741 10.0321Z" fill="black"/>
<path d="M12.0432 1.98723V7.02273C12.0432 7.71624 11.481 8.27846 10.7875 8.27846H9.89906L9.23001 10.0047C9.08582 10.3767 8.55937 10.3764 8.41556 10.0043L7.74862 8.27841H1.5516C0.858087 8.27841 0.295868 7.71619 0.295868 7.02268V1.98723C0.295868 1.29371 0.858087 0.731491 1.5516 0.731491H10.7875C11.481 0.731491 12.0432 1.29371 12.0432 1.98723Z" fill="#0E9C4A"/>
<path opacity="0.1" d="M10.7875 0.731491H10.5308C10.5308 3.98279 7.8951 6.61848 4.64381 6.61848H0.295868V7.02268C0.295868 7.71619 0.858087 8.27841 1.5516 8.27841H7.74862L8.41556 10.0043C8.55937 10.3764 9.08582 10.3767 9.23001 10.0047L9.89906 8.27846H10.7875C11.481 8.27846 12.0432 7.71624 12.0432 7.02273V1.98723C12.0432 1.29371 11.481 0.731491 10.7875 0.731491Z" fill="black"/>
<path d="M4.07906 6.42146L2.43403 5.48799C2.3145 5.42017 2.27255 5.26815 2.34042 5.14853C2.40825 5.0289 2.56003 4.98695 2.67989 5.05492L4.15626 5.89271L5.66705 4.31574C5.74355 4.23587 5.86402 4.21628 5.96203 4.26723L7.39284 5.01381L8.91956 2.28756C8.98678 2.16765 9.13856 2.12499 9.25856 2.19198C9.37856 2.2592 9.42136 2.41098 9.35414 2.53098L7.7092 5.46821C7.6433 5.58545 7.49639 5.62946 7.37677 5.56731L5.89734 4.79532L4.38178 6.37726C4.3028 6.45962 4.17806 6.47771 4.07906 6.42146Z" fill="#E8F1F8"/>
<path d="M9.42093 3.24095L8.25402 2.65388C8.06352 2.55807 8.0743 2.28259 8.27169 2.20191L9.19204 1.82574C9.33158 1.7687 9.48937 1.8481 9.52677 1.99412L9.77333 2.9573C9.82621 3.16393 9.61143 3.33676 9.42093 3.24095Z" fill="#E8F1F8"/>
<path d="M9.69669 15.8167H6.54571C6.40818 15.8167 6.29666 15.7051 6.29666 15.5676C6.29666 15.4301 6.40818 15.3186 6.54571 15.3186H9.69669C9.83422 15.3186 9.94574 15.4301 9.94574 15.5676C9.94569 15.7051 9.83422 15.8167 9.69669 15.8167Z" fill="#474747"/>
<path d="M9.69669 13.9733H6.54571C6.40818 13.9733 6.29666 13.8618 6.29666 13.7243C6.29666 13.5867 6.40818 13.4752 6.54571 13.4752H9.69669C9.83422 13.4752 9.94574 13.5867 9.94574 13.7243C9.94569 13.8618 9.83422 13.9733 9.69669 13.9733Z" fill="#474747"/>
<path d="M9.6967 12.1299H8.53425C8.39672 12.1299 8.2852 12.0184 8.2852 11.8809C8.2852 11.7434 8.39672 11.6319 8.53425 11.6319H9.6967C9.83423 11.6319 9.94575 11.7434 9.94575 11.8809C9.9457 12.0184 9.83423 12.1299 9.6967 12.1299Z" fill="#474747"/>
</g>
<defs>
<clipPath id="clip0_60_677">
<rect width="24" height="24" fill="white"/>
</clipPath>
</defs>
</svg>
