<svg width="32" height="32" viewBox="0 0 32 32" fill="none" xmlns="http://www.w3.org/2000/svg">
<path d="M3.78125 16C3.78125 19.3152 5.09821 22.4946 7.44242 24.8388C9.78662 27.183 12.966 28.5 16.2812 28.5C19.5965 28.5 22.7759 27.183 25.1201 24.8388C27.4643 22.4946 28.7812 19.3152 28.7812 16C28.7812 12.6848 27.4643 9.50537 25.1201 7.16117C22.7759 4.81696 19.5965 3.5 16.2812 3.5C12.966 3.5 9.78662 4.81696 7.44242 7.16117C5.09821 9.50537 3.78125 12.6848 3.78125 16Z" fill="#FBAD3E"/>
<path d="M15.8958 16.3919L10.6783 12.9594C10.0433 12.5416 9.20954 13.0541 9.29516 13.8094L10.0095 20.0966C10.1055 20.9416 10.8205 21.5797 11.6708 21.5797H21.1052C21.9555 21.5797 22.6705 20.9413 22.7664 20.0966L23.4808 13.8094C23.5667 13.0544 22.7327 12.5419 22.0977 12.9594L16.8802 16.3919C16.7339 16.4881 16.5627 16.5393 16.3877 16.5393C16.2126 16.5393 16.0414 16.4881 15.8952 16.3919H15.8958Z" fill="white"/>
<path d="M15.439 10.0963L11.5874 16.3116C11.1259 17.0566 11.6615 18.0184 12.5378 18.0184H20.2406C21.1168 18.0184 21.6524 17.0563 21.1909 16.3116L17.3393 10.0963C16.9021 9.39063 15.8756 9.39063 15.4384 10.0963H15.439Z" fill="white"/>
<path d="M14.0516 18.375H18.7248C19.2527 18.375 19.5166 18.639 19.5166 19.1669V19.1672C19.5166 19.6951 19.2527 19.9591 18.7248 19.9591H14.0516C13.5237 19.9591 13.2598 19.6951 13.2598 19.1672V19.1669C13.2598 18.639 13.5237 18.375 14.0516 18.375Z" fill="#FBAD3E"/>
</svg>
