<svg width="24" height="24" viewBox="0 0 24 24" fill="none" xmlns="http://www.w3.org/2000/svg">
<g clip-path="url(#clip0_60_400)">
<path d="M10.5585 6.86043H12.4702V13.493H10.5585V6.86043Z" fill="#A8E304"/>
<path d="M11.8192 6.86043H12.4702V13.493H11.8192V6.86043Z" fill="#8BBD00"/>
<path d="M13.9065 4.27376H15.8182V13.493H13.9065V4.27376Z" fill="#FF8748"/>
<path d="M15.1673 4.27376H15.8182V13.493H15.1673V4.27376Z" fill="#F2671F"/>
<path fill-rule="evenodd" clip-rule="evenodd" d="M1.36195 10.0695C1.27157 10.0695 1.18167 10.0324 1.11679 9.95951C0.996369 9.82418 1.00856 9.61676 1.14412 9.49634L7.76624 3.60335C7.86088 3.51907 7.99537 3.49671 8.11195 3.5464L11.2105 4.85956L14.9236 1.14663L14.7857 1.16684C14.6065 1.19304 14.4398 1.06901 14.4133 0.889619C14.3871 0.710463 14.5114 0.543728 14.6903 0.517478L15.808 0.353885C15.8222 0.351822 15.8364 0.350697 15.8506 0.35051H15.8593C15.9443 0.351494 16.0264 0.385525 16.0877 0.446557C16.1609 0.519963 16.1951 0.623463 16.1801 0.726025L16.0165 1.84353C15.9926 2.00665 15.8525 2.12412 15.6921 2.12412C15.6767 2.12412 15.6602 2.12299 15.6442 2.12074C15.4652 2.09431 15.341 1.92776 15.3672 1.74842L15.3873 1.61098L11.5183 5.47981C11.4236 5.57449 11.2811 5.60224 11.1584 5.55007L8.04721 4.23148L1.58001 9.9866C1.51767 10.0422 1.4399 10.0695 1.36195 10.0695Z" fill="#7986BF"/>
<path d="M7.21049 6.30782H9.12215V13.493H7.21049V6.30782Z" fill="#0B5FFF"/>
<path d="M3.8625 9.257H5.77416V13.493H3.8625V9.257Z" fill="#FDC72E"/>
<path d="M0.514496 11.0596H2.42615V13.493H0.514496V11.0596Z" fill="#FB545C"/>
<path d="M1.77525 11.0596H2.42616V13.493H1.77525V11.0596Z" fill="#E8333C"/>
<path d="M5.12329 9.257H5.7742V13.493H5.12329V9.257Z" fill="#F9AC00"/>
<path d="M8.4713 6.30782H9.1222V13.493H8.4713V6.30782Z" fill="#2A92FA"/>
<path d="M17.7814 18.8628L18.6946 17.9496L20.812 20.0669L19.8987 20.9801L17.7814 18.8628Z" fill="#7986BF"/>
<path d="M17.7813 18.8629L18.0935 18.5507L20.2108 20.6681L19.8986 20.9803L17.7813 18.8629Z" fill="#6A75AD"/>
<path d="M18.8552 19.0225C20.992 16.8856 20.992 13.4211 18.8552 11.2843C16.7183 9.14743 13.2538 9.14743 11.117 11.2843C8.98013 13.4211 8.98013 16.8856 11.117 19.0225C13.2538 21.1593 16.7183 21.1593 18.8552 19.0225Z" fill="#2A93FC"/>
<path fill-rule="evenodd" clip-rule="evenodd" d="M14.7845 20.6217C11.857 20.514 9.51675 18.1072 9.51675 15.1534C9.51675 12.1996 11.857 9.79282 14.7845 9.68506C17.712 9.79282 20.0523 12.1996 20.0523 15.1534C20.0523 18.1072 17.712 20.514 14.7845 20.6217Z" fill="#0B5FFF"/>
<path fill-rule="evenodd" clip-rule="evenodd" d="M23.2153 22.0693L20.7192 19.5732C20.5451 19.3991 20.2612 19.3991 20.0872 19.5732L19.4092 20.2512C19.2351 20.4252 19.2351 20.7092 19.4092 20.8832L21.9053 23.3793C22.2655 23.7396 22.855 23.7396 23.2153 23.3793C23.5756 23.0191 23.5756 22.4296 23.2153 22.0693Z" fill="#3D4A75"/>
<path fill-rule="evenodd" clip-rule="evenodd" d="M19.6037 20.0567L19.4092 20.2512C19.2351 20.4253 19.2351 20.7092 19.4092 20.8833L21.9053 23.3794C22.216 23.69 22.6971 23.7328 23.0547 23.5077L19.6037 20.0567Z" fill="#323E66"/>
<path d="M17.4036 17.9373C18.9412 16.3998 18.9412 13.9069 17.4036 12.3694C15.8661 10.8319 13.3733 10.8319 11.8357 12.3694C10.2982 13.9069 10.2982 16.3998 11.8357 17.9373C13.3733 19.4748 15.8661 19.4748 17.4036 17.9373Z" fill="#2A93FC"/>
<path d="M17.77 17.9373C19.3076 16.3998 19.3076 13.907 17.77 12.3694C16.2325 10.8319 13.7397 10.8319 12.2021 12.3694C10.6646 13.907 10.6646 16.3998 12.2021 17.9373C13.7397 19.4749 16.2325 19.4749 17.77 17.9373Z" fill="#F3F3FF"/>
<path fill-rule="evenodd" clip-rule="evenodd" d="M14.9898 13.7055C16.2683 13.7055 17.4157 14.2657 18.2007 15.1539C17.4157 16.042 16.2683 16.6023 14.9898 16.6023C13.7113 16.6023 12.5638 16.042 11.7788 15.1539C12.5638 14.2657 13.7113 13.7055 14.9898 13.7055Z" fill="#4EB1FC"/>
<path d="M15.2117 16.5495C15.9817 16.4246 16.5047 15.6992 16.3799 14.9292C16.2551 14.1592 15.5297 13.6362 14.7597 13.761C13.9897 13.8859 13.4667 14.6113 13.5915 15.3813C13.7163 16.1513 14.4417 16.6743 15.2117 16.5495Z" fill="#004CBD"/>
<path fill-rule="evenodd" clip-rule="evenodd" d="M14.8058 16.5545C14.1126 16.4643 13.5772 15.8716 13.5772 15.1538C13.5772 14.436 14.1126 13.8433 14.8058 13.7532C15.4989 13.8433 16.0343 14.436 16.0343 15.1538C16.0343 15.8716 15.4989 16.4643 14.8058 16.5545Z" fill="#0062D9"/>
<path fill-rule="evenodd" clip-rule="evenodd" d="M14.6033 13.7948C14.8785 13.9052 15.0728 14.1744 15.0728 14.4891C15.0728 14.9021 14.738 15.2368 14.325 15.2368C14.0104 15.2368 13.7411 15.0425 13.6307 14.7673C13.7639 14.2979 14.1338 13.928 14.6033 13.7947L14.6033 13.7948Z" fill="#B6DBFF"/>
<path fill-rule="evenodd" clip-rule="evenodd" d="M14.4909 13.832C14.6038 13.9392 14.6741 14.0906 14.6741 14.2585C14.6741 14.5833 14.4108 14.8466 14.0861 14.8466C13.9201 14.8466 13.7702 14.7778 13.6633 14.6672C13.8045 14.2827 14.108 13.9766 14.4909 13.832Z" fill="#F3F3FF"/>
</g>
<defs>
<clipPath id="clip0_60_400">
<rect width="24" height="24" fill="white"/>
</clipPath>
</defs>
</svg>
