<svg width="24" height="24" viewBox="0 0 24 24" fill="none" xmlns="http://www.w3.org/2000/svg">
<path d="M7.99269 4.5H16.0087L17.7387 3.116C18.3277 2.646 18.5477 1.883 18.2987 1.171C18.0497 0.459 17.4027 0 16.6507 0H7.35069C6.59869 0 5.95169 0.46 5.70269 1.171C5.45369 1.882 5.67369 2.646 6.26169 3.115L7.99269 4.5Z" fill="url(#paint0_linear_230_1965)"/>
<path d="M16.145 6H7.855C5.124 8.681 3 13.385 3 17.25C3 20.609 4.778 24 8.75 24H15.5C18.893 24 21 21.413 21 17.25C21 13.385 18.876 8.681 16.145 6ZM11.62 14.25H12.38C13.549 14.25 14.5 15.201 14.5 16.37C14.5 17.421 13.742 18.286 12.75 18.462V19.249C12.75 19.663 12.414 19.999 12 19.999C11.586 19.999 11.25 19.663 11.25 19.249V18.5H10.25C9.836 18.5 9.5 18.164 9.5 17.75C9.5 17.336 9.836 17 10.25 17H12.38C12.722 17 13 16.722 13 16.38C13 16.028 12.722 15.75 12.38 15.75H11.62C10.451 15.75 9.5 14.799 9.5 13.63C9.5 12.579 10.258 11.714 11.25 11.538V10.75C11.25 10.336 11.586 10 12 10C12.414 10 12.75 10.336 12.75 10.75V11.5H13.75C14.164 11.5 14.5 11.836 14.5 12.25C14.5 12.664 14.164 13 13.75 13H11.62C11.278 13 11 13.278 11 13.62C11 13.972 11.278 14.25 11.62 14.25Z" fill="url(#paint1_linear_230_1965)"/>
<defs>
<linearGradient id="paint0_linear_230_1965" x1="12.0007" y1="0" x2="12.0007" y2="4.5" gradientUnits="userSpaceOnUse">
<stop stop-color="#34495E"/>
<stop offset="1" stop-color="#2C3E50"/>
</linearGradient>
<linearGradient id="paint1_linear_230_1965" x1="12" y1="6" x2="12" y2="24" gradientUnits="userSpaceOnUse">
<stop stop-color="#34495E"/>
<stop offset="1" stop-color="#2C3E50"/>
</linearGradient>
</defs>
</svg>
