<svg width="24" height="24" viewBox="0 0 24 24" fill="none" xmlns="http://www.w3.org/2000/svg">
<g clip-path="url(#clip0_226_1834)">
<path d="M20.2047 0.375031H12.4191C11.8609 0.375031 11.4046 0.832765 11.4046 1.3895V2.97584C8.51806 3.00148 6.07241 4.90691 5.23442 7.52497L4.68341 7.52464C3.93069 7.52464 3.31836 8.13697 3.31836 8.88964V10.1373C3.31836 10.8899 3.93069 11.5023 4.68341 11.5023L5.72792 11.503C6.03856 11.503 6.29042 11.2511 6.29042 10.9405V8.08784C6.29042 8.04519 6.28527 8.00384 6.27627 7.96391C6.93917 5.74981 8.98377 4.12761 11.4046 4.10155V4.73281C8.79486 4.76455 6.6815 6.89698 6.6815 9.51416C6.6815 12.151 8.82673 14.2962 11.4636 14.2962C12.8203 14.2962 14.0468 13.728 14.9178 12.8169H15.7379C16.6456 12.8169 17.4296 12.2861 17.7834 11.5026L18.2425 11.5023C18.9952 11.5023 19.6075 10.89 19.6075 10.1373V8.88964C19.6075 8.13697 18.9952 7.52464 18.2425 7.52464L17.6931 7.52497C17.6218 7.30128 17.5383 7.08167 17.4434 6.86703H20.2047C20.763 6.86703 21.2192 6.40934 21.2192 5.85256V1.3895C21.2192 0.832718 20.763 0.375031 20.2047 0.375031ZM16.2339 6.95216C16.4069 7.27325 16.5458 7.61216 16.6501 7.96189C16.6408 8.00244 16.6355 8.04444 16.6355 8.0878V10.9404C16.6355 11.0231 16.6537 11.1013 16.6857 11.172C16.487 11.487 16.1364 11.6919 15.7379 11.6919H15.7192C16.0548 11.0383 16.2444 10.298 16.2444 9.51411C16.2444 8.74456 16.0673 8.00956 15.718 7.32964L15.6876 7.27058L16.0869 6.86703H16.1974C16.2073 6.89586 16.219 6.92445 16.2339 6.95216Z" fill="#B0CCDD"/>
<path d="M14.9337 14.7526H7.99544C5.12031 14.7526 2.78125 16.9426 2.78125 19.6346V21.7977C2.78125 22.8053 3.601 23.625 4.60863 23.625H18.3191C19.3268 23.625 20.1465 22.8053 20.1465 21.7977V19.6346C20.1465 16.9426 17.808 14.7526 14.9337 14.7526H14.9337Z" fill="#659AFF"/>
<path d="M15.5664 14.7886C17.3301 15.6124 18.5528 17.3828 18.5528 19.4293V21.7037C18.5528 22.7631 17.7331 23.6251 16.7254 23.6251H18.3192C19.3268 23.6251 20.1466 22.8053 20.1466 21.7977V19.6346C20.1466 17.1432 18.1435 15.082 15.5664 14.7886Z" fill="#96BAFF"/>
<path d="M14.9327 14.7526H14.6701L11.4629 16.7409L13.1118 18.4026C13.268 18.56 13.5338 18.5095 13.6213 18.3058L15.1467 14.757C15.0756 14.7543 15.0044 14.7525 14.9327 14.7525V14.7526Z" fill="#96BAFF"/>
<path d="M7.99459 14.7526C7.92245 14.7526 7.85073 14.7543 7.7793 14.7571L9.30461 18.3058C9.39217 18.5096 9.658 18.5601 9.81419 18.4027L11.4631 16.7409L8.25588 14.7526L7.99459 14.7526Z" fill="#96BAFF"/>
<path d="M14.6702 14.7526H8.25586L11.463 16.7409L14.6702 14.7526Z" fill="#AFC7FF"/>
<path d="M5.72792 7.52525L4.68341 7.52459C3.93069 7.52459 3.31836 8.13692 3.31836 8.88959V10.1372C3.31836 10.8899 3.93069 11.5023 4.68341 11.5023L5.72792 11.5029C6.03856 11.5029 6.29042 11.2511 6.29042 10.9404V8.0878C6.29042 7.77716 6.03856 7.5253 5.72792 7.5253V7.52525Z" fill="#585966"/>
<path d="M17.1973 7.52525L18.2418 7.52459C18.9945 7.52459 19.6068 8.13692 19.6068 8.88959V10.1372C19.6068 10.8899 18.9945 11.5023 18.2418 11.5023L17.1973 11.5029C16.8866 11.5029 16.6348 11.2511 16.6348 10.9404V8.0878C16.6348 7.77716 16.8866 7.5253 17.1973 7.5253V7.52525Z" fill="#585966"/>
<path d="M17.3848 10.9462V8.08203C17.3848 7.80031 17.5905 7.56748 17.8591 7.52487L17.1973 7.5253C16.8866 7.5253 16.6348 7.77716 16.6348 8.0878V10.9404C16.6348 11.2511 16.8866 11.5029 17.1973 11.5029L17.8537 11.5025C17.5877 11.4577 17.3848 11.226 17.3848 10.9462Z" fill="#4D4F5B"/>
<path d="M5.54073 10.9462V8.08203C5.54073 7.80031 5.33505 7.56748 5.06641 7.52487L5.72823 7.5253C6.03888 7.5253 6.29073 7.77716 6.29073 8.0878V10.9404C6.29073 11.2511 6.03888 11.5029 5.72823 11.5029L5.0718 11.5025C5.33781 11.4577 5.54073 11.226 5.54073 10.9462Z" fill="#4D4F5B"/>
<path d="M12.4188 0.375031H20.2044C20.7627 0.375031 21.2188 0.832765 21.2188 1.3895V5.85256C21.2188 6.4093 20.7626 6.86703 20.2044 6.86703H16.0865L14.002 8.97402V6.86703H12.4188C11.8605 6.86703 11.4043 6.40934 11.4043 5.85256V1.3895C11.4043 0.832765 11.8605 0.375031 12.4188 0.375031Z" fill="#9DCC6B"/>
<path d="M14.002 8.16852V8.97402L16.0864 6.86703H15.2896L14.002 8.16852Z" fill="#87B74F"/>
<path d="M20.2051 0.375031H19.4082C19.9665 0.375031 20.4227 0.832765 20.4227 1.3895V5.85256C20.4227 6.40934 19.9665 6.86703 19.4082 6.86703H20.2051C20.7634 6.86703 21.2196 6.40934 21.2196 5.85256V1.3895C21.2196 0.832718 20.7634 0.375031 20.2051 0.375031Z" fill="#87B74F"/>
<path d="M12.4004 12.8169C12.0898 12.8169 11.8379 12.565 11.8379 12.2544C11.8379 11.9437 12.0898 11.6919 12.4004 11.6919H15.7193C16.0549 11.0383 16.2445 10.298 16.2445 9.51411C16.2445 8.74456 16.0674 8.00956 15.7181 7.32964L15.6877 7.27058L14.0025 8.97402V6.86703H12.4192C11.861 6.86703 11.4048 6.40934 11.4048 5.85256V4.73277C8.795 4.7645 6.68164 6.89694 6.68164 9.51411C6.68164 12.1509 8.82688 14.2962 11.4637 14.2962C12.8204 14.2962 14.0469 13.7279 14.9179 12.8169H12.4004Z" fill="#FFDEC7"/>
<path d="M11.4046 5.09141V4.73277C11.1041 4.73642 10.8103 4.76825 10.5254 4.82516C10.8298 4.88595 11.1239 4.97562 11.4046 5.09141Z" fill="#F2CAAF"/>
<path d="M14.0027 7.67722V6.86703H13.5684C13.7379 7.12109 13.8837 7.39222 14.0027 7.67722Z" fill="#F2CAAF"/>
<path d="M10.5254 14.2035C10.8289 14.2641 11.1425 14.2962 11.4635 14.2962C12.8202 14.2962 14.0467 13.7279 14.9177 12.8168H13.0423C12.3772 13.5124 11.5048 14.0079 10.5254 14.2035V14.2035Z" fill="#F2CAAF"/>
<path d="M15.7177 7.32964L15.6873 7.27058L14.2958 8.6772C14.3439 8.94903 14.3691 9.22869 14.3691 9.51411C14.3691 10.298 14.1795 11.0383 13.8438 11.6919H15.7189C16.0545 11.0383 16.244 10.298 16.244 9.51411C16.244 8.74456 16.0669 8.00956 15.7176 7.32964H15.7177Z" fill="#F2CAAF"/>
<path d="M19.0401 3.97095H13.582C13.2714 3.97095 13.0195 4.22281 13.0195 4.53345C13.0195 4.84409 13.2714 5.09595 13.582 5.09595H19.0401C19.3507 5.09595 19.6026 4.84409 19.6026 4.53345C19.6026 4.22281 19.3507 3.97095 19.0401 3.97095Z" fill="white"/>
<path d="M13.582 3.27111H14.0743C14.3849 3.27111 14.6368 3.01925 14.6368 2.70861C14.6368 2.39797 14.3849 2.14611 14.0743 2.14611H13.582C13.2714 2.14611 13.0195 2.39797 13.0195 2.70861C13.0195 3.01925 13.2714 3.27111 13.582 3.27111Z" fill="white"/>
<path d="M15.8555 3.27111H19.04C19.3506 3.27111 19.6025 3.01925 19.6025 2.70861C19.6025 2.39797 19.3506 2.14611 19.04 2.14611H15.8555C15.5448 2.14611 15.293 2.39797 15.293 2.70861C15.293 3.01925 15.5448 3.27111 15.8555 3.27111Z" fill="white"/>
</g>
<defs>
<clipPath id="clip0_226_1834">
<rect width="24" height="24" fill="white"/>
</clipPath>
</defs>
</svg>
