<svg width="24" height="24" viewBox="0 0 24 24" fill="none" xmlns="http://www.w3.org/2000/svg">
<g clip-path="url(#clip0_226_1806)">
<path d="M17.0284 7.81212C16.9604 7.81212 16.8918 7.79276 16.831 7.75226C16.667 7.64309 16.6225 7.42161 16.7317 7.25759L20.585 1.46783C20.6942 1.30376 20.9157 1.25928 21.0797 1.3685C21.2438 1.47767 21.2882 1.69915 21.179 1.86317L17.3257 7.65294C17.257 7.75625 17.1437 7.81212 17.0284 7.81212Z" fill="#B1DBFC"/>
<path d="M15.9769 8.08855C15.9231 8.08855 15.8686 8.07636 15.8174 8.05067L12.5076 6.39298C12.3314 6.30472 12.2601 6.09036 12.3484 5.9142C12.4366 5.73795 12.651 5.66666 12.8272 5.75497L16.137 7.41266C16.3132 7.50092 16.3845 7.71528 16.2962 7.89144C16.2336 8.01636 16.1077 8.08855 15.9769 8.08855Z" fill="#B1DBFC"/>
<path d="M7.94274 10.1596C7.85153 10.1596 7.76035 10.1248 7.69065 10.0553C7.5512 9.91611 7.55101 9.69017 7.69023 9.55072L11.1304 6.10461C11.2696 5.96516 11.4955 5.96492 11.635 6.10419C11.7744 6.24336 11.7746 6.4693 11.6354 6.60875L8.19521 10.0549C8.1256 10.1247 8.03415 10.1596 7.94274 10.1596Z" fill="#B1DBFC"/>
<path d="M3.5798 12.6435C3.45019 12.6435 3.32527 12.5727 3.26208 12.4495C3.17213 12.2742 3.24131 12.0591 3.41667 11.9692L6.38395 10.4469C6.55931 10.3568 6.77433 10.4262 6.86424 10.6014C6.95419 10.7767 6.885 10.9918 6.70964 11.0817L3.74236 12.6041C3.69024 12.6309 3.63459 12.6435 3.5798 12.6435Z" fill="#B1DBFC"/>
<path d="M2.74388 13.7967C3.35318 13.7967 3.84713 13.3027 3.84713 12.6934C3.84713 12.0841 3.35318 11.5902 2.74388 11.5902C2.13457 11.5902 1.64062 12.0841 1.64062 12.6934C1.64062 13.3027 2.13457 13.7967 2.74388 13.7967Z" fill="#FF656F"/>
<path d="M7.37083 11.4786C7.98014 11.4786 8.47408 10.9847 8.47408 10.3754C8.47408 9.76608 7.98014 9.27214 7.37083 9.27214C6.76152 9.27214 6.26758 9.76608 6.26758 10.3754C6.26758 10.9847 6.76152 11.4786 7.37083 11.4786Z" fill="#FFA85D"/>
<path d="M11.9997 6.84261C12.609 6.84261 13.103 6.34867 13.103 5.73936C13.103 5.13005 12.609 4.63611 11.9997 4.63611C11.3904 4.63611 10.8965 5.13005 10.8965 5.73936C10.8965 6.34867 11.3904 6.84261 11.9997 6.84261Z" fill="#FEE55A"/>
<path d="M16.6286 9.16062C17.2379 9.16062 17.7319 8.66668 17.7319 8.05737C17.7319 7.44807 17.2379 6.95412 16.6286 6.95412C16.0193 6.95412 15.5254 7.44807 15.5254 8.05737C15.5254 8.66668 16.0193 9.16062 16.6286 9.16062Z" fill="#43CB8E"/>
<path d="M21.2556 2.20653C21.8649 2.20653 22.3588 1.71259 22.3588 1.10328C22.3588 0.493972 21.8649 3.05176e-05 21.2556 3.05176e-05C20.6463 3.05176e-05 20.1523 0.493972 20.1523 1.10328C20.1523 1.71259 20.6463 2.20653 21.2556 2.20653Z" fill="#23A8FE"/>
<path d="M2.84578 12.6934C2.84578 12.3065 3.04509 11.9664 3.34645 11.7694C3.1732 11.6562 2.9663 11.5901 2.74388 11.5901C2.13455 11.5901 1.64062 12.084 1.64062 12.6934C1.64062 13.3027 2.13459 13.7966 2.74388 13.7966C2.9663 13.7966 3.1732 13.7306 3.34645 13.6173C3.04505 13.4204 2.84578 13.0803 2.84578 12.6934Z" fill="#FF4756"/>
<path d="M7.47273 10.3754C7.47273 9.98848 7.67205 9.64836 7.97341 9.45139C7.80016 9.33814 7.59325 9.27209 7.37083 9.27209C6.7615 9.27209 6.26758 9.76601 6.26758 10.3753C6.26758 10.9847 6.7615 11.4786 7.37083 11.4786C7.59325 11.4786 7.80016 11.4125 7.97341 11.2993C7.67205 11.1024 7.47273 10.7623 7.47273 10.3754Z" fill="#FF9839"/>
<path d="M12.1016 5.73936C12.1016 5.35245 12.301 5.01233 12.6023 4.81536C12.4291 4.70211 12.2222 4.63606 11.9997 4.63606C11.3904 4.63606 10.8965 5.12998 10.8965 5.73931C10.8965 6.34864 11.3905 6.84256 11.9997 6.84256C12.2222 6.84256 12.4291 6.77652 12.6023 6.66327C12.301 6.46639 12.1016 6.12622 12.1016 5.73936Z" fill="#FFD301"/>
<path d="M16.7305 8.05738C16.7305 7.67047 16.9299 7.33034 17.2312 7.13338C17.058 7.02013 16.8511 6.95408 16.6286 6.95408C16.0193 6.95408 15.5254 7.448 15.5254 8.05733C15.5254 8.66666 16.0194 9.16058 16.6286 9.16058C16.8511 9.16058 17.058 9.09453 17.2312 8.98128C16.9298 8.78441 16.7305 8.44424 16.7305 8.05738Z" fill="#00BA66"/>
<path d="M21.3575 1.10328C21.3575 0.716374 21.5568 0.376249 21.8582 0.179281C21.6849 0.0660774 21.478 3.05176e-05 21.2556 3.05176e-05C20.6463 3.05176e-05 20.1523 0.493952 20.1523 1.10328C20.1523 1.71261 20.6463 2.20653 21.2556 2.20653C21.478 2.20653 21.6849 2.14048 21.8582 2.02723C21.5568 1.83031 21.3575 1.49019 21.3575 1.10328Z" fill="#0193FA"/>
<path d="M3.93672 16.7771H1.55031C1.3855 16.7771 1.25195 16.9107 1.25195 17.0754V23.6432H4.23513V17.0755C4.23508 16.9107 4.10148 16.7771 3.93672 16.7771Z" fill="#FF656F"/>
<path d="M8.56563 14.459H6.17922C6.01441 14.459 5.88086 14.5926 5.88086 14.7574V23.6432H8.86403V14.7575C8.86403 14.5926 8.73044 14.459 8.56563 14.459Z" fill="#FFA85D"/>
<path d="M13.1926 9.80281H10.8062C10.6414 9.80281 10.5078 9.93641 10.5078 10.1012V23.6433H13.491V10.1012C13.4909 9.93641 13.3573 9.80281 13.1926 9.80281Z" fill="#FEE55A"/>
<path d="M17.8215 12.141H15.4351C15.2703 12.141 15.1367 12.2746 15.1367 12.4394V23.6432H18.1199V12.4394C18.1198 12.2746 17.9862 12.141 17.8215 12.141Z" fill="#43CB8E"/>
<path d="M22.4504 5.15436H20.064C19.8992 5.15436 19.7656 5.28795 19.7656 5.45272V23.6432H22.7488V5.45276C22.7488 5.28795 22.6152 5.15436 22.4504 5.15436Z" fill="#23A8FE"/>
<path d="M3.38364 16.7771H1.55031C1.3855 16.7771 1.25195 16.9107 1.25195 17.0754V23.6432H3.08533V17.0755C3.08528 16.9107 3.21887 16.7771 3.38364 16.7771Z" fill="#FF4756"/>
<path d="M8.01259 14.459H6.17922C6.01441 14.459 5.88086 14.5926 5.88086 14.7574V23.6432H7.71423V14.7575C7.71423 14.5926 7.84778 14.459 8.01259 14.459Z" fill="#FF9839"/>
<path d="M12.6395 9.80281H10.8062C10.6414 9.80281 10.5078 9.93641 10.5078 10.1012V23.6433H12.3412V10.1012C12.3411 9.93641 12.4747 9.80281 12.6395 9.80281Z" fill="#FFD301"/>
<path d="M17.2684 12.141H15.4351C15.2703 12.141 15.1367 12.2746 15.1367 12.4394V23.6432H16.9701V12.4394C16.97 12.2746 17.1036 12.141 17.2684 12.141Z" fill="#00BA66"/>
<path d="M21.8974 5.15436H20.064C19.8992 5.15436 19.7656 5.28795 19.7656 5.45272V23.6432H21.599V5.45276C21.599 5.28795 21.7326 5.15436 21.8974 5.15436Z" fill="#0193FA"/>
<path d="M23.547 24H0.454422C0.257359 24 0.0976562 23.8403 0.0976562 23.6432C0.0976562 23.4461 0.257406 23.2865 0.454422 23.2865H23.547C23.7441 23.2865 23.9038 23.4462 23.9038 23.6432C23.9038 23.8403 23.7441 24 23.547 24Z" fill="#23A8FE"/>
</g>
<defs>
<clipPath id="clip0_226_1806">
<rect width="24" height="24" fill="white"/>
</clipPath>
</defs>
</svg>
