<svg width="24" height="24" viewBox="0 0 24 24" fill="none" xmlns="http://www.w3.org/2000/svg">
<g clip-path="url(#clip0_226_1500)">
<path d="M14.316 3.12128V2.43769L13.8706 2.37261C13.8375 2.25297 13.7902 2.13933 13.7306 2.03354L13.9998 1.67123L13.5184 1.18784L13.1576 1.45815C13.0523 1.3983 12.9391 1.35087 12.82 1.31764L12.7552 0.870407H12.0744L12.0097 1.31764C11.8905 1.35087 11.7774 1.3983 11.672 1.45815L11.3112 1.18784L10.8298 1.67123L11.099 2.03354C11.0394 2.13933 10.9921 2.25297 10.9591 2.37261L10.5137 2.43769V3.12128L10.9591 3.18636C10.9921 3.306 11.0394 3.41964 11.099 3.52543L10.8298 3.88774L11.3112 4.37113L11.672 4.10082C11.7774 4.16066 11.8905 4.2081 12.0097 4.24133L12.0744 4.68856H12.7552L12.82 4.24133C12.9391 4.2081 13.0523 4.16066 13.1576 4.10082L13.5184 4.37113L13.9998 3.88774L13.7306 3.52543C13.7902 3.41964 13.8375 3.306 13.8706 3.18636L14.316 3.12128Z" fill="#F0E8F9"/>
<path d="M12.4148 3.78805C12.9718 3.78805 13.4234 3.3365 13.4234 2.77948C13.4234 2.22247 12.9718 1.77092 12.4148 1.77092C11.8578 1.77092 11.4062 2.22247 11.4062 2.77948C11.4062 3.3365 11.8578 3.78805 12.4148 3.78805Z" fill="white"/>
<path d="M0 1.51723H9.08785V7.65902H0V1.51723Z" fill="#865ACC"/>
<path d="M0 1.51723H0.615385V7.65902H0V1.51723Z" fill="#6A42BA"/>
<path d="M1.33984 2.53815H7.74738V6.63799H1.33984V2.53815Z" fill="white"/>
<path d="M1.95523 3.45856V2.53815H1.33984V6.63799H7.74738V6.02261H4.51933C3.10323 6.02266 1.95523 4.87466 1.95523 3.45856Z" fill="#F0E8F9"/>
<path d="M7.74738 6.63804V3.52209L4.93328 5.69717L2.75569 3.97594L1.33984 5.31215V6.63804H7.74738Z" fill="#61CEAC"/>
<path d="M4.51933 6.02266C3.48036 6.02266 2.58636 5.40436 2.18354 4.51595L1.33984 5.31215V6.63805H7.74738V6.02266H4.51933Z" fill="#52C1A1"/>
<path d="M5.09517 4.36984C5.40015 4.36984 5.64738 4.1227 5.64738 3.81784C5.64738 3.51298 5.40015 3.26584 5.09517 3.26584C4.7902 3.26584 4.54297 3.51298 4.54297 3.81784C4.54297 4.1227 4.7902 4.36984 5.09517 4.36984Z" fill="#FFC31A"/>
<path d="M0 0.0310211H9.08785V1.51723H0V0.0310211Z" fill="#FFC31A"/>
<path d="M0 0.0310211H0.615385V1.51723H0V0.0310211Z" fill="#FFAF00"/>
<path d="M2.13867 6.96774H21.8605V20.3957H2.13867V6.96774Z" fill="#F0E8F9"/>
<path d="M22.7104 20.3957V6.74754C22.7104 6.44631 22.4662 6.2021 22.165 6.2021H1.83408C1.53285 6.2021 1.28865 6.44631 1.28865 6.74754V20.3957H0.263672V21.4452C0.263672 22.349 0.996287 23.0816 1.90003 23.0816H22.099C23.0027 23.0816 23.7354 22.349 23.7354 21.4452V20.3957H22.7104ZM2.13859 6.96774H21.8604V20.3957H2.13859V6.96774Z" fill="#131C46"/>
<path d="M13.4856 21.7763H10.5096C10.0578 21.7763 9.69141 21.4099 9.69141 20.9581V20.3957H14.3038V20.9581C14.3038 21.4099 13.9375 21.7763 13.4856 21.7763Z" fill="#0B1226"/>
<path d="M4.75195 11.4967H19.2452V18.8567H4.75195V11.4967Z" fill="white"/>
<path d="M11.0089 14.3664H6.08173C6.02148 14.3664 5.97266 14.3176 5.97266 14.2573C5.97266 14.1971 6.02148 14.1483 6.08173 14.1483H11.0089C11.0691 14.1483 11.1179 14.1971 11.1179 14.2573C11.1179 14.3175 11.0691 14.3664 11.0089 14.3664Z" fill="#E2D2F7"/>
<path d="M14.7283 14.3664H12.9899C12.9297 14.3664 12.8809 14.3176 12.8809 14.2573C12.8809 14.1971 12.9297 14.1483 12.9899 14.1483H14.7283C14.7886 14.1483 14.8374 14.1971 14.8374 14.2573C14.8374 14.3175 14.7886 14.3664 14.7283 14.3664Z" fill="#E2D2F7"/>
<path d="M11.0089 15.9038H6.08173C6.02148 15.9038 5.97266 15.855 5.97266 15.7948C5.97266 15.7345 6.02148 15.6857 6.08173 15.6857H11.0089C11.0691 15.6857 11.1179 15.7345 11.1179 15.7948C11.1179 15.855 11.0691 15.9038 11.0089 15.9038Z" fill="#E2D2F7"/>
<path d="M17.9171 15.9038H12.9899C12.9297 15.9038 12.8809 15.855 12.8809 15.7948C12.8809 15.7345 12.9297 15.6857 12.9899 15.6857H17.9171C17.9773 15.6857 18.0261 15.7345 18.0261 15.7948C18.0262 15.855 17.9773 15.9038 17.9171 15.9038Z" fill="#E2D2F7"/>
<path d="M11.0089 17.4413H6.08173C6.02148 17.4413 5.97266 17.3925 5.97266 17.3322C5.97266 17.2719 6.02148 17.2231 6.08173 17.2231H11.0089C11.0691 17.2231 11.1179 17.2719 11.1179 17.3322C11.1179 17.3925 11.0691 17.4413 11.0089 17.4413Z" fill="#E2D2F7"/>
<path d="M16.8542 17.4413H12.9899C12.9297 17.4413 12.8809 17.3925 12.8809 17.3322C12.8809 17.2719 12.9297 17.2231 12.9899 17.2231H16.8542C16.9144 17.2231 16.9633 17.2719 16.9633 17.3322C16.9633 17.3925 16.9144 17.4413 16.8542 17.4413Z" fill="#E2D2F7"/>
<path d="M4.26953 10.657H19.7281V12.7199H4.26953V10.657Z" fill="#E2D2F7"/>
<path d="M12.1211 11.7975H7.41962C7.35937 11.7975 7.31055 11.7487 7.31055 11.6885C7.31055 11.6282 7.35937 11.5794 7.41962 11.5794H12.1211C12.1813 11.5794 12.2301 11.6282 12.2301 11.6885C12.2301 11.7487 12.1813 11.7975 12.1211 11.7975Z" fill="#131C46"/>
<path d="M4.26953 10.657H6.41594V12.7129H4.26953V10.657Z" fill="#865ACC"/>
<path d="M5.97629 12.1681L5.5408 11.7326C5.67229 11.5363 5.64295 11.2523 5.47198 11.0874C5.47198 11.0874 5.47198 11.0874 5.47198 11.0874C5.37439 10.9898 5.24465 10.9361 5.1067 10.9361C4.82895 10.9304 4.58439 11.1751 4.59013 11.4527C4.57629 11.8487 5.06208 12.1129 5.38654 11.8868L5.82203 12.3223C5.86465 12.3649 5.93367 12.3649 5.97629 12.3223C6.0189 12.2797 6.0189 12.2107 5.97629 12.1681ZM4.89572 11.6637C4.83936 11.6074 4.80829 11.5325 4.80829 11.4528C4.80495 11.2924 4.94629 11.151 5.1067 11.1543C5.18644 11.1543 5.26136 11.1854 5.31772 11.2417C5.43352 11.3528 5.43347 11.5527 5.31772 11.6638C5.2067 11.7795 5.0068 11.7796 4.89572 11.6637Z" fill="white"/>
<path d="M2.13867 6.96774H21.8605V9.11954H2.13867V6.96774Z" fill="white"/>
<path d="M3.24481 8.474C3.48249 8.474 3.67517 8.28132 3.67517 8.04364C3.67517 7.80596 3.48249 7.61328 3.24481 7.61328C3.00713 7.61328 2.81445 7.80596 2.81445 8.04364C2.81445 8.28132 3.00713 8.474 3.24481 8.474Z" fill="#FFC31A"/>
<path d="M4.75067 8.474C4.98835 8.474 5.18103 8.28132 5.18103 8.04364C5.18103 7.80596 4.98835 7.61328 4.75067 7.61328C4.51299 7.61328 4.32031 7.80596 4.32031 8.04364C4.32031 8.28132 4.51299 8.474 4.75067 8.474Z" fill="#61CEAC"/>
<path d="M6.25653 8.474C6.49421 8.474 6.68689 8.28132 6.68689 8.04364C6.68689 7.80596 6.49421 7.61328 6.25653 7.61328C6.01885 7.61328 5.82617 7.80596 5.82617 8.04364C5.82617 8.28132 6.01885 8.474 6.25653 8.474Z" fill="#F955AF"/>
<path d="M14.9785 5.75851H24.0004V11.3878H14.9785V5.75851Z" fill="#F955AF"/>
<path d="M15.5939 5.75851H14.9785V11.3878H24.0004V10.7724H18.158C16.7419 10.7724 15.5939 9.62441 15.5939 8.20831V5.75851Z" fill="#F7199E"/>
<path d="M19.4893 10.1269C20.3475 10.1269 21.0431 9.43126 21.0431 8.57313C21.0431 7.71499 20.3475 7.01933 19.4893 7.01933C18.6312 7.01933 17.9355 7.71499 17.9355 8.57313C17.9355 9.43126 18.6312 10.1269 19.4893 10.1269Z" fill="white"/>
<path d="M18.6904 8.75076L19.856 9.42369C19.9927 9.50266 20.1637 9.40394 20.1637 9.24605V7.9002C20.1637 7.7423 19.9927 7.64358 19.856 7.72256L18.6904 8.39548C18.5537 8.47446 18.5537 8.67184 18.6904 8.75076Z" fill="#E2D2F7"/>
<path d="M14.9785 4.27231H24.0004V5.75851H14.9785V4.27231Z" fill="#FFC31A"/>
<path d="M14.9785 4.27231H15.5939V5.75851H14.9785V4.27231Z" fill="#FFAF00"/>
<path d="M3.40877 18.3987L2.89062 17.9337C2.80841 17.86 2.7019 17.8192 2.59149 17.8192H0.716718C0.320872 17.8192 0 18.1401 0 18.5359V22.0197H7.74636V19.2277C7.74636 18.8317 7.42518 18.5107 7.02918 18.511L3.70815 18.5131C3.59769 18.5132 3.49103 18.4725 3.40877 18.3987Z" fill="#FF8F33"/>
<path d="M1.3321 17.8192H0.716718C0.320872 17.8192 0 18.1401 0 18.5359V22.0197H0.615385V18.5359C0.615385 18.1401 0.936256 17.8192 1.3321 17.8192Z" fill="#FF740D"/>
<path d="M6.87364 23.969H0.872718C0.390718 23.969 0 23.5783 0 23.0963V19.9641H7.74636V23.0963C7.74641 23.5783 7.35564 23.969 6.87364 23.969Z" fill="#FFC31A"/>
<path d="M3.17949 23.3536C1.76338 23.3536 0.615385 22.2056 0.615385 20.7895V19.9641H0V23.1485C0 23.6016 0.367333 23.969 0.820513 23.969H6.92585C7.31574 23.969 7.64144 23.6968 7.72497 23.3322C7.66585 23.3457 7.60451 23.3536 7.54123 23.3536H3.17949Z" fill="#FFAF00"/>
<path d="M6.61979 22.9799H5.44892C5.38866 22.9799 5.33984 22.9311 5.33984 22.8708C5.33984 22.8106 5.38866 22.7617 5.44892 22.7617H6.61979C6.68005 22.7617 6.72887 22.8106 6.72887 22.8708C6.72887 22.9311 6.68005 22.9799 6.61979 22.9799Z" fill="white"/>
<path d="M6.61911 21.8818H4.7165C4.65624 21.8818 4.60742 21.8329 4.60742 21.7727C4.60742 21.7125 4.65624 21.6636 4.7165 21.6636H6.61917C6.67942 21.6636 6.72824 21.7124 6.72824 21.7727C6.72824 21.8329 6.67937 21.8818 6.61911 21.8818Z" fill="white"/>
</g>
<defs>
<clipPath id="clip0_226_1500">
<rect width="24" height="24" fill="white"/>
</clipPath>
</defs>
</svg>
