<svg width="24" height="24" viewBox="0 0 24 24" fill="none" xmlns="http://www.w3.org/2000/svg">
<path d="M20.3452 15.0863H18.6188C19.6978 15.0863 20.3673 14.249 20.6634 13.2965L22.1029 12.9907C22.1869 12.9728 22.2623 12.9266 22.3164 12.8599C22.3705 12.7931 22.4 12.7098 22.4 12.6239V9.27947C22.4 9.19354 22.3705 9.11022 22.3164 9.04345C22.2623 8.97668 22.1869 8.93051 22.1028 8.91267L20.2245 8.51386L19.5569 6.90136L20.6029 5.29027C20.6497 5.2182 20.6703 5.13225 20.6613 5.04681C20.6523 4.96136 20.6142 4.8816 20.5534 4.82086L18.1882 2.45709C18.1274 2.39636 18.0477 2.35832 17.9622 2.34934C17.8768 2.34037 17.7909 2.361 17.7188 2.40778L16.1079 3.4537L14.4965 2.7862L14.0965 0.906516C14.0787 0.822467 14.0325 0.747093 13.9657 0.693004C13.899 0.638916 13.8157 0.609393 13.7298 0.609375H10.3853C10.2994 0.609374 10.216 0.638893 10.1493 0.692993C10.0825 0.747093 10.0363 0.822489 10.0185 0.906563L9.6197 2.78625L8.0072 3.4538L6.39616 2.40778C6.3241 2.36099 6.23816 2.34036 6.15271 2.34935C6.06727 2.35833 5.9875 2.39639 5.92675 2.45714L3.56298 4.82091C3.50224 4.88165 3.46419 4.96141 3.45521 5.04685C3.44623 5.13228 3.46685 5.21821 3.51363 5.29027L4.55955 6.90136L3.89205 8.51386L2.01236 8.91263C1.92829 8.93046 1.85289 8.97663 1.79879 9.04341C1.74469 9.11019 1.71517 9.19353 1.71517 9.27947V12.6239C1.71518 12.7098 1.7447 12.7931 1.79879 12.8599C1.85288 12.9266 1.92826 12.9728 2.01231 12.9907L3.32819 13.2699C3.61989 14.2335 4.29152 15.0863 5.38131 15.0863H3.65364C2.3425 15.0863 1.26953 16.0829 1.26953 17.3009V20.3231H6.00156V23.3906H17.9986V20.3231H22.7306V17.3009C22.7306 16.0828 21.6576 15.0863 20.3452 15.0863ZM16.5929 11.2119C16.4613 11.5006 16.3934 11.8141 16.3936 12.1313C16.3936 12.2108 16.3965 12.2924 16.4021 12.3754C16.1179 13.3223 15.536 14.1523 14.7426 14.7423C13.9493 15.3322 12.9869 15.6506 11.9983 15.6502C11.0096 15.6499 10.0475 15.3307 9.25459 14.7401C8.46173 14.1495 7.88044 13.319 7.597 12.3719C7.60244 12.2901 7.6052 12.2097 7.6052 12.1313C7.60545 11.8151 7.53798 11.5025 7.40734 11.2146C7.40552 11.1614 7.40425 11.1081 7.40425 11.0545C7.40425 10.451 7.52312 9.85333 7.75409 9.29574C7.98505 8.73815 8.32357 8.23151 8.75033 7.80475C9.17709 7.37799 9.68373 7.03947 10.2413 6.80851C10.7989 6.57755 11.3965 6.45867 12.0001 6.45867C12.6036 6.45867 13.2012 6.57755 13.7588 6.80851C14.3164 7.03947 14.823 7.37799 15.2498 7.80475C15.6766 8.23151 16.0151 8.73815 16.246 9.29574C16.477 9.85333 16.5959 10.451 16.5959 11.0545C16.5959 11.1072 16.5947 11.1596 16.5929 11.2119Z" fill="#484868"/>
<path d="M22.7306 17.3009C22.7306 16.0829 21.6576 15.0863 20.3452 15.0863H16.8905C16.3079 15.0838 15.743 15.2862 15.2946 15.6582L15.2939 15.6601C15.0393 15.6057 14.7797 15.5781 14.5193 15.5779H9.47936C9.22026 15.5781 8.9619 15.6054 8.7085 15.6594L8.70536 15.6582C8.25699 15.2862 7.69208 15.0838 7.1095 15.0863H3.65364C2.3425 15.0863 1.26953 16.0829 1.26953 17.3009V20.3231H6.00156V23.3906H17.9986V20.3231H22.7306V17.3009Z" fill="#EAE8E8"/>
<path d="M14.5191 15.5781H13.5918C15.5048 15.5781 17.0709 17.0303 17.0709 18.8075V23.3906H17.9982V18.8075C17.9982 17.0303 16.4321 15.5781 14.5191 15.5781Z" fill="#DDD7D7"/>
<path d="M9.11087 23.3906V19.4844C9.11141 19.4377 9.10267 19.3913 9.08515 19.348C9.06764 19.3046 9.0417 19.2652 9.00885 19.232C8.97599 19.1987 8.93686 19.1723 8.89373 19.1543C8.85061 19.1363 8.80433 19.127 8.75759 19.127C8.71086 19.127 8.66458 19.1363 8.62145 19.1543C8.57832 19.1723 8.5392 19.1987 8.50634 19.232C8.47348 19.2652 8.44755 19.3046 8.43003 19.348C8.41252 19.3913 8.40378 19.4377 8.40432 19.4844V23.3906H9.11087Z" fill="#DDD7D7"/>
<path d="M15.5933 23.3906V19.4844C15.5938 19.4377 15.5851 19.3913 15.5676 19.348C15.5501 19.3046 15.5241 19.2652 15.4913 19.232C15.4584 19.1987 15.4193 19.1723 15.3762 19.1543C15.333 19.1363 15.2868 19.127 15.24 19.127C15.1933 19.127 15.147 19.1363 15.1039 19.1543C15.0607 19.1723 15.0216 19.1987 14.9888 19.232C14.9559 19.2652 14.93 19.3046 14.9125 19.348C14.8949 19.3913 14.8862 19.4377 14.8867 19.4844V23.3906H15.5933Z" fill="#DDD7D7"/>
<path d="M18.6178 9.90773C19.2074 9.90793 19.7729 10.1423 20.1898 10.5592C20.6067 10.9762 20.841 11.5416 20.8412 12.1312C20.8412 13.4347 20.1333 15.0862 18.6175 15.0862C17.054 15.0862 16.3926 13.3596 16.3926 12.1312C16.3928 11.5413 16.6274 10.9756 17.0447 10.5587C17.462 10.1417 18.0279 9.90753 18.6178 9.90773Z" fill="#FFDDAB"/>
<path d="M5.38181 9.90773C5.0898 9.90769 4.80064 9.96517 4.53085 10.0769C4.26105 10.1886 4.01591 10.3524 3.80942 10.5589C3.60293 10.7654 3.43914 11.0105 3.3274 11.2803C3.21567 11.5501 3.15817 11.8392 3.1582 12.1312C3.1582 13.4347 3.86489 15.0862 5.38181 15.0862C6.94538 15.0862 7.60547 13.3596 7.60547 12.1312C7.60551 11.8392 7.54801 11.5501 7.43628 11.2803C7.32454 11.0105 7.16075 10.7653 6.95425 10.5588C6.74776 10.3523 6.50261 10.1885 6.23281 10.0768C5.96301 9.96508 5.67384 9.9076 5.38181 9.90764V9.90773Z" fill="#FFDDAB"/>
<path d="M18.618 9.90773C18.4846 9.90788 18.3515 9.91996 18.2203 9.94382C18.7326 10.037 19.196 10.307 19.5297 10.7067C19.8634 11.1064 20.0463 11.6106 20.0465 12.1312C20.0465 13.3153 19.4621 14.7864 18.2188 15.0459C18.35 15.073 18.4837 15.0865 18.6177 15.0862C20.1334 15.0862 20.8414 13.4347 20.8414 12.1312C20.8412 11.5416 20.6069 10.9762 20.19 10.5592C19.7731 10.1423 19.2076 9.90793 18.618 9.90773Z" fill="#F9CE95"/>
<path d="M5.38178 9.90773C5.2485 9.90788 5.1155 9.91996 4.98438 9.94382C5.49674 10.0369 5.9602 10.3068 6.29394 10.7065C6.62767 11.1063 6.81051 11.6105 6.81058 12.1312C6.81058 13.2494 6.26341 14.7803 4.98578 15.0459C5.11605 15.0729 5.24875 15.0864 5.38178 15.0862C6.94534 15.0862 7.60544 13.3596 7.60544 12.1312C7.60546 11.8392 7.54796 11.5501 7.43622 11.2803C7.32448 11.0105 7.16068 10.7654 6.95419 10.5589C6.7477 10.3524 6.50255 10.1886 6.23276 10.0769C5.96296 9.96517 5.6738 9.90769 5.38178 9.90773Z" fill="#F9CE95"/>
<path d="M11.9986 23.3906L10.7832 22.1494L11.5301 16.8891C11.3879 16.805 11.2752 16.6789 11.2078 16.5281C11.1353 16.3702 11.1482 15.9509 11.2427 15.8046C11.2881 15.7342 11.3506 15.6764 11.4244 15.6368C11.4982 15.5972 11.5808 15.577 11.6646 15.5781H12.3325C12.4163 15.5767 12.4991 15.5968 12.5729 15.6364C12.6468 15.6761 12.7092 15.7339 12.7544 15.8046C12.8502 15.9509 12.8631 16.3702 12.7906 16.5281C12.7223 16.6787 12.6094 16.8047 12.4672 16.8891L13.2153 22.1492L11.9986 23.3906Z" fill="#AD1E1E"/>
<path d="M11.9984 15.5781C13.1296 15.5781 14.1081 14.6061 14.5819 13.1927C15.3727 13.1112 15.8801 11.2085 15.2407 11.0105C15.1813 10.9902 15.118 10.9836 15.0557 10.9913C14.9934 10.9989 14.9336 11.0205 14.8808 11.0545C15.4257 8.75446 14.9805 8.3429 14.2621 8.03873C13.6421 7.35145 12.7555 6.9606 11.9983 6.9606C10.4529 6.9606 8.36647 8.58754 9.11586 11.0545C9.06311 11.0205 9.00332 10.9988 8.941 10.9912C8.87868 10.9836 8.81545 10.9902 8.75604 11.0105C8.11794 11.2086 8.624 13.1112 9.41614 13.1927C9.88854 14.6061 10.8684 15.5781 11.9983 15.5781L11.9984 15.5781Z" fill="#FFDDAB"/>
<path d="M20.3443 15.0863H16.8896C16.307 15.0838 15.7421 15.2862 15.2937 15.6582L15.293 15.6601C16.8365 15.9892 17.9977 17.2773 17.9977 18.8073V20.3229H22.7297V17.3009C22.7297 16.0828 21.6567 15.0863 20.3443 15.0863Z" fill="#7DA8FF"/>
<path d="M6.00156 18.8075C6.00156 17.2775 7.16345 15.9877 8.7085 15.6596L8.70536 15.6584C8.25699 15.2864 7.69208 15.0839 7.1095 15.0865H3.65364C2.3425 15.0865 1.26953 16.0831 1.26953 17.301V20.3233H6.00156V18.8075Z" fill="#7DA8FF"/>
<path d="M6.00178 20.3231V18.8075C6.00178 17.2775 7.16367 15.9877 8.70872 15.6596L8.70558 15.6584C8.67277 15.6307 8.63836 15.6041 8.60362 15.5781H8.55206C6.63909 15.5781 5.07422 17.0317 5.07422 18.8075V20.3231H6.00178Z" fill="#5090EF"/>
<path d="M17.998 20.3231V18.8075C17.998 17.2775 16.836 15.9877 15.291 15.6596L15.2942 15.6584C15.3272 15.6307 15.3614 15.6041 15.3961 15.5781H15.4476C17.3606 15.5781 18.9254 17.0317 18.9254 18.8075V20.3231H17.998Z" fill="#5090EF"/>
<path d="M12.7914 16.5281C12.8639 16.3702 12.851 15.9509 12.7552 15.8046C12.7101 15.7339 12.6476 15.6761 12.5738 15.6364C12.4999 15.5968 12.4171 15.5767 12.3333 15.5781H11.6654C11.5816 15.577 11.499 15.5972 11.4252 15.6368C11.3514 15.6764 11.2889 15.7342 11.2435 15.8046C11.149 15.9509 11.1361 16.3702 11.2085 16.5281C11.276 16.6789 11.3886 16.805 11.5308 16.8891H12.4679C12.6102 16.8047 12.7231 16.6787 12.7914 16.5281Z" fill="#D22E2E"/>
<path d="M14.2626 8.03873C13.6426 7.35145 12.756 6.9606 11.9988 6.9606C10.4534 6.9606 8.36701 8.58754 9.1164 11.0545C10.289 9.53395 12.8339 10.4305 13.8792 9.32812C14.0826 10.2151 14.4469 10.6704 14.8813 11.0546C15.4261 8.75446 14.981 8.34285 14.2626 8.03873Z" fill="#7C6359"/>
<path d="M15.2419 11.0105C15.1702 10.9877 15.0939 10.9831 15.02 10.997C14.975 11.0179 14.9292 11.0373 14.882 11.0545C14.6788 10.8799 14.4988 10.68 14.3465 10.4595C14.368 11.3284 14.2374 12.3094 13.8765 13.1927C13.453 14.4565 12.6256 15.3668 11.6465 15.5455C11.763 15.5671 11.8811 15.578 11.9996 15.5783C13.1308 15.5783 14.1093 14.6063 14.5831 13.1929C15.3739 13.1112 15.8815 11.2085 15.2419 11.0105Z" fill="#F9CE95"/>
<path d="M14.8809 11.0545C14.928 11.0373 14.9739 11.0179 15.0188 10.997C14.9694 11.0064 14.9224 11.026 14.8809 11.0545Z" fill="#604C42"/>
<path d="M14.2626 8.03873C13.6426 7.35145 12.756 6.9606 11.9988 6.9606C11.8796 6.96094 11.7605 6.9701 11.6426 6.98802C12.3111 7.08646 13.0296 7.45513 13.5561 8.03877C13.9777 8.21727 14.3152 9.22518 14.3457 10.4596C14.498 10.68 14.678 10.88 14.8813 11.0545C15.426 8.75446 14.981 8.34285 14.2626 8.03873Z" fill="#604C42"/>
<path d="M13.1695 0.906328L13.5696 2.78602L15.7465 3.6878L16.1074 3.45342L14.4961 2.78592L14.0961 0.906234C14.0782 0.82223 14.032 0.746914 13.9652 0.69288C13.8984 0.638846 13.8152 0.609368 13.7293 0.609375H12.8027C12.8886 0.609373 12.9719 0.638864 13.0387 0.692917C13.1055 0.746969 13.1517 0.822306 13.1695 0.906328Z" fill="#3D3D54"/>
<path d="M22.101 8.91267L20.2227 8.51386L19.5551 6.90136L20.6011 5.29027C20.6479 5.2182 20.6685 5.13225 20.6595 5.04681C20.6505 4.96136 20.6124 4.8816 20.5516 4.82086L18.1865 2.45709C18.1258 2.39636 18.046 2.35832 17.9606 2.34934C17.8752 2.34037 17.7892 2.361 17.7172 2.40778L17.4102 2.60714L19.625 4.82086C19.6858 4.8816 19.7238 4.96136 19.7328 5.04681C19.7418 5.13225 19.7212 5.2182 19.6745 5.29027L18.6285 6.90136L19.2961 8.51386L21.1744 8.91267C21.2585 8.93051 21.3338 8.97668 21.3879 9.04345C21.442 9.11022 21.4715 9.19354 21.4715 9.27947V12.6239C21.4715 12.7098 21.442 12.7931 21.3879 12.8599C21.3339 12.9266 21.2585 12.9728 21.1745 12.9907L20.72 13.0872C20.7021 13.1584 20.6825 13.2292 20.6605 13.2994L20.6615 13.2965L22.1009 12.9907C22.185 12.9728 22.2604 12.9266 22.3144 12.8599C22.3685 12.7931 22.398 12.7098 22.398 12.6239V9.27947C22.398 9.19356 22.3685 9.11025 22.3145 9.04349C22.2604 8.97672 22.1851 8.93054 22.101 8.91267Z" fill="#3D3D54"/>
<path d="M16.5952 11.0545C16.5952 11.1077 16.5934 11.1605 16.5916 11.2133C16.7489 10.8674 16.9919 10.5675 17.2976 10.3418C17.125 9.05895 16.4929 7.88228 15.5185 7.03021C14.5441 6.17813 13.2936 5.70853 11.9992 5.70857C10.7048 5.70861 9.45441 6.17829 8.48007 7.03043C7.50573 7.88256 6.87365 9.05927 6.70117 10.3421C7.00721 10.5683 7.25027 10.8691 7.40725 11.2157C7.40538 11.1621 7.40359 11.1085 7.40359 11.0545C7.40359 10.451 7.52247 9.85334 7.75343 9.29575C7.98439 8.73816 8.32292 8.23152 8.74968 7.80476C9.17644 7.378 9.68308 7.03947 10.2407 6.80851C10.7983 6.57755 11.3959 6.45868 11.9994 6.45868C12.6029 6.45868 13.2006 6.57755 13.7581 6.80851C14.3157 7.03947 14.8224 7.378 15.2491 7.80476C15.6759 8.23152 16.0144 8.73816 16.2454 9.29575C16.4763 9.85334 16.5952 10.451 16.5952 11.0545Z" fill="#3D3D54"/>
<path d="M7.59608 12.3698C7.56764 12.7979 7.47057 13.2186 7.30859 13.6158C7.75147 14.4228 8.39378 15.1028 9.17422 15.5909C9.27448 15.5826 9.37578 15.5781 9.47844 15.5781H11.1853C10.3495 15.4259 9.57204 15.0458 8.93867 14.4797C8.3053 13.9135 7.84067 13.1834 7.59608 12.3698Z" fill="#3D3D54"/>
<path d="M16.4005 12.3732C16.1555 13.1859 15.6908 13.9153 15.0577 14.4808C14.4246 15.0463 13.6477 15.426 12.8125 15.5781H14.518C14.6209 15.5781 14.7227 15.5824 14.8234 15.591C15.6035 15.103 16.2456 14.4233 16.6885 13.6167C16.5265 13.2203 16.4293 12.8004 16.4005 12.3732Z" fill="#3D3D54"/>
</svg>
