<svg width="24" height="24" viewBox="0 0 24 24" fill="none" xmlns="http://www.w3.org/2000/svg">
<path d="M7.02614 4.85311H0.482906C0.216188 4.85311 0 5.06935 0 5.33602V17.8913C0 18.1581 0.216188 18.3743 0.482906 18.3743H7.02619L7.02614 4.85311Z" fill="#EAF6FF"/>
<path d="M1.64184 17.8913V5.33602C1.64184 5.0693 1.85803 4.85311 2.12475 4.85311H0.482906C0.216188 4.85311 0 5.06935 0 5.33602V17.8913C0 18.1581 0.216188 18.3743 0.482906 18.3743H2.12475C1.85803 18.3743 1.64184 18.1581 1.64184 17.8913Z" fill="#D8ECFE"/>
<path d="M23.5179 4.85311H16.9746V18.3743H23.5179C23.7846 18.3743 24.0008 18.1581 24.0008 17.8913V5.33602C24.0008 5.06935 23.7846 4.85311 23.5179 4.85311Z" fill="#D8ECFE"/>
<path d="M16.9746 4.85311H18.6165V18.3743H16.9746V4.85311Z" fill="#C4E2FF"/>
<path d="M16.8135 5.8672H7.18777L6.97852 5.91548V19.34C6.97852 19.6067 7.1947 19.8229 7.46142 19.8229H16.5399C16.8066 19.8229 17.0228 19.6067 17.0228 19.34V5.91548L16.8135 5.8672Z" fill="#EAF6FF"/>
<path d="M8.91009 19.3401V5.91554L9.11934 5.86726H7.18777L6.97852 5.91554V19.3401C6.97852 19.6068 7.1947 19.823 7.46142 19.823H9.393C9.12633 19.8229 8.91009 19.6067 8.91009 19.3401Z" fill="#D8ECFE"/>
<path d="M17.0228 5.91549H6.97852V3.501C6.97852 3.23428 7.1947 3.0181 7.46142 3.0181H16.5399C16.8066 3.0181 17.0228 3.23428 17.0228 3.501V5.91549Z" fill="#FD4755"/>
<path d="M9.393 3.0181H7.46142C7.1947 3.0181 6.97852 3.23428 6.97852 3.501V5.91549H8.91009V3.501C8.91009 3.23433 9.12633 3.0181 9.393 3.0181Z" fill="#FB2B3A"/>
<path d="M14.1243 20.9819H9.87475C9.47472 20.9819 9.15039 20.6576 9.15039 20.2575V19.3883C9.15039 18.9883 9.47467 18.664 9.87475 18.664H14.1243C14.5243 18.664 14.8486 18.9883 14.8486 19.3883V20.2575C14.8486 20.6576 14.5243 20.9819 14.1243 20.9819Z" fill="#97D729"/>
<path d="M11.082 20.2575V19.3883C11.082 18.9883 11.4063 18.664 11.8063 18.664H9.87475C9.47472 18.664 9.15039 18.9883 9.15039 19.3883V20.2575C9.15039 20.6576 9.47467 20.9819 9.87475 20.9819H11.8063C11.4063 20.9819 11.082 20.6576 11.082 20.2575Z" fill="#8BC727"/>
<path d="M15.1141 8.29523H11.6855C11.4914 8.29523 11.334 8.13783 11.334 7.94367C11.334 7.74952 11.4914 7.59211 11.6855 7.59211H15.1141C15.3083 7.59211 15.4657 7.74952 15.4657 7.94367C15.4657 8.13783 15.3083 8.29523 15.1141 8.29523Z" fill="#8AC9FE"/>
<path d="M15.1141 9.57492H11.6855C11.4914 9.57492 11.334 9.41751 11.334 9.22336C11.334 9.0292 11.4914 8.8718 11.6855 8.8718H15.1141C15.3083 8.8718 15.4657 9.0292 15.4657 9.22336C15.4657 9.41751 15.3083 9.57492 15.1141 9.57492Z" fill="#8AC9FE"/>
<path d="M15.1141 10.8546H11.6855C11.4914 10.8546 11.334 10.6972 11.334 10.503C11.334 10.3088 11.4914 10.1514 11.6855 10.1514H15.1141C15.3083 10.1514 15.4657 10.3088 15.4657 10.503C15.4657 10.6972 15.3083 10.8546 15.1141 10.8546Z" fill="#8AC9FE"/>
<path d="M15.1146 12.7861H10.0684C9.8742 12.7861 9.7168 12.6287 9.7168 12.4346C9.7168 12.2404 9.8742 12.083 10.0684 12.083H15.1146C15.3088 12.083 15.4662 12.2404 15.4662 12.4346C15.4662 12.6287 15.3088 12.7861 15.1146 12.7861Z" fill="#8AC9FE"/>
<path d="M15.1146 14.3314H10.0684C9.8742 14.3314 9.7168 14.174 9.7168 13.9799C9.7168 13.7857 9.8742 13.6283 10.0684 13.6283H15.1146C15.3088 13.6283 15.4662 13.7857 15.4662 13.9799C15.4662 14.174 15.3088 14.3314 15.1146 14.3314Z" fill="#8AC9FE"/>
<path d="M15.1146 15.8767H10.0684C9.8742 15.8767 9.7168 15.7193 9.7168 15.5251C9.7168 15.331 9.8742 15.1736 10.0684 15.1736H15.1146C15.3088 15.1736 15.4662 15.331 15.4662 15.5251C15.4662 15.7193 15.3088 15.8767 15.1146 15.8767Z" fill="#8AC9FE"/>
<path d="M15.1146 17.422H10.0684C9.8742 17.422 9.7168 17.2646 9.7168 17.0704C9.7168 16.8763 9.8742 16.7189 10.0684 16.7189H15.1146C15.3088 16.7189 15.4662 16.8763 15.4662 17.0704C15.4662 17.2646 15.3088 17.422 15.1146 17.422Z" fill="#8AC9FE"/>
<path d="M8.98138 12.7861H8.88477C8.69061 12.7861 8.5332 12.6287 8.5332 12.4346C8.5332 12.2404 8.69061 12.083 8.88477 12.083H8.98138C9.17553 12.083 9.33294 12.2404 9.33294 12.4346C9.33294 12.6287 9.17553 12.7861 8.98138 12.7861Z" fill="#8AC9FE"/>
<path d="M8.98138 14.3314H8.88477C8.69061 14.3314 8.5332 14.174 8.5332 13.9799C8.5332 13.7857 8.69061 13.6283 8.88477 13.6283H8.98138C9.17553 13.6283 9.33294 13.7857 9.33294 13.9799C9.33294 14.174 9.17553 14.3314 8.98138 14.3314Z" fill="#8AC9FE"/>
<path d="M8.98138 15.8767H8.88477C8.69061 15.8767 8.5332 15.7193 8.5332 15.5251C8.5332 15.331 8.69061 15.1736 8.88477 15.1736H8.98138C9.17553 15.1736 9.33294 15.331 9.33294 15.5251C9.33294 15.7193 9.17553 15.8767 8.98138 15.8767Z" fill="#8AC9FE"/>
<path d="M8.98138 17.422H8.88477C8.69061 17.422 8.5332 17.2646 8.5332 17.0704C8.5332 16.8763 8.69061 16.7189 8.88477 16.7189H8.98138C9.17553 16.7189 9.33294 16.8763 9.33294 17.0704C9.33294 17.2646 9.17553 17.422 8.98138 17.422Z" fill="#8AC9FE"/>
<path d="M13.5456 20.1745H10.4551C10.2609 20.1745 10.1035 20.0171 10.1035 19.8229C10.1035 19.6288 10.2609 19.4714 10.4551 19.4714H13.5456C13.7398 19.4714 13.8972 19.6288 13.8972 19.8229C13.8972 20.0171 13.7398 20.1745 13.5456 20.1745Z" fill="#78A91F"/>
<path d="M22.4315 14.7419H19.7031C19.509 14.7419 19.3516 14.5845 19.3516 14.3903C19.3516 14.1962 19.509 14.0388 19.7031 14.0388H22.4315C22.6256 14.0388 22.783 14.1962 22.783 14.3903C22.783 14.5845 22.6256 14.7419 22.4315 14.7419Z" fill="#8AC9FE"/>
<path d="M18.6161 14.7419H18.5195C18.3254 14.7419 18.168 14.5845 18.168 14.3903C18.168 14.1962 18.3254 14.0388 18.5195 14.0388H18.6161C18.8103 14.0388 18.9677 14.1962 18.9677 14.3903C18.9677 14.5845 18.8103 14.7419 18.6161 14.7419Z" fill="#8AC9FE"/>
<path d="M22.4315 16.2872H19.7031C19.509 16.2872 19.3516 16.1298 19.3516 15.9356C19.3516 15.7415 19.509 15.5841 19.7031 15.5841H22.4315C22.6256 15.5841 22.783 15.7415 22.783 15.9356C22.783 16.1298 22.6256 16.2872 22.4315 16.2872Z" fill="#8AC9FE"/>
<path d="M18.6161 16.2872H18.5195C18.3254 16.2872 18.168 16.1298 18.168 15.9356C18.168 15.7415 18.3254 15.5841 18.5195 15.5841H18.6161C18.8103 15.5841 18.9677 15.7415 18.9677 15.9356C18.9677 16.1298 18.8103 16.2872 18.6161 16.2872Z" fill="#8AC9FE"/>
<path d="M22.4315 13.1966H19.7031C19.509 13.1966 19.3516 13.0392 19.3516 12.8451C19.3516 12.6509 19.509 12.4935 19.7031 12.4935H22.4315C22.6256 12.4935 22.783 12.6509 22.783 12.8451C22.783 13.0392 22.6256 13.1966 22.4315 13.1966Z" fill="#8AC9FE"/>
<path d="M18.6161 13.1966H18.5195C18.3254 13.1966 18.168 13.0392 18.168 12.8451C18.168 12.6509 18.3254 12.4935 18.5195 12.4935H18.6161C18.8103 12.4935 18.9677 12.6509 18.9677 12.8451C18.9677 13.0392 18.8103 13.1966 18.6161 13.1966Z" fill="#8AC9FE"/>
<path d="M22.4315 11.6031H19.7031C19.509 11.6031 19.3516 11.4457 19.3516 11.2515C19.3516 11.0573 19.509 10.8999 19.7031 10.8999H22.4315C22.6256 10.8999 22.783 11.0573 22.783 11.2515C22.783 11.4457 22.6256 11.6031 22.4315 11.6031Z" fill="#8AC9FE"/>
<path d="M18.6161 11.6031H18.5195C18.3254 11.6031 18.168 11.4457 18.168 11.2515C18.168 11.0573 18.3254 10.8999 18.5195 10.8999H18.6161C18.8103 10.8999 18.9677 11.0573 18.9677 11.2515C18.9677 11.4457 18.8103 11.6031 18.6161 11.6031Z" fill="#8AC9FE"/>
<path d="M20.4746 9.68443C21.316 9.68443 21.998 9.00236 21.998 8.16099C21.998 7.31962 21.316 6.63755 20.4746 6.63755C19.6332 6.63755 18.9512 7.31962 18.9512 8.16099C18.9512 9.00236 19.6332 9.68443 20.4746 9.68443Z" fill="#FED402"/>
<path d="M20.2807 8.16099C20.2807 7.55799 20.6311 7.03688 21.1394 6.78999C20.9385 6.69239 20.713 6.63755 20.4746 6.63755C19.6332 6.63755 18.9512 7.31963 18.9512 8.16099C18.9512 9.00235 19.6332 9.68443 20.4746 9.68443C20.713 9.68443 20.9385 9.62958 21.1394 9.53199C20.6312 9.28505 20.2807 8.76399 20.2807 8.16099Z" fill="#FAC600"/>
<path d="M5.48231 14.7419H2.75391C2.55975 14.7419 2.40234 14.5845 2.40234 14.3903C2.40234 14.1962 2.55975 14.0388 2.75391 14.0388H5.48231C5.67647 14.0388 5.83388 14.1962 5.83388 14.3903C5.83388 14.5845 5.67647 14.7419 5.48231 14.7419Z" fill="#8AC9FE"/>
<path d="M1.66687 14.7419H1.57031C1.37616 14.7419 1.21875 14.5845 1.21875 14.3903C1.21875 14.1962 1.37616 14.0388 1.57031 14.0388H1.66687C1.86103 14.0388 2.01844 14.1962 2.01844 14.3903C2.01844 14.5845 1.86103 14.7419 1.66687 14.7419Z" fill="#8AC9FE"/>
<path d="M5.48231 16.2872H2.75391C2.55975 16.2872 2.40234 16.1298 2.40234 15.9356C2.40234 15.7415 2.55975 15.5841 2.75391 15.5841H5.48231C5.67647 15.5841 5.83388 15.7415 5.83388 15.9356C5.83388 16.1298 5.67647 16.2872 5.48231 16.2872Z" fill="#8AC9FE"/>
<path d="M1.66687 16.2872H1.57031C1.37616 16.2872 1.21875 16.1298 1.21875 15.9356C1.21875 15.7415 1.37616 15.5841 1.57031 15.5841H1.66687C1.86103 15.5841 2.01844 15.7415 2.01844 15.9356C2.01844 16.1298 1.86103 16.2872 1.66687 16.2872Z" fill="#8AC9FE"/>
<path d="M5.48231 13.1966H2.75391C2.55975 13.1966 2.40234 13.0392 2.40234 12.8451C2.40234 12.6509 2.55975 12.4935 2.75391 12.4935H5.48231C5.67647 12.4935 5.83388 12.6509 5.83388 12.8451C5.83388 13.0392 5.67647 13.1966 5.48231 13.1966Z" fill="#8AC9FE"/>
<path d="M1.66687 13.1966H1.57031C1.37616 13.1966 1.21875 13.0392 1.21875 12.8451C1.21875 12.6509 1.37616 12.4935 1.57031 12.4935H1.66687C1.86103 12.4935 2.01844 12.6509 2.01844 12.8451C2.01844 13.0392 1.86103 13.1966 1.66687 13.1966Z" fill="#8AC9FE"/>
<path d="M5.48231 11.6031H2.75391C2.55975 11.6031 2.40234 11.4457 2.40234 11.2515C2.40234 11.0573 2.55975 10.8999 2.75391 10.8999H5.48231C5.67647 10.8999 5.83388 11.0573 5.83388 11.2515C5.83388 11.4457 5.67647 11.6031 5.48231 11.6031Z" fill="#8AC9FE"/>
<path d="M1.66687 11.6031H1.57031C1.37616 11.6031 1.21875 11.4457 1.21875 11.2515C1.21875 11.0573 1.37616 10.8999 1.57031 10.8999H1.66687C1.86103 10.8999 2.01844 11.0573 2.01844 11.2515C2.01844 11.4457 1.86103 11.6031 1.66687 11.6031Z" fill="#8AC9FE"/>
<path d="M3.52539 9.68443C4.36676 9.68443 5.04883 9.00236 5.04883 8.16099C5.04883 7.31962 4.36676 6.63755 3.52539 6.63755C2.68402 6.63755 2.00195 7.31962 2.00195 8.16099C2.00195 9.00236 2.68402 9.68443 3.52539 9.68443Z" fill="#26A6FE"/>
<path d="M3.33152 8.16099C3.33152 7.55799 3.68191 7.03688 4.19017 6.78999C3.98927 6.69239 3.76375 6.63755 3.52539 6.63755C2.68403 6.63755 2.00195 7.31963 2.00195 8.16099C2.00195 9.00235 2.68403 9.68443 3.52539 9.68443C3.76375 9.68443 3.98927 9.62958 4.19017 9.53199C3.68191 9.28505 3.33152 8.76399 3.33152 8.16099Z" fill="#0593FC"/>
<path d="M14.8008 4.7701H9.19922C9.00506 4.7701 8.84766 4.61269 8.84766 4.41853C8.84766 4.22438 9.00506 4.06697 9.19922 4.06697H14.8008C14.9949 4.06697 15.1523 4.22438 15.1523 4.41853C15.1523 4.61269 14.995 4.7701 14.8008 4.7701Z" fill="#C41926"/>
<path d="M10.8058 9.555C10.8058 9.08246 10.4213 8.69803 9.94878 8.69803H9.39017C9.30533 8.69803 9.23633 8.62903 9.23633 8.54419C9.23633 8.45935 9.30533 8.39035 9.39017 8.39035H10.3744C10.5686 8.39035 10.726 8.23294 10.726 8.03878C10.726 7.84463 10.5686 7.68722 10.3744 7.68722H10.0211V7.52007C10.0211 7.32591 9.86366 7.1685 9.6695 7.1685C9.47534 7.1685 9.31794 7.32591 9.31794 7.52007V7.69088C8.87914 7.72777 8.5332 8.09602 8.5332 8.54419C8.5332 9.01674 8.91763 9.40116 9.39017 9.40116H9.94878C10.0336 9.40116 10.1026 9.47016 10.1026 9.555C10.1026 9.63985 10.0336 9.70885 9.94878 9.70885H8.96455C8.77039 9.70885 8.61298 9.86625 8.61298 10.0604C8.61298 10.2546 8.77039 10.412 8.96455 10.412H9.31789V10.5791C9.31789 10.7732 9.4753 10.9306 9.66945 10.9306C9.86361 10.9306 10.021 10.7732 10.021 10.5791V10.4083C10.4598 10.3715 10.8058 10.0032 10.8058 9.555Z" fill="#78A91F"/>
</svg>
