<svg width="24" height="24" viewBox="0 0 24 24" fill="none" xmlns="http://www.w3.org/2000/svg">
<g clip-path="url(#clip0_226_719)">
<path d="M10.5586 6.86043H12.4702V13.493H10.5586V6.86043Z" fill="#A8E304"/>
<path d="M11.8184 6.86043H12.4693V13.493H11.8184V6.86043Z" fill="#8BBD00"/>
<path d="M13.9062 4.27376H15.8179V13.493H13.9062V4.27376Z" fill="#FF8748"/>
<path d="M15.168 4.27376H15.8189V13.493H15.168V4.27376Z" fill="#F2671F"/>
<path fill-rule="evenodd" clip-rule="evenodd" d="M1.36126 10.0695C1.27089 10.0695 1.18098 10.0324 1.1161 9.95951C0.995683 9.82418 1.00787 9.61676 1.14343 9.49634L7.76556 3.60335C7.8602 3.51907 7.99468 3.49671 8.11126 3.5464L11.2098 4.85956L14.9229 1.14663L14.785 1.16684C14.6058 1.19304 14.4391 1.06901 14.4126 0.889619C14.3864 0.710463 14.5107 0.543728 14.6896 0.517478L15.8073 0.353885C15.8215 0.351822 15.8357 0.350697 15.8499 0.35051H15.8586C15.9436 0.351494 16.0257 0.385525 16.087 0.446557C16.1603 0.519963 16.1944 0.623463 16.1794 0.726025L16.0158 1.84353C15.9919 2.00665 15.8518 2.12412 15.6914 2.12412C15.676 2.12412 15.6595 2.12299 15.6435 2.12074C15.4645 2.09431 15.3403 1.92776 15.3665 1.74842L15.3866 1.61098L11.5176 5.47981C11.4229 5.57449 11.2804 5.60224 11.1577 5.55007L8.04653 4.23148L1.57932 9.9866C1.51698 10.0422 1.43921 10.0695 1.36126 10.0695Z" fill="#7986BF"/>
<path d="M7.21094 6.30782H9.12259V13.493H7.21094V6.30782Z" fill="#0B5FFF"/>
<path d="M3.86328 9.257H5.77494V13.493H3.86328V9.257Z" fill="#FDC72E"/>
<path d="M0.513672 11.0596H2.42533V13.493H0.513672V11.0596Z" fill="#FB545C"/>
<path d="M1.77539 11.0596H2.4263V13.493H1.77539V11.0596Z" fill="#E8333C"/>
<path d="M5.12305 9.257H5.77395V13.493H5.12305V9.257Z" fill="#F9AC00"/>
<path d="M8.4707 6.30782H9.12161V13.493H8.4707V6.30782Z" fill="#2A92FA"/>
<path d="M17.7812 18.8628L18.6945 17.9496L20.8118 20.0669L19.8986 20.9801L17.7812 18.8628Z" fill="#7986BF"/>
<path d="M17.7812 18.8629L18.0934 18.5507L20.2108 20.6681L19.8986 20.9803L17.7812 18.8629Z" fill="#6A75AD"/>
<path d="M18.8554 19.0225C20.9922 16.8856 20.9922 13.4211 18.8554 11.2843C16.7185 9.14743 13.254 9.14743 11.1171 11.2843C8.9803 13.4211 8.9803 16.8856 11.1171 19.0225C13.254 21.1593 16.7185 21.1593 18.8554 19.0225Z" fill="#2A93FC"/>
<path fill-rule="evenodd" clip-rule="evenodd" d="M14.7853 20.6217C11.8579 20.514 9.51758 18.1072 9.51758 15.1534C9.51758 12.1996 11.8579 9.79282 14.7853 9.68506C17.7128 9.79282 20.0532 12.1996 20.0532 15.1534C20.0532 18.1072 17.7128 20.514 14.7853 20.6217Z" fill="#0B5FFF"/>
<path fill-rule="evenodd" clip-rule="evenodd" d="M23.216 22.0693L20.7198 19.5732C20.5458 19.3991 20.2619 19.3991 20.0878 19.5732L19.4098 20.2512C19.2358 20.4252 19.2358 20.7092 19.4098 20.8832L21.906 23.3793C22.2662 23.7396 22.8557 23.7396 23.216 23.3793C23.5763 23.0191 23.5763 22.4296 23.216 22.0693Z" fill="#3D4A75"/>
<path fill-rule="evenodd" clip-rule="evenodd" d="M19.6044 20.0567L19.4098 20.2512C19.2358 20.4253 19.2358 20.7092 19.4098 20.8833L21.906 23.3794C22.2167 23.69 22.6978 23.7328 23.0553 23.5077L19.6044 20.0567Z" fill="#323E66"/>
<path d="M17.4046 17.9373C18.9421 16.3998 18.9421 13.9069 17.4046 12.3694C15.867 10.8319 13.3742 10.8319 11.8367 12.3694C10.2991 13.9069 10.2991 16.3998 11.8367 17.9373C13.3742 19.4748 15.867 19.4748 17.4046 17.9373Z" fill="#2A93FC"/>
<path d="M17.7698 17.9373C19.3073 16.3998 19.3073 13.907 17.7698 12.3694C16.2323 10.8319 13.7394 10.8319 12.2019 12.3694C10.6644 13.907 10.6644 16.3998 12.2019 17.9373C13.7394 19.4749 16.2323 19.4749 17.7698 17.9373Z" fill="#F3F3FF"/>
<path fill-rule="evenodd" clip-rule="evenodd" d="M14.9902 13.7055C16.2688 13.7055 17.4162 14.2657 18.2012 15.1539C17.4162 16.042 16.2688 16.6023 14.9902 16.6023C13.7117 16.6023 12.5643 16.042 11.7793 15.1539C12.5643 14.2657 13.7117 13.7055 14.9902 13.7055Z" fill="#4EB1FC"/>
<path d="M15.2115 16.5495C15.9815 16.4246 16.5045 15.6992 16.3797 14.9292C16.2549 14.1592 15.5295 13.6362 14.7594 13.761C13.9894 13.8859 13.4664 14.6113 13.5912 15.3813C13.7161 16.1513 14.4415 16.6743 15.2115 16.5495Z" fill="#004CBD"/>
<path fill-rule="evenodd" clip-rule="evenodd" d="M14.8067 16.5545C14.1135 16.4643 13.5781 15.8716 13.5781 15.1538C13.5781 14.436 14.1135 13.8433 14.8067 13.7532C15.4999 13.8433 16.0352 14.436 16.0352 15.1538C16.0352 15.8716 15.4999 16.4643 14.8067 16.5545Z" fill="#0062D9"/>
<path fill-rule="evenodd" clip-rule="evenodd" d="M14.6035 13.7948C14.8787 13.9052 15.073 14.1744 15.073 14.4891C15.073 14.9021 14.7382 15.2368 14.3252 15.2368C14.0105 15.2368 13.7413 15.0425 13.6309 14.7673C13.7641 14.2979 14.134 13.928 14.6034 13.7947L14.6035 13.7948Z" fill="#B6DBFF"/>
<path fill-rule="evenodd" clip-rule="evenodd" d="M14.4916 13.832C14.6045 13.9392 14.6749 14.0906 14.6749 14.2585C14.6749 14.5833 14.4116 14.8466 14.0868 14.8466C13.9208 14.8466 13.7709 14.7778 13.6641 14.6672C13.8052 14.2827 14.1088 13.9766 14.4916 13.832Z" fill="#F3F3FF"/>
</g>
<defs>
<clipPath id="clip0_226_719">
<rect width="24" height="24" fill="white"/>
</clipPath>
</defs>
</svg>
