<svg width="24" height="24" viewBox="0 0 24 24" fill="none" xmlns="http://www.w3.org/2000/svg">
<g clip-path="url(#clip0_230_1864)">
<path d="M20.5358 12.8119H18.6797C18.8689 13.3299 18.9722 13.8889 18.9722 14.4715V21.4863C18.9722 21.7292 18.93 21.9624 18.853 22.1792H21.9215C23.0678 22.1792 24.0002 21.2467 24.0002 20.1005V16.2764C24.0003 14.3661 22.4461 12.8119 20.5358 12.8119Z" fill="#0B5FFF"/>
<path d="M5.02806 14.4715C5.02806 13.8889 5.13142 13.3299 5.3206 12.812H3.46454C1.55419 12.812 0 14.3661 0 16.2765V20.1006C0 21.2468 0.932486 22.1793 2.07872 22.1793H5.14726C5.07034 21.9624 5.02806 21.7293 5.02806 21.4864V14.4715Z" fill="#0B5FFF"/>
<path d="M14.1218 11.007H9.8786C7.96825 11.007 6.41406 12.5612 6.41406 14.4715V21.4864C6.41406 21.869 6.72428 22.1793 7.10697 22.1793H16.8935C17.2761 22.1793 17.5864 21.8691 17.5864 21.4864V14.4715C17.5864 12.5612 16.0322 11.007 14.1218 11.007Z" fill="#0B5FFF"/>
<path d="M12.0005 1.82063C9.70308 1.82063 7.83398 3.68972 7.83398 5.98721C7.83398 7.54557 8.6941 8.90659 9.96432 9.62116C10.5668 9.96006 11.2614 10.1538 12.0005 10.1538C12.7397 10.1538 13.4342 9.96006 14.0367 9.62116C15.307 8.90659 16.1671 7.54553 16.1671 5.98721C16.1671 3.68977 14.298 1.82063 12.0005 1.82063Z" fill="#0B5FFF"/>
<path d="M4.68438 5.70419C2.96617 5.70419 1.56836 7.102 1.56836 8.82021C1.56836 10.5384 2.96617 11.9362 4.68438 11.9362C5.12023 11.9362 5.53526 11.8459 5.91227 11.6837C6.56412 11.403 7.10159 10.9062 7.43417 10.284C7.66761 9.84724 7.8004 9.34901 7.8004 8.82021C7.8004 7.10205 6.40259 5.70419 4.68438 5.70419Z" fill="#0B5FFF"/>
<path d="M19.3172 5.70419C17.599 5.70419 16.2012 7.102 16.2012 8.82021C16.2012 9.34905 16.334 9.84729 16.5674 10.284C16.9 10.9063 17.4375 11.4031 18.0893 11.6837C18.4663 11.8459 18.8813 11.9362 19.3172 11.9362C21.0354 11.9362 22.4332 10.5384 22.4332 8.82021C22.4332 7.102 21.0354 5.70419 19.3172 5.70419Z" fill="#0B5FFF"/>
</g>
<defs>
<clipPath id="clip0_230_1864">
<rect width="24" height="24" fill="white"/>
</clipPath>
</defs>
</svg>
