<svg width="32" height="32" viewBox="0 0 32 32" fill="none" xmlns="http://www.w3.org/2000/svg">
<g clip-path="url(#clip0_128_7004)">
<path fill-rule="evenodd" clip-rule="evenodd" d="M27.7207 20.6815C27.4576 26.9634 22.2838 31.976 15.9373 31.976C9.42244 31.976 4.14118 26.5172 4.14118 20.1799C4.14118 19.3329 4.126 17.64 5.39608 14.7838C6.15618 13.0745 6.63292 12.0007 6.90197 11.0191C7.04979 10.4797 7.33729 9.62256 8.15687 11.0191C8.64013 11.8426 8.65883 13.027 8.65883 13.027C8.65883 13.027 10.4569 11.6472 11.6706 9.0113C13.4499 5.14708 12.0302 2.83718 11.5451 1.2309C11.3772 0.675234 11.2718 -0.323417 12.4235 0.101493C13.5971 0.53456 16.6997 2.70642 18.3216 4.99561C20.6362 8.26275 21.4588 11.3956 21.4588 11.3956C21.4588 11.3956 22.2 10.4758 22.4627 9.51326C22.7595 8.42639 22.7639 7.34993 23.7175 8.50946C24.6244 9.61215 25.9713 11.6844 26.7294 13.6544C28.1059 17.232 27.7207 20.6815 27.7207 20.6815Z" fill="url(#paint0_linear_128_7004)"/>
<path fill-rule="evenodd" clip-rule="evenodd" d="M15.9373 31.976C11.4323 31.976 7.7804 28.3241 7.7804 23.8191C7.7804 21.1009 8.8758 19.4506 11.1556 17.2126C12.6153 15.7796 13.9815 14.0196 14.5621 12.8212C14.6765 12.5852 14.9366 11.3558 15.9396 12.7953C16.4658 13.5503 17.2907 14.8929 17.8196 16.0387C18.7314 18.0143 18.949 19.9289 18.949 19.9289C18.949 19.9289 19.8426 19.4024 20.4549 18.0466C20.6523 17.6096 21.0514 15.9554 22.167 17.6094C22.9855 18.8231 24.1101 21.0054 24.0941 23.8191C24.0941 28.3241 20.4421 31.976 15.9373 31.976Z" fill="#FC9502"/>
<path fill-rule="evenodd" clip-rule="evenodd" d="M16.0627 23.0664C17.2235 23.0664 17.2235 25.2159 18.698 28.086C19.6799 29.9971 18.2113 31.9762 16.0627 31.9762C13.9142 31.9762 12.8 30.2345 12.8 28.086C12.8 25.9376 14.9019 23.0664 16.0627 23.0664Z" fill="#FCE202"/>
</g>
<defs>
<linearGradient id="paint0_linear_128_7004" x1="15.955" y1="31.9996" x2="15.955" y2="0.023187" gradientUnits="userSpaceOnUse">
<stop stop-color="#FF4C0D"/>
<stop offset="1" stop-color="#FC9502"/>
</linearGradient>
<clipPath id="clip0_128_7004">
<rect width="32" height="32" fill="white"/>
</clipPath>
</defs>
</svg>
