<svg width="24" height="24" viewBox="0 0 24 24" fill="none" xmlns="http://www.w3.org/2000/svg">
<path fill-rule="evenodd" clip-rule="evenodd" d="M14.1505 23.7188C15.3439 21.9539 15.4539 20.0478 14.4804 18.0003C14.2097 19.0988 13.7145 19.7654 12.9948 20.0004C13.6632 18.0917 13.1047 16.0296 11.3194 13.814C11.2808 16.1023 10.731 17.7691 9.66965 18.8147C8.20762 20.2536 8.22483 21.8775 9.72122 23.6865C3.50944 20.3807 2.63306 15.9471 7.092 10.3857C7.36856 11.7292 8.03873 12.5541 9.10261 12.8603C7.94297 7.93931 9.16308 3.7463 12.7629 0.28125C12.785 7.97095 15.1431 8.65444 18.1245 12.087C21.3435 16.2061 19.4518 20.9598 14.1505 23.7188Z" fill="#F5F5F5"/>
</svg>
