<svg width="60" height="60" viewBox="0 0 60 60" fill="none" xmlns="http://www.w3.org/2000/svg">
<rect width="60" height="60" rx="12" fill="url(#paint0_linear_68_128)"/>
<path d="M29.9938 16C21.1749 16.0409 14 23.2489 14 32.0674C14 34.7455 14.6714 37.3856 15.9412 39.7251V35.4771C15.9412 34.6942 16.2198 33.968 16.7083 33.345C16.6679 32.9214 16.647 32.495 16.647 32.0674C16.647 24.7016 22.6398 18.6813 29.9938 18.6471C37.36 18.6812 43.3527 24.7016 43.3527 32.0674C43.3527 32.5409 43.3265 33.0128 43.2769 33.4815C43.7015 34.073 43.9412 34.7509 43.9412 35.4771V39.9405C45.2878 37.5486 46.0001 34.8278 46.0001 32.0674C46 23.2489 38.8251 16.0409 29.9938 16Z" fill="#F5F5F5"/>
<path d="M16.9271 34.7913C16.8595 35.0127 16.8235 35.2421 16.8235 35.4773V39.5715V41.4772C16.8235 43.3289 19.0288 44.8302 21.7495 44.8302H23.8235V32.1244H21.7495C19.3743 32.1244 17.3924 33.2684 16.9271 34.7913Z" fill="#F5F5F5"/>
<path d="M43.0587 41.4772V39.5049V35.4773C43.0587 35.3328 43.0437 35.1905 43.0176 35.0508C42.7097 33.4005 40.6409 32.1244 38.1328 32.1244H36.0587V44.8301H38.1328C40.8534 44.8301 43.0587 43.3289 43.0587 41.4772Z" fill="#F5F5F5"/>
<defs>
<linearGradient id="paint0_linear_68_128" x1="60" y1="30" x2="0" y2="30" gradientUnits="userSpaceOnUse">
<stop stop-color="#F96345"/>
<stop offset="1" stop-color="#FAA696"/>
</linearGradient>
</defs>
</svg>
