<svg width="24" height="24" viewBox="0 0 24 24" fill="none" xmlns="http://www.w3.org/2000/svg">
<g clip-path="url(#clip0_282_25551)">
<path d="M12 0C8.41202 0.00440625 5.50441 2.91197 5.5 6.50002V10.5C5.5 10.7761 5.72388 11 6.00002 11H8.00003C8.27617 11 8.50005 10.7761 8.50005 10.5V6.50002C8.5 4.56698 10.067 3 12 3C13.933 3 15.5 4.56698 15.5 6.50002V10.5C15.5 10.7761 15.7239 11 16 11H18C18.2762 11 18.5 10.7761 18.5 10.5V6.50002C18.4956 2.91197 15.588 0.00440625 12 0Z" fill="#455A64"/>
<path d="M5.99998 10H18C19.3807 10 20.5 11.1193 20.5 12.5V21.5C20.5 22.8807 19.3807 24 18 24H5.99998C4.61928 24 3.5 22.8807 3.5 21.5V12.5C3.5 11.1193 4.61928 10 5.99998 10Z" fill="#FFC107"/>
<path d="M14.5 15.5001C14.5058 14.1194 13.3913 12.9953 12.0106 12.9895C10.6299 12.9837 9.50583 14.0983 9.50002 15.479C9.49599 16.4333 10.0357 17.3067 10.891 17.73L10.505 20.43C10.4663 20.7035 10.6566 20.9564 10.93 20.9951C10.9532 20.9984 10.9766 21 11 21H13C13.2761 21.0029 13.5023 20.7813 13.505 20.5051C13.5053 20.4797 13.5036 20.4542 13.5 20.4291L13.1139 17.7291C13.9588 17.3062 14.4945 16.4447 14.5 15.5001Z" fill="#455A64"/>
</g>
<defs>
<clipPath id="clip0_282_25551">
<rect width="24" height="24" fill="white"/>
</clipPath>
</defs>
</svg>
