<svg width="48" height="48" viewBox="0 0 48 48" fill="none" xmlns="http://www.w3.org/2000/svg">
<path d="M41.3369 39.5875C45.0168 39.5875 48 35.5322 48 30.5296C48 25.5271 45.0168 21.4717 41.3369 21.4717C37.657 21.4717 34.6738 25.5271 34.6738 30.5296C34.6738 35.5322 37.657 39.5875 41.3369 39.5875Z" fill="#67B0FF"/>
<path d="M12.2659 45.5739C17.7026 45.5739 22.11 39.6326 22.11 32.3035C22.11 24.9745 17.7026 19.0332 12.2659 19.0332C6.82909 19.0332 2.42172 24.9745 2.42172 32.3035C2.42172 39.6326 6.82909 45.5739 12.2659 45.5739Z" fill="#51518E"/>
<path d="M13.3252 32.5652C13.3252 37.568 10.3428 41.6231 6.6631 41.6231C5.23345 41.6231 3.91034 41.0117 2.82517 39.968C1.11621 38.3304 0 35.6252 0 32.5652C0 29.3883 1.2031 26.5942 3.02276 24.9773C4.06862 24.0462 5.31931 23.5083 6.66207 23.5083C7.33748 23.51 8.00586 23.6468 8.62759 23.9107C11.3514 25.0517 13.3252 28.4945 13.3252 32.5652Z" fill="#67B0FF"/>
<path d="M43.9893 23.2416L38.1321 21.243C38.1321 21.243 38.2428 7.26509 23.2759 7.26509C11.4497 7.26509 9.10345 18.9847 8.63897 23.9099C8.51586 25.2196 8.52517 26.0492 8.52517 26.0492C8.52517 26.0492 11.9452 34.0085 7.96552 39.5865C7.96552 39.5865 5.89655 41.4589 2.8231 39.9703C1.11621 38.3306 0 35.6254 0 32.5654C0 29.3885 1.2031 26.5944 3.02276 24.9775C4.05517 17.0461 8.02138 2.42578 23.249 2.42578C44.1424 2.42578 43.9893 23.2416 43.9893 23.2416Z" fill="#9DCDFF"/>
<path d="M34.6748 44.0876C40.1116 44.0876 44.519 38.1462 44.519 30.8172C44.519 23.4882 40.1116 17.5469 34.6748 17.5469C29.2381 17.5469 24.8307 23.4882 24.8307 30.8172C24.8307 38.1462 29.2381 44.0876 34.6748 44.0876Z" fill="#51518E"/>
<path d="M32.5872 38.2646C34.8428 38.2646 36.6714 34.9304 36.6714 30.8174C36.6714 26.7044 34.8428 23.3701 32.5872 23.3701C30.3316 23.3701 28.5031 26.7044 28.5031 30.8174C28.5031 34.9304 30.3316 38.2646 32.5872 38.2646Z" fill="#3E3E7A"/>
</svg>
