<svg width="48" height="48" viewBox="0 0 48 48" fill="none" xmlns="http://www.w3.org/2000/svg">
<g clip-path="url(#clip0_116_3340)">
<path d="M23.2565 7.57527H23.2649L38.2602 3.55326C39.1445 3.32036 40.0505 3.84549 40.2878 4.72841L42.4232 12.7061L43.3914 16.3228V16.3312L47.9429 33.2963C48.1799 34.1781 47.6577 35.0855 46.7759 35.3236L37.6479 37.765L23.2565 7.57527Z" fill="#F3D55B"/>
<path d="M9.33669 4.41377C9.72597 4.15267 10.2094 4.07394 10.6609 4.19845L42.6381 12.7639C43.5199 13.002 44.0421 13.9094 43.8052 14.7912L35.2397 46.7684C35.0017 47.6502 34.0942 48.1725 33.212 47.9355L1.23482 39.37C0.353004 39.132 -0.169202 38.2246 0.0680978 37.3424L6.95344 11.6382L9.33669 4.41377Z" fill="#F9EAB0"/>
<path d="M37.4278 18.6233C37.3553 18.6236 37.2835 18.6141 37.2136 18.5954L25.442 15.4446C25.0007 15.3264 24.7385 14.8726 24.8572 14.431C24.9754 13.9893 25.4292 13.7275 25.8708 13.8458L37.642 17.0006C38.0434 17.1079 38.3027 17.4961 38.2488 17.9077C38.1946 18.3193 37.8438 18.6273 37.4285 18.6277L37.4278 18.6233Z" fill="#802F34"/>
<path d="M36.1417 23.4233C36.0695 23.4233 35.9974 23.4138 35.9274 23.3951L27.9248 21.2539C27.6381 21.1789 27.4132 20.9558 27.3359 20.6695C27.2587 20.3831 27.3407 20.0773 27.5505 19.8679C27.7604 19.6584 28.0665 19.5771 28.3525 19.6551L36.3552 21.7963C36.7565 21.9036 37.0158 22.2914 36.962 22.7034C36.9078 23.115 36.5569 23.423 36.1417 23.4233Z" fill="#802F34"/>
<path d="M34.86 28.2233C34.7871 28.2233 34.715 28.2138 34.6447 28.1951L24.6891 25.5229C24.2474 25.4043 23.986 24.9502 24.1042 24.5085C24.2229 24.0673 24.677 23.8054 25.1186 23.9241L35.0742 26.5963C35.4756 26.7036 35.7348 27.0917 35.6806 27.5037C35.6264 27.9157 35.2753 28.2233 34.86 28.2233Z" fill="#802F34"/>
<path d="M10.391 26.8046C10.3185 26.805 10.246 26.7955 10.1761 26.7768L7.77599 26.1338C7.33471 26.0151 7.07288 25.561 7.19153 25.1194C7.30981 24.6781 7.7639 24.4163 8.20554 24.5349L10.6056 25.1776C11.0066 25.2853 11.2663 25.6734 11.2121 26.0854C11.1579 26.497 10.8067 26.805 10.391 26.8046Z" fill="#802F34"/>
<path d="M33.5719 33.0156C33.4998 33.0156 33.4276 33.0061 33.3577 32.9874L14.9725 28.0576C14.5308 27.9393 14.269 27.4852 14.3873 27.0435C14.5056 26.6023 14.9597 26.3401 15.4013 26.4587L33.7865 31.3841C34.1875 31.4918 34.4472 31.8796 34.393 32.2916C34.3388 32.7032 33.9883 33.0112 33.573 33.0112L33.5719 33.0156Z" fill="#802F34"/>
<path d="M9.10524 31.6003C9.03274 31.6006 8.96059 31.5911 8.89065 31.5721L6.49092 30.9301C6.04928 30.8118 5.78745 30.3577 5.90573 29.9161C6.02401 29.4748 6.4781 29.2126 6.91938 29.3313L9.31947 29.9732C9.72083 30.0809 9.9801 30.4691 9.9259 30.881C9.87171 31.2927 9.52052 31.6006 9.10524 31.6003Z" fill="#802F34"/>
<path d="M32.2877 37.8123C32.2152 37.8123 32.1434 37.8027 32.0735 37.7841L13.6872 32.8575C13.4015 32.781 13.1785 32.558 13.102 32.2723C13.0258 31.9867 13.1075 31.6817 13.3166 31.4729C13.5257 31.2638 13.8304 31.1822 14.116 31.2587L32.5012 36.1852C32.9022 36.2925 33.1618 36.6807 33.1076 37.0923C33.0538 37.5039 32.703 37.8119 32.2877 37.8123Z" fill="#802F34"/>
<path d="M23.9764 25.0288L18.5229 23.208L23.207 18.5239L25.0274 23.9778C25.1252 24.2759 25.0465 24.604 24.8246 24.8259C24.6026 25.0478 24.2749 25.1262 23.9764 25.0288Z" fill="#BDC3C7"/>
<path d="M7.99604 3.31319L3.31194 7.99729L0.970071 5.65506C-0.323357 4.36163 -0.323357 2.26475 0.970071 0.971323C2.2635 -0.322472 4.36074 -0.322472 5.65417 0.971323L7.99604 3.31319Z" fill="#FB7B76"/>
<path d="M23.207 18.524L21.4525 20.2785V20.2869L20.2854 21.4536H20.2774L18.5229 23.2081L5.65417 10.3394L7.41671 8.5849L8.5838 7.41817L10.3383 5.65527L23.207 18.524Z" fill="#E64C3C"/>
<path d="M3.31262 7.99709L7.99636 3.31299L10.3382 5.65522L5.65449 10.339L3.31262 7.99709Z" fill="#BDC3C7"/>
<path d="M11.505 11.5063C11.3476 11.6593 11.137 11.7454 10.9176 11.7461C10.7005 11.745 10.4925 11.659 10.3383 11.5063L7.41675 8.58469L8.58384 7.41797L11.505 10.3392C11.8258 10.6622 11.8258 11.1833 11.505 11.5063Z" fill="#C03A2B"/>
<path d="M21.4525 20.2783V20.2867L20.2854 21.4535H20.2773L12.672 13.8482C12.4618 13.6383 12.3798 13.3322 12.4567 13.0454C12.5336 12.7587 12.7577 12.5346 13.0445 12.4581C13.3312 12.3812 13.637 12.4632 13.8472 12.673L21.4525 20.2783Z" fill="#C03A2B"/>
</g>
<defs>
<clipPath id="clip0_116_3340">
<rect width="48" height="48" fill="white"/>
</clipPath>
</defs>
</svg>
