<svg width="24" height="24" viewBox="0 0 24 24" fill="none" xmlns="http://www.w3.org/2000/svg">
<g clip-path="url(#clip0_109_1835)">
<path d="M6.72967 17.2784C6.58787 17.138 6.5867 16.9092 6.72714 16.7674L8.33284 15.1457C8.47323 15.0038 8.70198 15.0028 8.84378 15.1432C8.98557 15.2835 8.98674 15.5123 8.84631 15.6541L7.2406 17.2759C7.10035 17.4175 6.8716 17.4188 6.72967 17.2784Z" fill="#E4EAF8"/>
<path d="M8.37285 15.6235C4.80346 12.0541 4.80346 6.24635 8.3728 2.67705C11.9422 -0.892342 17.75 -0.892342 21.3193 2.677C24.8886 6.24635 24.8886 12.0541 21.3192 15.6235C17.7499 19.1928 11.9422 19.1928 8.37285 15.6235Z" fill="#54A0FF"/>
<path d="M9.33627 15.6236C5.76688 12.0542 5.76688 6.24649 9.33623 2.6772C10.9986 1.01473 13.1466 0.12701 15.3277 0.013057C12.8256 -0.117584 10.2797 0.770182 8.3728 2.67715C4.80346 6.24649 4.80346 12.0542 8.37285 15.6236C10.2798 17.5305 12.8257 18.4183 15.3277 18.2876C13.1466 18.1737 10.9986 17.286 9.33627 15.6236Z" fill="#338DEF"/>
<path d="M14.8459 16.7041C10.6796 16.7041 7.30225 13.3266 7.30225 9.16039C7.30225 4.99414 10.6796 1.6167 14.8459 1.6167C19.0122 1.6167 22.3895 4.99414 22.3895 9.16034C22.3895 13.3265 19.0121 16.7041 14.8459 16.7041Z" fill="#ACD6FC"/>
<path d="M8.26562 9.16034C8.26562 5.156 11.3859 1.88089 15.3276 1.63245C15.1682 1.62242 15.0077 1.6167 14.8459 1.6167C10.6796 1.6167 7.30225 4.99414 7.30225 9.16034C7.30225 13.4956 10.9559 16.9639 15.3276 16.6883C11.3859 16.4398 8.26562 13.1648 8.26562 9.16034Z" fill="#8AC2FF"/>
<path d="M1.11384 23.7213L0.299289 22.9068C-0.0945547 22.5129 -0.0945547 21.8684 0.299289 21.4746L5.64599 16.1279C5.86466 15.9092 6.22246 15.9092 6.44113 16.1279L7.85202 17.5388C8.07069 17.7574 8.07069 18.1152 7.85202 18.3339L2.46445 23.7213C2.09305 24.0927 1.48523 24.0927 1.11384 23.7213Z" fill="#FF6B6B"/>
<path d="M0.892668 22.2435L6.4235 16.7127C6.54246 16.5937 6.70142 16.5384 6.85817 16.5453L6.45218 16.1393C6.22737 15.9145 5.8595 15.9145 5.63468 16.1393L0.31934 21.4547C-0.0856133 21.8596 -0.0856133 22.5222 0.31934 22.9272L0.619809 23.2277C0.536746 22.8857 0.62698 22.5092 0.892668 22.2435Z" fill="#EE5253"/>
<path d="M3.36472 18.4091L5.5708 20.6152L6.59499 19.591L4.38891 17.385L3.36472 18.4091Z" fill="#EE5253"/>
<path d="M4.38894 17.385L3.36475 18.4092L4.04582 19.0902L5.07001 18.0661L4.38894 17.385Z" fill="#D83941"/>
<path d="M11.9591 16.1599V8.26758H9.5565C9.34162 8.26758 9.16748 8.44177 9.16748 8.65659V14.1588C9.92587 15.0242 10.8794 15.7134 11.9591 16.1599Z" fill="#576574"/>
<path d="M14.7506 16.7287V5.52637H13.3548C13.3548 5.52637 12.7609 5.52637 12.3479 5.52637C12.133 5.52637 11.959 5.70055 11.959 5.91538V16.1602C12.8208 16.5166 13.7627 16.7177 14.7506 16.7287Z" fill="#15BA8B"/>
<path d="M17.5426 16.2287V5.87636V2.78467H16.1468H15.14C14.9251 2.78467 14.751 2.95886 14.751 3.17373V5.8764V16.7287C15.727 16.7393 16.6607 16.5683 17.5426 16.2287Z" fill="#FECA57"/>
<path d="M20.3341 14.3481V0.421391C20.3341 0.212422 20.1647 0.0429688 19.9557 0.0429688H18.9383C18.9383 0.0429688 18.3444 0.0429688 17.9314 0.0429688C17.7165 0.0429688 17.5425 0.217156 17.5425 0.432031V16.2287C18.6119 15.817 19.5641 15.1692 20.3341 14.3481Z" fill="#EE5253"/>
<path d="M10.1316 8.60845C10.1316 8.46159 10.213 8.33386 10.3331 8.26758H9.5565C9.34162 8.26758 9.16748 8.44177 9.16748 8.65659V14.1588C9.46087 14.4936 9.78379 14.8016 10.1316 15.0798V8.60845Z" fill="#3E4B5A"/>
<path d="M12.9236 5.81901C12.9236 5.7022 12.9753 5.59766 13.0568 5.52637C12.8499 5.52637 12.5726 5.52637 12.3484 5.52637C12.1335 5.52637 11.9595 5.70055 11.9595 5.91543V16.1602C12.2709 16.2891 12.5929 16.3972 12.9236 16.4838L12.9236 5.81901Z" fill="#11AA7B"/>
<path d="M15.7151 5.87645V3.07731C15.7151 2.9605 15.7668 2.85596 15.8483 2.78467H15.14C14.9251 2.78467 14.751 2.95886 14.751 3.17373V5.8764V16.7287C15.0747 16.7323 15.3725 16.7193 15.7151 16.6794V5.87645Z" fill="#F4B537"/>
<path d="M18.5066 0.335609C18.5066 0.218797 18.5583 0.114266 18.6398 0.0429688C18.4329 0.0429688 18.1556 0.0429688 17.9314 0.0429688C17.7165 0.0429688 17.5425 0.217109 17.5425 0.431984V16.2286C17.8759 16.1002 18.1979 15.9489 18.5066 15.7766L18.5066 0.335609Z" fill="#D83941"/>
</g>
<defs>
<clipPath id="clip0_109_1835">
<rect width="24" height="24" fill="white"/>
</clipPath>
</defs>
</svg>
