<svg width="16" height="16" viewBox="0 0 16 16" fill="none" xmlns="http://www.w3.org/2000/svg">
<path d="M13.3327 5.33335H11.3327V2.66669H1.99935C1.26602 2.66669 0.666016 3.26669 0.666016 4.00002V11.3334H1.99935C1.99935 12.44 2.89268 13.3334 3.99935 13.3334C5.10602 13.3334 5.99935 12.44 5.99935 11.3334H9.99935C9.99935 12.44 10.8927 13.3334 11.9993 13.3334C13.106 13.3334 13.9993 12.44 13.9993 11.3334H15.3327V8.00002L13.3327 5.33335ZM3.99935 12.3334C3.44602 12.3334 2.99935 11.8867 2.99935 11.3334C2.99935 10.78 3.44602 10.3334 3.99935 10.3334C4.55268 10.3334 4.99935 10.78 4.99935 11.3334C4.99935 11.8867 4.55268 12.3334 3.99935 12.3334ZM12.9993 6.33335L14.306 8.00002H11.3327V6.33335H12.9993ZM11.9993 12.3334C11.446 12.3334 10.9993 11.8867 10.9993 11.3334C10.9993 10.78 11.446 10.3334 11.9993 10.3334C12.5527 10.3334 12.9993 10.78 12.9993 11.3334C12.9993 11.8867 12.5527 12.3334 11.9993 12.3334Z" fill="#CC12C9"/>
</svg>
