<svg width="32" height="32" viewBox="0 0 32 32" fill="none" xmlns="http://www.w3.org/2000/svg">
<path d="M22.155 13.3901V12.9751C22.285 12.7501 22.605 12.0451 22.405 10.8251C22.24 9.78011 21.97 9.18511 21.835 8.9301C22.03 8.56511 22.39 7.57012 21.405 6.2101C17.6987 2.30117 3.18482 1.44735 2.28005 12.2352C2.01501 15.6901 3.49999 19.2401 6.165 21.5101C6.17498 21.5201 7.48 22.6751 5.98498 28.1901C5.94007 28.3418 6.06325 28.5122 6.22501 28.5051C6.225 28.5051 16.08 28.5051 16.08 28.5051C16.16 28.5051 16.235 28.4701 16.285 28.4051C16.33 28.3351 16.34 28.2551 16.315 28.1751C15.99 27.2251 15.61 25.5101 15.965 24.9601C16.034 24.8534 16.1321 24.8105 16.255 24.8001C17.81 25.0851 19.46 25.1401 19.545 25.1401C19.585 25.1451 20.54 25.3151 21.145 24.8051C21.465 24.5401 21.625 24.1501 21.625 23.6501C21.625 22.1851 22.345 21.1751 22.355 21.1651C22.439 21.0522 22.4007 20.8736 22.28 20.8051L20.925 20.0051L22.365 19.4351C22.49 19.3851 22.555 19.2451 22.505 19.1151C22.49 19.0701 22.12 18.0351 22.895 17.7251C23.25 17.5801 23.56 17.4601 23.81 17.3701C24.3165 17.1985 24.5115 16.5193 24.18 16.1001C24.18 16.1001 22.155 13.3901 22.155 13.3901Z" fill="#F5F5F5"/>
<path d="M25.0647 18.7946C24.8355 18.9486 24.7747 19.2594 24.929 19.4884C25.4167 20.1953 25.4166 21.2116 24.929 21.9184C24.5668 22.4601 25.3891 23.0188 25.7586 22.4764C26.4725 21.4416 26.4726 19.9652 25.7586 18.9303C25.6048 18.7013 25.2937 18.64 25.0647 18.7946Z" fill="#F5F5F5"/>
<path d="M27.2805 17.9167C26.9145 17.3768 26.0875 17.9295 26.4509 18.4748C27.3484 19.7774 27.3483 21.6294 26.4509 22.9321C26.2225 23.2496 26.4792 23.7221 26.8652 23.7111C27.0261 23.7111 27.1841 23.6337 27.2805 23.4902C28.4042 21.8592 28.4043 19.5478 27.2805 17.9167Z" fill="#F5F5F5"/>
<path d="M28.8465 16.8726C28.4821 16.3316 27.6538 16.8799 28.0144 17.4273C29.3234 19.3444 29.3232 22.0625 28.0144 23.9797C27.7883 24.2972 28.0447 24.7683 28.43 24.7571C28.5916 24.7571 28.7503 24.679 28.8465 24.5344C30.3783 22.2899 30.3784 19.1172 28.8465 16.8726Z" fill="#F5F5F5"/>
</svg>
