<svg width="100" height="100" viewBox="0 0 100 100" fill="none" xmlns="http://www.w3.org/2000/svg">
<g clip-path="url(#clip0_34_142)">
<path d="M14.8276 52.2931H10.0345C9.20976 52.2946 8.50156 52.8799 8.34486 53.6897L0.793132 92.4483C0.597187 93.4608 0.86468 94.5078 1.52225 95.3022C2.17982 96.0966 3.15843 96.555 4.18968 96.5517H41.3793C41.3793 98.4483 45.2414 100 50 100C54.7586 100 58.6207 98.4483 58.6207 96.5517H95.8104C96.8416 96.555 97.8202 96.0966 98.4778 95.3022C99.1354 94.5078 99.4029 93.4608 99.2069 92.4483L91.6552 53.6897C91.4985 52.8799 90.7903 52.2946 89.9655 52.2931H14.8276Z" fill="#AFC7FF"/>
<path d="M50 57.3103V89.6552C47.4776 88.5595 44.8487 87.7275 42.1552 87.1724C31.9167 84.9465 21.2701 85.4881 11.3104 88.7414C10.7379 88.916 10.1158 88.7838 9.66388 88.3914C9.21193 87.999 8.99369 87.4017 9.08624 86.8103L14.8276 52.2931L15.3104 49.3793C15.4339 48.6398 16.0178 48.063 16.7587 47.9483C17.9311 47.7759 19.138 47.6034 20.3449 47.4655C22.4517 51.561 26.6703 54.136 31.2759 54.1379C31.5862 54.1379 31.8793 54.1207 32.1724 54.1034C33.3205 54.0139 34.4514 53.7703 35.5345 53.3793C35.5381 53.4159 35.5499 53.4513 35.569 53.4828C36.8591 57.096 40.284 59.5059 44.1207 59.5C46.2812 59.5072 48.3706 58.729 50 57.3103Z" fill="#3C424E"/>
<path d="M88.6897 88.7414C78.7299 85.4881 68.0833 84.9465 57.8448 87.1724C55.1513 87.7275 52.5224 88.5596 50 89.6552V57.3104C50.3626 57.0139 50.6973 56.685 51 56.3276C52.7226 57.0128 54.5599 57.3638 56.4138 57.3621H56.5172C56.6068 58.5949 57.0767 59.7696 57.8621 60.7241C59.5356 62.3785 61.6274 63.5466 63.9138 64.1035C65.5728 64.6331 67.0528 65.6118 68.1897 66.931C69.2031 68.1866 70.9204 68.6282 72.4138 68.0172C73.7285 67.4494 74.5815 66.1562 74.5862 64.7241C74.588 64.3495 74.5298 63.9769 74.4138 63.6207C74.2414 63.0862 74.0517 62.5517 73.8276 62.0345C73.3952 60.9662 72.8274 59.958 72.1379 59.0345C75.5574 57.1852 77.9588 53.8904 78.6724 50.069C78.7241 50 78.7931 49.931 78.8448 49.8621C79.4349 49.168 79.9173 48.3892 80.2759 47.5517C81.2759 47.6724 82.2586 47.7931 83.2414 47.9483C83.9823 48.063 84.5661 48.6399 84.6897 49.3793L85.1724 52.2931L90.9138 86.8103C91.0063 87.4017 90.7881 87.999 90.3361 88.3914C89.8842 88.7838 89.2621 88.916 88.6897 88.7414Z" fill="#585858"/>
<path d="M58.6207 96.5517C58.6207 98.4483 54.7586 100 50 100C45.2414 100 41.3793 98.4483 41.3793 96.5517L42.1552 87.1724C44.8487 87.7276 47.4776 88.5596 50 89.6552C52.5225 88.5596 55.1514 87.7276 57.8448 87.1724L58.6207 96.5517Z" fill="#0B5FFF"/>
<path d="M81.0345 43.9483C81.0329 45.1889 80.7746 46.4158 80.2759 47.5517C79.9173 48.3892 79.4349 49.168 78.8449 49.8621C78.7931 49.931 78.7242 50 78.6725 50.069C77.9588 53.8904 75.5574 57.1852 72.138 59.0345C72.8274 59.958 73.3953 60.9662 73.8276 62.0345C74.0518 62.5517 74.2414 63.0862 74.4138 63.6207C74.5299 63.977 74.5881 64.3495 74.5862 64.7241C74.5816 66.1562 73.7285 67.4494 72.4138 68.0173C70.9204 68.6282 69.2031 68.1866 68.1897 66.931C67.0528 65.6118 65.5729 64.6331 63.9138 64.1035C61.6275 63.5466 59.5356 62.3785 57.8621 60.7241C57.0767 59.7696 56.6068 58.5949 56.5173 57.3621H56.4138C54.56 57.3638 52.7227 57.0128 51 56.3276C50.6974 56.685 50.3626 57.0139 50 57.3104C48.3706 58.729 46.2812 59.5072 44.1207 59.5C40.2841 59.506 36.8591 57.0961 35.569 53.4828C35.5499 53.4513 35.5381 53.416 35.5345 53.3793C34.4514 53.7703 33.3205 54.0139 32.1725 54.1035C31.8794 54.1207 31.5862 54.1379 31.2759 54.1379C26.616 54.1347 22.3568 51.5024 20.2699 47.3359C18.1831 43.1694 18.6257 38.182 21.4138 34.4483C21.2065 33.8852 21.1014 33.2897 21.1035 32.6897C21.0931 30.1417 22.8828 27.9406 25.3794 27.431C25.3887 27.4217 25.4008 27.4156 25.4138 27.4138C25.3966 27.2069 25.3794 27 25.3794 26.7759C25.377 25.8196 25.5768 24.8737 25.9656 24C27.0656 21.4558 29.573 19.8091 32.3449 19.8104C33.3902 19.8054 34.4227 20.0414 35.3621 20.5C37.1976 17.4097 40.5264 15.5159 44.1207 15.5172C46.5869 15.5083 48.9693 16.4109 50.8104 18.0517C51.8673 16.3469 53.7897 15.3773 55.7889 15.5409C57.7881 15.7045 59.5274 16.9736 60.2931 18.8276C60.7855 18.7726 61.2805 18.7438 61.7759 18.7414C68.4562 18.7524 74.0155 23.8771 74.569 30.5345H74.6207C76.0413 30.5345 77.4034 31.1 78.4062 32.106C79.409 33.1121 79.9701 34.476 79.9656 35.8966C79.9622 36.8255 79.725 37.7386 79.2759 38.5517C80.4201 40.1183 81.036 42.0084 81.0345 43.9483Z" fill="#AFC7FF"/>
<path d="M50 5.17241C49.0478 5.17241 48.2759 4.40049 48.2759 3.44828V1.72414C48.2759 0.771923 49.0478 0 50 0C50.9522 0 51.7242 0.771923 51.7242 1.72414V3.44828C51.7242 4.40049 50.9522 5.17241 50 5.17241Z" fill="#AFC7FF"/>
<path d="M77.788 17.0397C77.0907 17.0395 76.4622 16.6194 76.1954 15.9753C75.9286 15.3311 76.0761 14.5896 76.569 14.0965L78.2931 12.3724C78.726 11.9242 79.3671 11.7445 79.9699 11.9022C80.5727 12.06 81.0435 12.5308 81.2012 13.1336C81.359 13.7364 81.1793 14.3775 80.7311 14.8103L79.0069 16.5345C78.6837 16.8578 78.2452 17.0396 77.788 17.0397Z" fill="#AFC7FF"/>
<path d="M22.2121 17.0397C21.7549 17.0396 21.3164 16.8578 20.9932 16.5345L19.269 14.8103C18.8208 14.3775 18.6411 13.7364 18.7988 13.1336C18.9566 12.5308 19.4274 12.06 20.0302 11.9022C20.633 11.7445 21.2741 11.9242 21.7069 12.3724L23.4311 14.0965C23.924 14.5896 24.0715 15.3311 23.8047 15.9753C23.5379 16.6194 22.9094 17.0395 22.2121 17.0397Z" fill="#AFC7FF"/>
<path d="M35.4845 9.78448C34.7872 9.78466 34.1585 9.36481 33.8914 8.72069L31.9121 3.94138C31.6605 3.36952 31.7379 2.70627 32.1144 2.20773C32.491 1.70919 33.1078 1.45338 33.7267 1.53908C34.3456 1.62478 34.8697 2.03858 35.0966 2.62069L37.0776 7.4C37.2534 7.8227 37.2539 8.29797 37.0789 8.72101C36.9039 9.14405 36.5679 9.48013 36.1449 9.65517C35.9352 9.74063 35.7109 9.78454 35.4845 9.78448Z" fill="#AFC7FF"/>
<path d="M64.5156 9.78448C64.289 9.784 64.0648 9.73949 63.8552 9.65345C63.4326 9.4784 63.0969 9.1426 62.922 8.71997C62.747 8.29733 62.7472 7.8225 62.9224 7.4L64.9035 2.62069C65.1304 2.03858 65.6545 1.62478 66.2734 1.53908C66.8923 1.45338 67.5091 1.70919 67.8856 2.20773C68.2622 2.70627 68.3396 3.36952 68.088 3.94138L66.1087 8.72069C65.8416 9.36481 65.2128 9.78466 64.5156 9.78448Z" fill="#AFC7FF"/>
<path d="M85.0432 30.3138C84.2187 30.3163 83.5078 29.7347 83.3469 28.9261C83.186 28.1175 83.6202 27.3081 84.3828 26.9948L89.1621 25.0155C89.7313 24.7799 90.3829 24.8658 90.8715 25.2409C91.3602 25.616 91.6116 26.2233 91.531 26.834C91.4505 27.4448 91.0503 27.9661 90.4811 28.2017L85.7035 30.181C85.4943 30.2683 85.2699 30.3134 85.0432 30.3138Z" fill="#AFC7FF"/>
<path d="M14.9569 30.3138C14.7302 30.3134 14.5058 30.2683 14.2966 30.181L9.51898 28.2017C8.94982 27.9661 8.54959 27.4448 8.46905 26.834C8.38852 26.2233 8.63991 25.616 9.12853 25.2409C9.61716 24.8658 10.2688 24.7799 10.8379 25.0155L15.6173 26.9948C16.3799 27.3081 16.814 28.1175 16.6532 28.9261C16.4923 29.7347 15.7814 30.3163 14.9569 30.3138Z" fill="#AFC7FF"/>
<path d="M78.8448 49.8621C78.7931 49.931 78.7241 50 78.6724 50.069C78.3686 51.7294 77.7355 53.3122 76.8103 54.7241C75.9075 54.9804 74.973 55.1081 74.0345 55.1034C72.3258 55.0986 70.6424 54.691 69.1207 53.9138C68.4004 53.5283 67.724 53.0659 67.1034 52.5345C66.4158 52.8008 65.6857 52.941 64.9483 52.9483C62.6709 52.96 60.5848 51.6763 59.569 49.6379C59.2918 49.0866 59.3298 48.4293 59.6686 47.9136C60.0074 47.3979 60.5957 47.1022 61.2117 47.1378C61.8277 47.1734 62.378 47.5349 62.6552 48.0862C62.9957 48.7399 63.599 49.2173 64.3135 49.3984C65.028 49.5795 65.7858 49.4471 66.3965 49.0345C67.0861 48.5638 67.499 47.7832 67.5 46.9483C67.5025 46.5486 67.4141 46.1536 67.2414 45.7931C66.8942 44.9594 67.2492 43.9991 68.0551 43.5917C68.861 43.1842 69.8447 43.4676 70.3103 44.2414C70.7296 45.0822 70.948 46.0088 70.9483 46.9483C70.9343 48.153 70.5556 49.3252 69.8621 50.3103C70.1379 50.5 70.4138 50.6897 70.6897 50.8448C71.7242 51.3773 72.8709 51.6552 74.0345 51.6552C75.8031 51.665 77.5142 51.0272 78.8448 49.8621Z" fill="#FF5364"/>
<path d="M57.7586 43.0931C59.9922 41.5542 61.5281 39.196 62.0328 36.531C62.1611 35.9209 61.9501 35.289 61.4809 34.8785C61.0117 34.4679 60.3574 34.3427 59.7698 34.5509C59.1821 34.7591 58.7526 35.2684 58.6466 35.8828C58.3085 37.661 57.2825 39.2341 55.7914 40.2603C52.9229 42.1923 49.0757 41.7538 46.7155 39.2259C46.0733 38.5212 44.9814 38.4707 44.2767 39.1129C43.5721 39.7552 43.5215 40.8471 44.1638 41.5517C45.6264 43.1666 47.5594 44.2811 49.6897 44.7379C48.7237 46.0956 47.1593 46.9003 45.4931 46.8966C44.5409 46.8966 43.769 47.6685 43.769 48.6207C43.769 49.5729 44.5409 50.3448 45.4931 50.3448C49.0623 50.3591 52.2649 48.1546 53.5259 44.8155C55.0472 44.5627 56.4931 43.9743 57.7586 43.0931Z" fill="#FF5364"/>
<path d="M73.8276 62.0345C72.5602 62.6812 71.1986 63.1235 69.7931 63.3448C69.7019 63.3592 69.6095 63.3649 69.5172 63.3621C68.6092 63.3705 67.8503 62.6731 67.782 61.7676C67.7138 60.8621 68.3596 60.0589 69.2586 59.931C70.2582 59.7797 71.2291 59.4774 72.1379 59.0345C72.8273 59.958 73.3952 60.9662 73.8276 62.0345Z" fill="#FF5364"/>
<path d="M35.4138 50C35.3268 50.4838 35.2806 50.974 35.2759 51.4655C35.2724 52.1124 35.3594 52.7566 35.5345 53.3793C34.4513 53.7703 33.3205 54.0139 32.1724 54.1034C31.9517 53.2588 31.8359 52.3902 31.8276 51.5172C28.7906 51.186 26.4885 48.624 26.4828 45.569C26.477 44.6087 27.2467 43.8236 28.2069 43.8103C28.662 43.8076 29.0995 43.986 29.423 44.3062C29.7464 44.6264 29.9292 45.0621 29.931 45.5172V45.569C29.9568 46.9314 31.0353 48.0401 32.3966 48.1034C32.6349 47.3258 32.9648 46.5792 33.3793 45.8793C33.6108 45.4839 33.9921 45.1988 34.4368 45.0884C34.8815 44.9781 35.3519 45.0519 35.7414 45.2931C36.5521 45.7942 36.8127 46.852 36.3276 47.6724C35.8898 48.3891 35.5805 49.1768 35.4138 50Z" fill="#FF5364"/>
<path d="M61.0518 60.0862C60.0158 60.4176 58.9459 60.6316 57.8621 60.7241C57.0767 59.7696 56.6068 58.5949 56.5173 57.3621C56.6841 57.3652 56.851 57.3595 57.0173 57.3448C58.0412 57.2799 59.0539 57.0947 60.0345 56.7931C60.6292 56.5891 61.2877 56.725 61.7531 57.1476C62.2184 57.5703 62.4169 58.2127 62.271 58.8242C62.125 59.4357 61.6578 59.9193 61.0518 60.0862Z" fill="#FF5364"/>
<path d="M46.2069 29.3103C46.2069 28.3581 45.435 27.5862 44.4828 27.5862C40.1046 27.5909 36.5565 31.139 36.5518 35.5172C36.5518 36.4694 37.3237 37.2414 38.2759 37.2414C39.2281 37.2414 40 36.4694 40 35.5172C40 34.3283 40.4723 33.1881 41.313 32.3474C42.1537 31.5068 43.2939 31.0345 44.4828 31.0345C45.435 31.0345 46.2069 30.2626 46.2069 29.3103Z" fill="#FF5364"/>
<path d="M23.7035 39.0052C23.3903 39.0055 23.0831 38.9196 22.8155 38.7569C21.3938 37.899 20.3181 36.5695 19.7759 35C19.5136 34.2538 19.3801 33.4685 19.381 32.6776C19.381 28.7701 22.5426 25.5993 26.45 25.5879C28.689 25.5794 30.7969 26.6426 32.1207 28.4483C32.4881 28.9429 32.5638 29.596 32.3191 30.1615C32.0745 30.727 31.5467 31.1191 30.9346 31.1899C30.3226 31.2608 29.7192 30.9998 29.3517 30.5052C28.676 29.5831 27.6001 29.0397 26.4569 29.0431C24.825 29.0523 23.3983 30.1456 22.965 31.7189C22.5317 33.2923 23.1977 34.9619 24.5948 35.8052C25.2592 36.2046 25.5753 36.9984 25.3673 37.7452C25.1594 38.492 24.4787 39.0082 23.7035 39.0069V39.0052Z" fill="#FF5364"/>
<path d="M60.7017 22.6052C59.7495 22.6052 58.9776 21.8332 58.9776 20.881C58.9776 18.878 57.3539 17.2543 55.3509 17.2543C53.3479 17.2543 51.7242 18.878 51.7242 20.881C51.7242 21.8332 50.9522 22.6052 50 22.6052C49.0478 22.6052 48.2759 21.8332 48.2759 20.881C48.2759 16.9736 51.4435 13.806 55.3509 13.806C59.2583 13.806 62.4259 16.9736 62.4259 20.881C62.4259 21.3383 62.2442 21.7768 61.9209 22.1002C61.5976 22.4235 61.159 22.6052 60.7017 22.6052Z" fill="#FF5364"/>
<path d="M76.8742 42.4845C76.0736 42.4766 75.3838 41.9188 75.2087 41.1376C75.0335 40.3565 75.4191 39.5575 76.1397 39.2086C76.8268 38.8858 77.3971 38.3582 77.7724 37.6983C78.6496 36.2035 78.3444 34.2968 77.0446 33.1504C75.7448 32.004 73.8149 31.9395 72.4414 32.9966C71.6796 33.5679 70.5989 33.4135 70.0276 32.6517C69.4563 31.89 69.6107 30.8093 70.3724 30.2379C71.579 29.3245 73.0488 28.8261 74.5621 28.8172C77.8931 28.7946 80.7904 31.0946 81.5241 34.344C82.2577 37.5933 80.6297 40.9151 77.6121 42.3259C77.3811 42.4333 77.1289 42.4875 76.8742 42.4845Z" fill="#FF5364"/>
</g>
<defs>
<clipPath id="clip0_34_142">
<rect width="100" height="100" fill="white"/>
</clipPath>
</defs>
</svg>
