<svg width="24" height="24" viewBox="0 0 24 24" fill="none" xmlns="http://www.w3.org/2000/svg">
<path d="M11.9997 5.50233C10.852 5.50236 9.72933 5.83724 8.76922 6.46593C7.8091 7.09462 7.05329 7.98979 6.59443 9.0417C6.13557 10.0936 5.99361 11.2566 6.18596 12.388C6.3783 13.5194 6.89658 14.5701 7.67727 15.4112L7.06729 17.6869C7.03122 17.8213 7.03582 17.9633 7.08048 18.095C7.12515 18.2268 7.20788 18.3423 7.31822 18.427C7.42856 18.5117 7.56154 18.5617 7.70034 18.5709C7.83914 18.58 7.97752 18.5477 8.09798 18.4781L10.4844 17.1C11.2953 17.3156 12.1428 17.3556 12.9704 17.2175C13.798 17.0794 14.5866 16.7663 15.2835 16.2991C15.9805 15.832 16.5697 15.2215 17.0119 14.5084C17.4541 13.7954 17.739 12.9962 17.8477 12.1642C17.9564 11.3322 17.8864 10.4867 17.6422 9.68394C17.3981 8.88122 16.9854 8.13983 16.4319 7.50928C15.8784 6.87874 15.1967 6.37355 14.4324 6.02746C13.6681 5.68137 12.8387 5.50234 11.9997 5.50233Z" fill="#2EC4B6"/>
<path d="M12 5.50233V17.2965C13.564 17.2965 15.064 16.6752 16.1699 15.5693C17.2758 14.4634 17.8971 12.9634 17.8971 11.3994C17.8971 9.83542 17.2758 8.33547 16.1699 7.22955C15.064 6.12363 13.564 5.50233 12 5.50233Z" fill="#2AB5A4"/>
<path d="M23.6156 11.9003C23.6232 11.6134 23.6311 11.3167 23.618 11.0059C23.5791 10.1412 23.207 9.32517 22.5798 8.72869C21.9526 8.13222 21.1189 7.80161 20.2533 7.80614C18.8631 4.62558 15.6871 2.39705 12 2.39705C8.31276 2.39705 5.13684 4.62558 3.74672 7.80614C2.88093 7.80149 2.04697 8.13222 1.41968 8.72897C0.792397 9.32572 0.420505 10.1422 0.381982 11.0071C0.368904 11.3165 0.376826 11.6134 0.384466 11.9003C0.392576 12.205 0.400966 12.5202 0.385966 12.8735C0.349238 13.7596 0.665216 14.6241 1.26468 15.2777C1.86415 15.9313 2.69823 16.3206 3.5842 16.3605C3.63323 16.3625 3.68214 16.3636 3.73092 16.3636C4.15458 16.3639 4.57438 16.2832 4.96776 16.1259C5.06775 16.0948 5.15951 16.0416 5.23633 15.9704C5.31315 15.8992 5.3731 15.8118 5.4118 15.7145C5.45049 15.6171 5.46695 15.5124 5.45998 15.4079C5.45301 15.3034 5.42278 15.2018 5.3715 15.1104C4.73678 13.9766 4.40361 12.6989 4.40386 11.3994C4.40386 7.21097 7.81167 3.80335 12 3.80335C16.1882 3.80335 19.596 7.21116 19.596 11.3994C19.6013 13.1724 18.9841 14.8909 17.852 16.2555C16.72 17.62 15.145 18.5439 13.4015 18.8661C13.2179 18.4504 12.8948 18.1119 12.4882 17.9091C12.0815 17.7064 11.6167 17.6521 11.1742 17.7556C10.7318 17.8592 10.3394 18.114 10.0649 18.4762C9.79039 18.8384 9.65106 19.2851 9.67098 19.7391C9.69089 20.1931 9.8688 20.6258 10.1739 20.9626C10.4791 21.2993 10.8923 21.5189 11.3421 21.5833C11.792 21.6477 12.2502 21.5529 12.6376 21.3153C13.0249 21.0777 13.3171 20.7122 13.4636 20.2821C14.7021 20.0773 15.8841 19.6162 16.9341 18.9282C17.984 18.2402 18.8787 17.3406 19.5609 16.2869C19.7936 16.3377 20.031 16.3634 20.2692 16.3636C20.3181 16.3636 20.3671 16.3625 20.4162 16.3605C21.302 16.3205 22.1359 15.9311 22.7353 15.2776C23.3346 14.6241 23.6505 13.7597 23.6139 12.8738C23.599 12.5203 23.6073 12.2051 23.6156 11.9003Z" fill="#2EA8E6"/>
<path d="M23.6153 11.9003C23.623 11.6134 23.6309 11.3167 23.6178 11.0059C23.578 10.1199 23.1886 9.28587 22.5349 8.68649C21.8813 8.08711 21.0167 7.77131 20.1306 7.80829C19.9773 7.81526 19.8247 7.83249 19.6737 7.85985C19.5726 7.87783 19.4767 7.91772 19.3927 7.97671C19.3087 8.03571 19.2387 8.11239 19.1874 8.20136C19.1362 8.29033 19.1051 8.38943 19.0963 8.49171C19.0875 8.59398 19.1012 8.69695 19.1364 8.79337C19.5107 9.82107 19.6591 10.9174 19.5713 12.0076C19.4836 13.0979 19.1618 14.1564 18.6278 15.1109C18.5767 15.2023 18.5465 15.3039 18.5396 15.4083C18.5327 15.5128 18.5492 15.6175 18.5879 15.7147C18.6267 15.812 18.6866 15.8994 18.7634 15.9705C18.8402 16.0417 18.9319 16.0948 19.0319 16.1259C19.4253 16.2832 19.8452 16.3639 20.2689 16.3636C20.3178 16.3636 20.3669 16.3625 20.416 16.3604C21.3018 16.3205 22.1357 15.9311 22.735 15.2776C23.3344 14.6241 23.6503 13.7597 23.6137 12.8737C23.5987 12.5203 23.6071 12.2051 23.6153 11.9003Z" fill="#176F93"/>
<path d="M19.1428 8.81396C19.1405 8.80711 19.139 8.79989 19.1365 8.79319C19.1013 8.69677 19.0876 8.5938 19.0964 8.49152C19.1053 8.38925 19.1364 8.29015 19.1876 8.20118C19.2388 8.11221 19.3089 8.03553 19.3929 7.97653C19.4769 7.91754 19.5728 7.87765 19.6739 7.85967C19.8248 7.83231 19.9774 7.81508 20.1307 7.80811C20.1718 7.80633 20.2125 7.80624 20.2532 7.80595C18.8631 4.62558 15.6872 2.3971 12 2.39705V3.8033C15.2813 3.80335 18.0828 5.89453 19.1428 8.81396Z" fill="#1794C6"/>
<path d="M5.3715 15.1104C4.83771 14.1559 4.51601 13.0974 4.42833 12.0072C4.34065 10.9171 4.48905 9.82081 4.86342 8.79319C4.89864 8.69677 4.91232 8.5938 4.9035 8.49153C4.89468 8.38925 4.86358 8.29015 4.81237 8.20118C4.76116 8.11221 4.69108 8.03553 4.60708 7.97654C4.52307 7.91754 4.42716 7.87765 4.32609 7.85968C4.17462 7.83225 4.02148 7.81502 3.8677 7.80811C2.98159 7.77138 2.11707 8.0875 1.46366 8.68716C0.810247 9.28682 0.421263 10.1211 0.381982 11.0071C0.368904 11.3165 0.376826 11.6134 0.384466 11.9003C0.392576 12.205 0.400966 12.5202 0.385966 12.8735C0.349238 13.7596 0.665216 14.6241 1.26468 15.2777C1.86415 15.9313 2.69823 16.3206 3.5842 16.3605C3.63323 16.3626 3.68214 16.3636 3.73092 16.3636C4.15458 16.3639 4.57438 16.2832 4.96776 16.1259C5.06775 16.0948 5.15951 16.0416 5.23633 15.9704C5.31315 15.8993 5.3731 15.8118 5.4118 15.7145C5.45049 15.6171 5.46696 15.5124 5.45998 15.4079C5.45301 15.3034 5.42278 15.2018 5.3715 15.1104Z" fill="#176F93"/>
<path d="M4.40342 11.3994C4.4024 10.5104 4.5579 9.62819 4.8628 8.79313C4.89802 8.69671 4.9117 8.59374 4.90288 8.49147C4.89406 8.38919 4.86295 8.29009 4.81174 8.20112C4.76053 8.11215 4.69046 8.03548 4.60645 7.97648C4.52244 7.91748 4.42654 7.87759 4.32547 7.85962C4.174 7.83219 4.02086 7.81497 3.86708 7.80806C3.67657 7.80016 3.48574 7.80851 3.29665 7.83304C2.81535 8.55921 2.5459 9.40512 2.51853 10.2759C2.50395 10.6736 2.51276 11.0547 2.5213 11.4233C2.53034 11.8147 2.53972 12.2195 2.52298 12.6732C2.46762 14.1717 3.08909 15.5266 4.07436 16.3453C4.38073 16.3138 4.68125 16.2399 4.96733 16.1258C5.06731 16.0946 5.15907 16.0415 5.23589 15.9703C5.31272 15.8991 5.37267 15.8116 5.41136 15.7143C5.45006 15.617 5.46652 15.5122 5.45955 15.4077C5.45257 15.3032 5.42234 15.2016 5.37106 15.1103C4.73638 13.9765 4.40321 12.6988 4.40342 11.3994Z" fill="#0D647F"/>
<path d="M19.5964 11.3994C19.5974 10.5104 19.4419 9.62819 19.137 8.79314C19.1018 8.69671 19.0881 8.59375 19.0969 8.49147C19.1057 8.38919 19.1368 8.29009 19.1881 8.20112C19.2393 8.11215 19.3093 8.03548 19.3933 7.97648C19.4773 7.91748 19.5733 7.87759 19.6743 7.85962C19.8258 7.83219 19.979 7.81497 20.1328 7.80806C20.3233 7.80016 20.5141 7.80851 20.7031 7.83304C21.1844 8.55921 21.4539 9.40512 21.4813 10.2759C21.4958 10.6736 21.487 11.0547 21.4785 11.4233C21.4695 11.8147 21.4601 12.2195 21.4768 12.6732C21.5325 14.1715 20.9111 15.5264 19.9259 16.3453C19.6195 16.3137 19.3189 16.2399 19.0328 16.1257C18.9329 16.0946 18.8411 16.0414 18.7643 15.9702C18.6875 15.8991 18.6275 15.8116 18.5888 15.7143C18.5501 15.6169 18.5336 15.5122 18.5406 15.4077C18.5476 15.3032 18.5778 15.2016 18.6291 15.1102C19.2637 13.9764 19.5967 12.6987 19.5964 11.3994Z" fill="#0D647F"/>
<path d="M9.65791 12.1025C9.47143 12.1027 9.29251 12.0288 9.16052 11.897C9.02853 11.7653 8.95428 11.5865 8.9541 11.4001C8.95392 11.2136 9.02783 11.0347 9.15956 10.9027C9.2913 10.7707 9.47007 10.6964 9.65655 10.6963H9.65791C9.84439 10.6963 10.0232 10.7703 10.1551 10.9022C10.287 11.0341 10.361 11.2129 10.361 11.3994C10.361 11.5859 10.287 11.7647 10.1551 11.8966C10.0232 12.0284 9.84439 12.1025 9.65791 12.1025Z" fill="#E6E9F2"/>
<path d="M12 12.1025C11.9768 12.1026 11.9537 12.1014 11.9306 12.0991C11.9078 12.0969 11.8851 12.0935 11.8627 12.0889C11.8402 12.0842 11.8177 12.0786 11.7956 12.072C11.7737 12.0653 11.7521 12.0575 11.7309 12.0486C11.7096 12.04 11.6888 12.0303 11.6686 12.0195C11.6484 12.0087 11.6288 11.9965 11.6095 11.9838C11.5904 11.9712 11.572 11.9576 11.5542 11.9431C11.5364 11.9286 11.5191 11.9126 11.5027 11.8967C11.4863 11.8808 11.4708 11.8629 11.4563 11.8451C11.4417 11.8274 11.4281 11.8089 11.4155 11.7898C11.4028 11.7706 11.3906 11.7509 11.3798 11.7308C11.3691 11.7106 11.3597 11.6895 11.3508 11.6684C11.3419 11.6473 11.334 11.6257 11.3273 11.6037C11.3208 11.5816 11.3152 11.5591 11.3105 11.5366C11.3058 11.5141 11.3025 11.4912 11.3002 11.4687C11.2979 11.4457 11.2968 11.4225 11.2969 11.3993C11.2968 11.3763 11.2979 11.3533 11.3002 11.3304C11.3025 11.3075 11.3063 11.2845 11.3105 11.262C11.3147 11.2395 11.3208 11.217 11.3273 11.1954C11.334 11.1733 11.3418 11.1516 11.3508 11.1303C11.3597 11.1092 11.3695 11.0886 11.3798 11.0684C11.3907 11.048 11.4026 11.0281 11.4155 11.0089C11.4281 10.9901 11.4417 10.9714 11.4563 10.9536C11.4708 10.9358 11.4867 10.9184 11.5027 10.902C11.5186 10.8856 11.5364 10.8706 11.5542 10.8556C11.572 10.8416 11.5903 10.8275 11.6095 10.8149C11.6288 10.8022 11.6484 10.7905 11.6686 10.7797C11.6888 10.7689 11.7098 10.7591 11.7309 10.7502C11.7521 10.7414 11.7737 10.7337 11.7956 10.7272C11.8397 10.7138 11.8849 10.7047 11.9306 10.7C11.9766 10.6953 12.0229 10.6953 12.0689 10.7C12.0919 10.702 12.1148 10.7055 12.1373 10.7103C12.1599 10.7145 12.1821 10.7201 12.2039 10.7272C12.226 10.7337 12.2477 10.7414 12.2691 10.7502C12.2902 10.7591 12.3108 10.7689 12.3309 10.7797C12.3512 10.7904 12.3709 10.8021 12.39 10.8149C12.4092 10.8275 12.428 10.8416 12.4458 10.8556C12.4636 10.8706 12.4809 10.8861 12.4969 10.902C12.5128 10.9179 12.5288 10.9358 12.5438 10.9536C12.5578 10.9714 12.5719 10.9901 12.5845 11.0089C12.5972 11.0281 12.609 11.048 12.6197 11.0684C12.6305 11.0886 12.6403 11.1092 12.6492 11.1303C12.6581 11.1514 12.6656 11.1734 12.6727 11.1954C12.6797 11.2175 12.6848 11.2395 12.6895 11.262C12.6942 11.2845 12.6975 11.3075 12.6998 11.3304C12.7022 11.3534 12.7031 11.3764 12.7031 11.3993C12.7031 11.4223 12.7017 11.4458 12.6998 11.4687C12.698 11.4917 12.6938 11.5141 12.6895 11.5366C12.6853 11.5591 12.6792 11.5816 12.6727 11.6037C12.6661 11.6258 12.6581 11.6473 12.6492 11.6684C12.6403 11.6895 12.6305 11.7106 12.6197 11.7308C12.6089 11.7509 12.5972 11.7706 12.5845 11.7898C12.5719 11.809 12.5578 11.8273 12.5438 11.8451C12.5288 11.8629 12.5133 11.8803 12.4969 11.8967C12.4805 11.9131 12.4636 11.9286 12.4458 11.9431C12.4279 11.9576 12.4093 11.9712 12.39 11.9838C12.3709 11.9967 12.3512 12.0086 12.3309 12.0195C12.3109 12.0303 12.2902 12.04 12.2691 12.0486C12.2478 12.0575 12.226 12.0653 12.2039 12.072C12.1823 12.0786 12.1598 12.0842 12.1373 12.0889C12.1147 12.0935 12.0919 12.0969 12.0689 12.0991C12.046 12.1014 12.023 12.1026 12 12.1025Z" fill="#E6E9F2"/>
<path d="M12.6896 11.262C12.6849 11.2395 12.6793 11.217 12.6727 11.1954C12.6661 11.1739 12.6582 11.1514 12.6493 11.1303C12.6404 11.1092 12.6305 11.0886 12.6197 11.0684C12.609 11.048 12.5973 11.0281 12.5846 11.0089C12.5719 10.9901 12.5579 10.9714 12.5438 10.9536C12.5288 10.9358 12.5133 10.9184 12.4969 10.902C12.4805 10.8856 12.4636 10.8706 12.4458 10.8556C12.428 10.8416 12.4093 10.8275 12.39 10.8149C12.371 10.8021 12.3513 10.7904 12.331 10.7797C12.3108 10.7689 12.2902 10.7591 12.2691 10.7502C12.2478 10.7414 12.226 10.7337 12.204 10.7272C12.1822 10.7201 12.1599 10.7145 12.1374 10.7103C12.1148 10.7055 12.092 10.702 12.069 10.7C12.046 10.6977 12.023 10.6965 12 10.6965V12.1025C12.023 12.1026 12.046 12.1015 12.0689 12.0992C12.0919 12.097 12.1147 12.0935 12.1373 12.0889C12.1598 12.0842 12.1823 12.0786 12.2039 12.072C12.226 12.0654 12.2478 12.0575 12.2691 12.0486C12.2902 12.0401 12.3109 12.0304 12.3309 12.0195C12.3512 12.0087 12.3709 11.9968 12.39 11.9839C12.4092 11.9712 12.428 11.9576 12.4458 11.9431C12.4636 11.9287 12.4809 11.9126 12.4969 11.8967C12.5128 11.8808 12.5288 11.8629 12.5438 11.8452C12.5578 11.8274 12.5719 11.8091 12.5845 11.7899C12.5972 11.7706 12.6089 11.751 12.6197 11.7308C12.6305 11.7106 12.6403 11.6895 12.6492 11.6685C12.6581 11.6474 12.6656 11.6253 12.6727 11.6038C12.6797 11.5822 12.6848 11.5592 12.6895 11.5367C12.6942 11.5142 12.6975 11.4913 12.6998 11.4688C12.7022 11.4463 12.7031 11.4224 12.7031 11.3994C12.7031 11.3764 12.7017 11.3535 12.6998 11.3305C12.698 11.3075 12.6937 11.2845 12.6896 11.262Z" fill="#CFD7E6"/>
<path d="M14.3434 12.1025C14.1569 12.1027 13.978 12.0288 13.8461 11.897C13.7141 11.7653 13.6398 11.5865 13.6396 11.4C13.6395 11.2136 13.7134 11.0346 13.8451 10.9027C13.9769 10.7707 14.1556 10.6964 14.3421 10.6963H14.3434C14.5299 10.6963 14.7088 10.7703 14.8406 10.9022C14.9725 11.0341 15.0466 11.2129 15.0466 11.3994C15.0466 11.5859 14.9725 11.7647 14.8406 11.8966C14.7088 12.0284 14.5299 12.1025 14.3434 12.1025Z" fill="#CFD7E6"/>
<path d="M12.0689 21.5425C13.1165 21.2949 13.765 20.2449 13.5174 19.1973C13.2697 18.1498 12.2198 17.5013 11.1722 17.7489C10.1246 17.9965 9.47613 19.0465 9.72376 20.0941C9.97139 21.1417 11.0214 21.7901 12.0689 21.5425Z" fill="#176F93"/>
<path d="M11.6191 17.704V21.6029C12.1362 21.6029 12.632 21.3976 12.9976 21.032C13.3632 20.6664 13.5686 20.1705 13.5686 19.6535C13.5686 19.1364 13.3632 18.6406 12.9976 18.275C12.632 17.9094 12.1362 17.704 11.6191 17.704Z" fill="#0D647F"/>
<path d="M19.032 16.1259C18.9395 16.0971 18.854 16.0495 18.7809 15.986C18.7077 15.9226 18.6484 15.8448 18.6067 15.7573C18.565 15.6699 18.5418 15.5748 18.5386 15.4781C18.5354 15.3813 18.5522 15.2848 18.588 15.1949C18.0418 16.1466 17.2949 16.968 16.3992 17.6019C15.5035 18.2359 14.4806 18.6673 13.4014 18.8661C13.5997 19.3134 13.6219 19.8192 13.4634 20.2822C14.7019 20.0774 15.884 19.6163 16.9339 18.9283C17.9839 18.2403 18.8786 17.3406 19.5607 16.2869C19.3804 16.2478 19.2035 16.194 19.032 16.1259Z" fill="#1794C6"/>
</svg>
