<svg width="32" height="32" viewBox="0 0 32 32" fill="none" xmlns="http://www.w3.org/2000/svg">
<path d="M22.5412 28.1412C18.4941 32.1882 11.0588 31.2471 5.88235 26.1176C0.752938 20.9412 -0.14118 13.4588 3.90588 9.45882L5.17647 8.18823L23.8588 26.8235L22.5412 28.1412Z" fill="#CC104A"/>
<path d="M23.7647 26.9177C19.7176 30.9648 12.2823 30.0236 7.10588 24.8942C1.92941 19.7177 1.03529 12.2824 5.08235 8.23534C9.12941 4.18828 16.5647 5.12946 21.6941 10.2589C23.2471 11.8118 24.4235 13.6 25.1765 15.3883C25.4118 16 25.6471 16.5648 25.7882 17.1765C26.8235 20.8471 26.1647 24.5177 23.7647 26.9177Z" fill="#F34B58"/>
<path d="M20.4706 11.5294C24.4706 15.5294 25.1765 21.3176 22.0706 24.4706C18.9647 27.6235 13.1294 26.8706 9.12942 22.8706C5.12942 18.8706 4.42353 13.0823 7.52942 9.92941C10.6353 6.77647 16.4706 7.52941 20.4706 11.5294Z" fill="white"/>
<path d="M19.2471 12.7529C22.1647 15.6706 22.6823 19.9059 20.4235 22.1647C18.1647 24.4235 13.9294 23.9529 11.0118 20.9882C8.09411 18.0706 7.57646 13.8353 9.83529 11.5765C12.0941 9.31764 16.3294 9.83529 19.2471 12.7529Z" fill="#F34B58"/>
<path d="M17.9294 14.0706C19.8118 15.953 20.1412 18.6353 18.6823 20.0941C17.2235 21.553 14.5412 21.2235 12.6588 19.3412C10.7765 17.4588 10.4471 14.7765 11.9059 13.3177C13.3647 11.8588 16.0941 12.1883 17.9294 14.0706Z" fill="white"/>
<path d="M16.7059 15.2941C17.6 16.1882 17.7882 17.5059 17.0824 18.2588C16.3294 18.9647 15.0118 18.8235 14.1176 17.8824C13.2235 16.9882 13.0353 15.6706 13.7412 14.9647C14.4471 14.2588 15.7647 14.4 16.7059 15.2941Z" fill="#F34B58"/>
<g opacity="0.2">
<path d="M25.8353 17.2235L15.6235 17.2706C14.4471 17.2706 14.4 15.4824 15.6235 15.4824L25.2235 15.4353C25.4588 16.0471 25.6471 16.6118 25.8353 17.2235Z" fill="#1D2943"/>
</g>
<path d="M8.18823 23.8118C6.9647 22.9176 5.97647 21.6941 5.27058 20.3765C4.5647 19.0118 4.14117 17.5059 4.18823 16C4.61176 17.4588 5.12941 18.8235 5.83529 20.0941C6.49411 21.3647 7.29411 22.5882 8.18823 23.8118Z" fill="white"/>
<path d="M28.2824 3.71766C28.6588 4.09413 28.6588 4.65883 28.2824 4.98824L16.2353 16.9882C15.9059 17.3177 15.3412 17.3177 14.9647 16.9882C14.6353 16.6588 14.6353 16.0941 14.9647 15.7177L27.0118 3.71766C27.3882 3.34119 27.9529 3.34119 28.2824 3.71766Z" fill="#1D2943"/>
<path d="M28.0941 5.12939L30.2118 5.74116C30.5882 5.83528 30.7294 6.30587 30.4471 6.58822L29.8824 7.15292C29.6471 7.38822 29.2706 7.48234 28.9412 7.38822L28.2353 7.19998L28.3765 7.34116C28.7529 7.71763 28.7529 8.32939 28.3765 8.70587L27.2 9.88234C26.9647 10.1176 26.5882 10.2117 26.2588 10.1176L23.8118 9.41175L28.0941 5.12939Z" fill="#FFD06C"/>
<path d="M26.8706 3.85881L26.2588 1.74117C26.1647 1.3647 25.6941 1.22352 25.4118 1.50587L23.7176 3.19999C23.4823 3.43529 23.3882 3.81176 23.4823 4.14117L23.6706 4.84705L23.2 4.37646C23.0118 4.18823 22.6823 4.18823 22.4941 4.37646L22.1176 4.79999C21.8823 5.03529 21.7882 5.41176 21.8823 5.74117L22.5882 8.14117L26.8706 3.85881Z" fill="#FFD06C"/>
<path d="M23.6235 7.90593C24.047 7.34122 24.5647 6.77652 25.0823 6.25887C25.3647 6.02358 26.2118 5.17652 25.8823 5.50593C26.1647 5.27064 26.447 5.03534 26.7294 4.80005C26.4941 5.0824 26.2588 5.36475 26.0235 5.64711C25.7882 5.92946 25.5059 6.16475 25.2706 6.44711C24.7529 6.96475 24.2353 7.43534 23.6235 7.90593Z" fill="white"/>
</svg>
