<svg width="24" height="25" viewBox="0 0 24 25" fill="none" xmlns="http://www.w3.org/2000/svg">
<g clip-path="url(#clip0_109_1876)">
<path d="M14.2746 24.2465H9.72556C9.28386 24.2465 8.92578 23.8884 8.92578 23.4467V18.769H15.0743V23.4467C15.0744 23.8884 14.7163 24.2465 14.2746 24.2465Z" fill="#84C9FE"/>
<path d="M13.6088 18.769V22.8754C13.6088 23.6327 12.995 24.2465 12.2378 24.2465H14.2747C14.7164 24.2465 15.0745 23.8884 15.0745 23.4467V18.769H13.6088Z" fill="#70B9E5"/>
<path d="M8.9877 19.3691H15.0054C15.507 19.3691 15.9421 19.0262 16.0631 18.5394C16.3679 17.3138 16.8404 16.1305 17.471 15.0237C17.9939 14.1063 18.2925 13.0446 18.2925 11.9131C18.2925 8.408 15.4267 5.57225 11.9104 5.62123C8.50625 5.66862 5.73444 8.45825 5.70772 11.8626C5.69881 13.0001 5.99169 14.0683 6.51115 14.9922C7.14134 16.1131 7.6205 17.3067 7.93076 18.5424C8.05259 19.0278 8.48726 19.3691 8.9877 19.3691Z" fill="#FEE570"/>
<path d="M11.9106 5.62123C11.694 5.62428 11.48 5.63848 11.269 5.66318C14.3983 6.02693 16.8272 8.68629 16.8272 11.9132C16.8272 13.0447 16.5285 14.1064 16.0057 15.0238C15.375 16.1306 14.9025 17.3139 14.5977 18.5395C14.4767 19.0263 14.0416 19.3692 13.54 19.3692H15.0056C15.5072 19.3692 15.9423 19.0263 16.0633 18.5395C16.3681 17.3139 16.8406 16.1306 17.4713 15.0238C17.9941 14.1064 18.2927 13.0447 18.2927 11.9132C18.2928 8.40804 15.4269 5.57225 11.9106 5.62123Z" fill="#FDBF00"/>
<path d="M12.0004 4.81771C11.7669 4.81771 11.5776 4.62843 11.5776 4.39495V1.17618C11.5776 0.942699 11.7669 0.753418 12.0004 0.753418C12.2339 0.753418 12.4232 0.942699 12.4232 1.17618V4.39495C12.4232 4.62843 12.2339 4.81771 12.0004 4.81771Z" fill="#FDBF00"/>
<path d="M3.64153 13.1761H0.422766C0.189281 13.1761 0 12.9868 0 12.7533C0 12.5198 0.189281 12.3306 0.422766 12.3306H3.64153C3.87502 12.3306 4.0643 12.5198 4.0643 12.7533C4.0643 12.9868 3.87502 13.1761 3.64153 13.1761Z" fill="#FDBF00"/>
<path d="M23.5771 13.1761H20.3583C20.1248 13.1761 19.9355 12.9868 19.9355 12.7533C19.9355 12.5198 20.1248 12.3306 20.3583 12.3306H23.5771C23.8106 12.3306 23.9998 12.5198 23.9998 12.7533C23.9998 12.9868 23.8106 13.1761 23.5771 13.1761Z" fill="#FDBF00"/>
<path d="M6.08992 7.26561C5.98173 7.26561 5.8735 7.22436 5.791 7.14177L3.51493 4.86571C3.34984 4.70061 3.34984 4.43291 3.51493 4.26786C3.68003 4.10277 3.94773 4.10277 4.11278 4.26786L6.38879 6.54388C6.55389 6.70897 6.55389 6.97668 6.38879 7.14172C6.30634 7.22432 6.19811 7.26561 6.08992 7.26561Z" fill="#FDBF00"/>
<path d="M20.1861 21.3627C20.0779 21.3627 19.9696 21.3215 19.8871 21.2389L17.6111 18.9629C17.446 18.7978 17.446 18.5301 17.6111 18.365C17.7762 18.1999 18.0439 18.1999 18.209 18.365L20.485 20.641C20.6501 20.8061 20.6501 21.0738 20.485 21.2389C20.4024 21.3214 20.2943 21.3627 20.1861 21.3627Z" fill="#FDBF00"/>
<path d="M3.81337 21.3622C3.70518 21.3622 3.59695 21.321 3.51445 21.2384C3.34935 21.0733 3.34935 20.8056 3.51445 20.6406L5.79046 18.3645C5.95555 18.1994 6.22326 18.1994 6.3883 18.3645C6.5534 18.5296 6.5534 18.7973 6.3883 18.9624L4.11229 21.2384C4.02979 21.3209 3.9216 21.3622 3.81337 21.3622Z" fill="#FDBF00"/>
<path d="M17.9105 7.26605C17.8023 7.26605 17.6941 7.2248 17.6116 7.14221C17.4465 6.97712 17.4465 6.70941 17.6116 6.54437L19.8876 4.26835C20.0527 4.10326 20.3204 4.10326 20.4855 4.26835C20.6506 4.43345 20.6506 4.70115 20.4855 4.8662L18.2095 7.14221C18.1269 7.2248 18.0187 7.26605 17.9105 7.26605Z" fill="#FDBF00"/>
<path d="M13.9354 14.7025H13.5375C13.304 14.7025 13.1147 14.5132 13.1147 14.2797C13.1147 14.0462 13.304 13.8569 13.5375 13.8569H13.9354C14.1689 13.8569 14.3582 14.0462 14.3582 14.2797C14.3582 14.5132 14.1688 14.7025 13.9354 14.7025Z" fill="#FDBF00"/>
<path d="M8.92578 22.7075V23.4467C8.92578 23.4828 8.92902 23.5182 8.93366 23.5531H15.0664C15.071 23.5182 15.0742 23.4828 15.0742 23.4467V22.7075H8.92578Z" fill="#9DD7FC"/>
<path d="M13.6091 22.8753C13.6091 23.1219 13.5436 23.3531 13.4297 23.5531H15.0668C15.0687 23.5386 15.0702 23.5239 15.0715 23.5093C15.0731 23.4886 15.0746 23.4678 15.0746 23.4467V22.7075H13.609L13.6091 22.8753Z" fill="#49BAED"/>
<path d="M15.075 19.7358H8.92627V20.5814H15.075V19.7358Z" fill="#9DD7FC"/>
<path d="M15.074 19.7358H13.6084V20.5814H15.074V19.7358Z" fill="#49BAED"/>
<path d="M15.075 21.2217H8.92627V22.0672H15.075V21.2217Z" fill="#9DD7FC"/>
<path d="M15.074 21.2217H13.6084V22.0672H15.074V21.2217Z" fill="#49BAED"/>
<path d="M10.0198 11.0868C9.73846 11.4458 9.52251 11.8542 9.38423 12.2889C9.34785 12.4032 9.23029 12.4706 9.11404 12.4408C8.44898 12.27 7.78401 12.0993 7.11899 11.9286C6.99351 11.8963 6.92123 11.7645 6.96126 11.6413C7.22479 10.8302 7.59787 10.1231 8.12019 9.44896C8.19951 9.34658 8.34904 9.33215 8.44635 9.41769C8.96198 9.87116 9.47755 10.3247 9.99318 10.7781C10.0833 10.8573 10.0938 10.9924 10.0198 11.0868Z" fill="#FEF3CA"/>
<path d="M11.8695 9.80375C11.4349 9.94203 11.0265 10.1579 10.6675 10.4392C10.5731 10.5133 10.4379 10.5027 10.3587 10.4126C9.90521 9.89699 9.45169 9.38141 8.99823 8.86578C8.91273 8.76857 8.92716 8.61899 9.02949 8.53963C9.7036 8.0173 10.4107 7.64422 11.2218 7.38069C11.3451 7.34066 11.4768 7.41294 11.5091 7.53843C11.6799 8.20349 11.8506 8.86846 12.0213 9.53347C12.0511 9.64982 11.9838 9.76743 11.8695 9.80375Z" fill="#FEF3CA"/>
<path d="M11.596 19.3692V14.7025H11.7745C12.008 14.7025 12.1973 14.5132 12.1973 14.2797C12.1973 14.0462 12.008 13.8569 11.7745 13.8569H11.1733C10.9398 13.8569 10.7505 14.0462 10.7505 14.2797V19.3692H11.596Z" fill="#FDBF00"/>
</g>
<defs>
<clipPath id="clip0_109_1876">
<rect width="24" height="24" fill="white" transform="translate(0 0.5)"/>
</clipPath>
</defs>
</svg>
