<svg width="32" height="32" viewBox="0 0 32 32" fill="none" xmlns="http://www.w3.org/2000/svg">
<g clip-path="url(#clip0_128_6984)">
<path d="M32 16C32 15.8056 31.9965 15.612 31.9897 15.4193C31.684 6.85175 24.6422 0 16 0C7.35781 0 0.316 6.85175 0.010375 15.4193C0.0035 15.612 0 15.8056 0 16C0 24.8366 8.21887 31.4194 16 31.4194C23.9221 31.4194 32 24.8366 32 16Z" fill="#FF5876"/>
<path d="M16 30.8383C7.35794 30.8383 0.317375 23.9864 0.011625 15.4189C0.0046875 15.6118 0 15.8051 0 15.9996C0 24.8362 7.16344 31.9996 16 31.9996C24.8366 31.9996 32 24.8362 32 15.9996C32 15.8051 31.9953 15.6118 31.9884 15.419C31.6826 23.9864 24.6421 30.8383 16 30.8383Z" fill="#E6485D"/>
<path d="M29.3387 15.4189C29.0347 8.31469 23.1791 2.64844 16 2.64844C8.82093 2.64844 2.9653 8.31469 2.6613 15.4189C2.65305 15.6114 2.66124 28.5014 16 28.5014C29.3387 28.5014 29.3469 15.6114 29.3387 15.4189Z" fill="#E4EEF9"/>
<path d="M16 28.1894C8.82099 28.1894 2.9663 22.5231 2.66218 15.4189C2.65393 15.6116 2.64886 15.8049 2.64886 15.9996C2.64886 23.3732 8.62636 29.3507 16 29.3507C23.3736 29.3507 29.3511 23.3733 29.3511 15.9996C29.3511 15.805 29.346 15.6116 29.3378 15.419C29.0337 22.5231 23.179 28.1894 16 28.1894Z" fill="#D5E0F2"/>
<path d="M20.8497 11.3159C20.4691 10.9406 19.8564 10.9447 19.4811 11.3252L17.2103 13.6276L17.4385 14.7236L18.4992 15.077L20.8591 12.6844C21.2344 12.3039 21.2302 11.6912 20.8497 11.3159Z" fill="#405B6C"/>
<path d="M14.6301 13.7156L9.48 9.12613C9.08094 8.77051 8.46925 8.80576 8.11369 9.20482C7.75813 9.60382 7.79331 10.2156 8.19238 10.5711L13.4439 15.251L14.5383 14.886L14.6301 13.7156Z" fill="#405B6C"/>
<path d="M22.8523 22.2395C22.7424 22.2395 22.632 22.2023 22.5413 22.1261L16.4117 16.9775C16.2071 16.8056 16.1805 16.5003 16.3524 16.2958C16.5243 16.0911 16.8294 16.0645 17.0341 16.2365L23.1637 21.3851C23.3683 21.557 23.3949 21.8623 23.223 22.0668C23.1273 22.1808 22.9903 22.2395 22.8523 22.2395Z" fill="#86DCFF"/>
<path d="M13.4439 15.2512L14.3477 16.0566L15.5083 15.6622L15.4454 14.4423L14.6302 13.7158C14.063 14.0566 13.6337 14.6027 13.4439 15.2512Z" fill="#2D4456"/>
<path d="M17.2102 13.627L16.4418 14.406V15.9351H17.6522L18.4992 15.0764C18.2664 14.4466 17.8022 13.9296 17.2102 13.627Z" fill="#2D4456"/>
<path d="M17.5489 15.4188C17.3138 14.7919 16.709 14.3457 16 14.3457C15.291 14.3457 14.6862 14.7919 14.4511 15.4188C14.3833 15.5995 14.4466 17.0726 16 17.0726C17.5534 17.0726 17.6167 15.5995 17.5489 15.4188Z" fill="#FF5876"/>
<path d="M16 16.4921C15.291 16.4921 14.6864 16.0458 14.4513 15.4189C14.3835 15.5996 14.3462 15.7952 14.3462 15.9996C14.3462 16.9129 15.0866 17.6533 15.9999 17.6533C16.9133 17.6533 17.6537 16.9129 17.6537 15.9996C17.6537 15.7952 17.6164 15.5996 17.5486 15.4189C17.3136 16.0458 16.709 16.4921 16 16.4921Z" fill="#E6485D"/>
<path d="M16.4848 5.84783V4.34614C16.4848 4.07839 16.2678 3.86133 16 3.86133C15.7323 3.86133 15.5152 4.07839 15.5152 4.34614V5.84783C15.5152 6.11558 15.7322 6.33264 16 6.33264C16.2678 6.33264 16.4848 6.11558 16.4848 5.84783Z" fill="#405B6C"/>
<path d="M15.5152 26.1508V27.6525C15.5152 27.9203 15.7322 28.1373 16 28.1373C16.2678 28.1373 16.4848 27.9203 16.4848 27.6525V26.1508C16.4848 25.8831 16.2678 25.666 16 25.666C15.7323 25.666 15.5152 25.8831 15.5152 26.1508Z" fill="#405B6C"/>
<path d="M27.6534 16.4843C27.9212 16.4843 28.1382 16.2672 28.1382 15.9995C28.1382 15.7317 27.9211 15.5146 27.6534 15.5146H26.1517C25.8839 15.5146 25.6669 15.7317 25.6669 15.9995C25.6669 16.2672 25.8839 16.4843 26.1517 16.4843H27.6534Z" fill="#405B6C"/>
<path d="M4.34663 15.5146C4.07882 15.5146 3.86182 15.7317 3.86182 15.9995C3.86182 16.2672 4.07882 16.4843 4.34663 16.4843H5.84832C6.11613 16.4843 6.33313 16.2672 6.33313 15.9995C6.33313 15.7317 6.11607 15.5146 5.84832 15.5146H4.34663Z" fill="#405B6C"/>
</g>
<defs>
<clipPath id="clip0_128_6984">
<rect width="32" height="32" fill="white"/>
</clipPath>
</defs>
</svg>
