<svg width="32" height="32" viewBox="0 0 32 32" fill="none" xmlns="http://www.w3.org/2000/svg">
<g clip-path="url(#clip0_68_176)">
<path d="M3.36775 9.06731C4.59901 10.9291 5.68006 13.1416 5.85053 13.522C5.89936 13.6317 5.97628 13.8905 6.06257 14.2071C6.66287 13.3588 7.39522 12.6577 8.27044 12.1431C9.51938 11.4092 10.9549 11.1068 12.5048 11.1795C12.1306 10.5854 11.7901 9.97368 11.6264 9.49761C11.206 8.27676 9.68202 3.23571 8.79065 1.08346C7.89977 -1.06879 4.50642 0.46291 2.53449 1.58399C0.562556 2.70508 0.451996 4.08656 0.652572 4.46707C0.852669 4.84748 2.13649 7.20556 3.36775 9.06731Z" fill="#F5F5F5"/>
<path d="M10.9289 16.004C13.5516 14.9229 14.1124 16.2343 14.1124 16.2343C14.9434 15.4635 14.3629 14.5524 14.3629 14.5524C14.3629 14.5524 14.5729 14.162 14.233 13.7613C14.025 13.5171 13.3551 12.6304 12.7688 11.699C11.219 11.6263 9.7834 11.9287 8.53446 12.6626C7.65925 13.1772 6.92689 13.8778 6.3266 14.7266C6.54017 15.5088 6.81413 16.6548 6.88533 16.8544C6.98566 17.1346 7.24548 17.515 7.48619 17.5649C7.72633 17.6148 7.86661 17.8451 7.86661 17.8451C8.17688 18.4756 9.14775 18.5155 9.14775 18.5155C9.14775 18.5155 8.30579 17.085 10.9289 16.004Z" fill="#F5F5F5"/>
<path d="M30.4978 21.5636C29.6943 20.9352 28.619 20.6332 27.7619 20.0771C25.5462 18.6395 28.4163 17.3152 29.3663 16.4586C30.9796 15.0043 31.4032 13.3287 30.7353 11.2939C30.5264 10.6572 30.0737 9.98568 30.2826 10.6218C31.4246 14.102 27.7957 15.7652 25.9526 17.7111C25.2739 18.4278 25.3674 19.2049 26.0727 19.9201C27.437 21.3036 31.5414 22.4714 28.9973 24.6222C27.2141 26.1294 24.4465 26.2645 22.4698 27.5374C22.2027 27.7094 22.1715 28.172 22.4402 28.3602C24.3815 29.7178 27.069 29.3909 28.9817 30.6237C25.6824 31.6164 22.2214 30.9688 18.8285 30.658C18.842 30.5618 18.83 30.4802 18.83 30.4802C18.3987 27.8373 18.355 27.2641 18.5551 25.9424C18.7552 24.6212 18.5551 24.5006 18.5551 24.5006C16.5131 21.6976 14.0323 16.404 14.0323 16.404C13.7017 15.8536 12.3904 15.6202 10.7688 16.3437C9.08688 17.0947 9.207 18.1254 9.207 18.1254L12.0604 26.537C12.1607 26.8072 12.6212 26.9372 12.6212 26.9372C15.2942 27.7079 17.473 30.4091 17.7635 30.8295C18.054 31.25 18.2641 31.0899 18.2641 31.0899L15.1467 24.1082C14.9086 24.0536 14.6659 23.8467 14.523 23.5401C14.3161 23.0957 14.3983 22.6196 14.7064 22.4761C15.0146 22.3327 15.432 22.5765 15.6389 23.0208C15.7948 23.3555 15.786 23.7079 15.641 23.9231L18.6129 30.6382C18.5912 30.6361 18.5693 30.634 18.5475 30.632C17.8843 30.5748 18.5803 31.4215 20.4435 31.6554C24.5963 32.1767 26.2205 32.1445 30.2225 31.2968C30.6332 31.21 30.6404 30.6856 30.3707 30.4106C28.5983 28.6019 26.0033 28.9875 23.8786 27.9995C26.5816 26.8614 33.9974 24.3005 30.4978 21.5636Z" fill="#F5F5F5"/>
</g>
<defs>
<clipPath id="clip0_68_176">
<rect width="32" height="32" fill="white"/>
</clipPath>
</defs>
</svg>
