<svg width="48" height="48" viewBox="0 0 48 48" fill="none" xmlns="http://www.w3.org/2000/svg">
<rect width="48" height="48" rx="8" fill="#111827"/>
<g clip-path="url(#clip0_226_1175)">
<path d="M26.3298 9.53113L27.6202 8.20538C27.9895 7.82588 28.632 7.998 28.7621 8.51138L29.2167 10.3047C29.6663 12.0786 31.491 13.1321 33.2521 12.6346L35.0325 12.1316C35.5421 11.9876 36.0124 12.4579 35.8684 12.9675L35.3654 14.7479C34.8678 16.509 35.9213 18.3336 37.6953 18.7833L39.4886 19.2379C40.002 19.368 40.1741 20.0104 39.7946 20.3798L38.4688 21.6701C37.1574 22.9466 37.1574 25.0534 38.4688 26.3298L39.7946 27.6201C40.1741 27.9895 40.002 28.6319 39.4886 28.7621L37.6953 29.2166C35.9213 29.6663 34.8679 31.4909 35.3654 33.2521L35.8684 35.0324C36.0124 35.5421 35.5421 36.0124 35.0325 35.8684L33.2521 35.3654C31.491 34.8678 29.6663 35.9213 29.2167 37.6953L28.7621 39.4886C28.632 40.0019 27.9895 40.1741 27.6202 39.7946L26.3298 38.4688C25.0534 37.1574 22.9465 37.1574 21.6702 38.4688L20.3798 39.7946C20.0105 40.1741 19.368 40.0019 19.2379 39.4886L18.7833 37.6953C18.3337 35.9213 16.509 34.8679 14.7479 35.3654L12.9675 35.8684C12.4579 36.0124 11.9876 35.5421 12.1316 35.0324L12.6346 33.2521C13.1322 31.4909 12.0787 29.6663 10.3047 29.2166L8.51141 28.7621C7.99804 28.6319 7.82591 27.9895 8.20541 27.6201L9.53116 26.3298C10.8426 25.0534 10.8426 22.9465 9.53116 21.6701L8.20535 20.3798C7.82585 20.0104 7.99797 19.368 8.51135 19.2379L10.3047 18.7833C12.0786 18.3336 13.132 16.509 12.6345 14.7479L12.1315 12.9675C11.9875 12.4579 12.4578 11.9876 12.9675 12.1316L14.7478 12.6346C16.509 13.1321 18.3336 12.0787 18.7833 10.3047L19.2378 8.51138C19.368 7.998 20.0104 7.82588 20.3798 8.20538L21.6701 9.53113C22.9465 10.8426 25.0534 10.8426 26.3298 9.53113Z" fill="#FFE177"/>
<path d="M38.4692 21.6701L39.7949 20.3798C40.1744 20.0104 40.0023 19.368 39.4889 19.2379L37.6956 18.7833C35.9217 18.3336 34.8682 16.509 35.3658 14.7479L35.8688 12.9675C36.0128 12.4579 35.5425 11.9876 35.0329 12.1316L33.2525 12.6346C33.0297 12.6975 32.8059 12.7354 32.5839 12.7504C33.5919 14.7475 34.1603 17.0043 34.1603 19.3941C34.1604 27.5288 27.529 34.1601 19.3944 34.1601C17.0045 34.1601 14.7477 33.5916 12.7507 32.5836C12.7357 32.8056 12.6977 33.0294 12.6348 33.2522L12.1318 35.0326C11.9878 35.5422 12.4581 36.0125 12.9677 35.8685L14.7481 35.3655C16.5092 34.8679 18.3339 35.9214 18.7835 37.6954L19.2381 39.4887C19.3682 40.0021 20.0107 40.1742 20.38 39.7947L21.6704 38.4689C22.9468 37.1575 25.0537 37.1575 26.33 38.4689L27.6204 39.7947C27.9897 40.1742 28.6322 40.0021 28.7623 39.4887L29.2169 37.6954C29.6665 35.9214 31.4912 34.8679 33.2523 35.3655L35.0327 35.8685C35.5423 36.0125 36.0126 35.5422 35.8686 35.0326L35.3656 33.2522C34.868 31.4911 35.9215 29.6664 37.6954 29.2167L39.4887 28.7622C40.0021 28.6321 40.1742 27.9896 39.7947 27.6202L38.469 26.3299C37.1577 25.0534 37.1577 22.9466 38.4692 21.6701Z" fill="#FFD15B"/>
<path d="M38.4692 21.6701L39.7949 20.3798C40.1744 20.0104 40.0023 19.368 39.4889 19.2379L37.6956 18.7833C35.9217 18.3336 34.8682 16.509 35.3658 14.7479L35.8688 12.9675C36.0128 12.4579 35.5425 11.9876 35.0329 12.1316L33.2525 12.6346C33.0297 12.6975 32.8059 12.7354 32.5839 12.7504C33.5919 14.7475 34.1603 17.0043 34.1603 19.3941C34.1604 27.5288 27.529 34.1601 19.3944 34.1601C17.0045 34.1601 14.7477 33.5916 12.7507 32.5836C12.7357 32.8056 12.6977 33.0294 12.6348 33.2522L12.1318 35.0326C11.9878 35.5422 12.4581 36.0125 12.9677 35.8685L14.7481 35.3655C16.5092 34.8679 18.3339 35.9214 18.7835 37.6954L19.2381 39.4887C19.3682 40.0021 20.0107 40.1742 20.38 39.7947L21.6704 38.4689C22.9468 37.1575 25.0537 37.1575 26.33 38.4689L27.6204 39.7947C27.9897 40.1742 28.6322 40.0021 28.7623 39.4887L29.2169 37.6954C29.6665 35.9214 31.4912 34.8679 33.2523 35.3655L35.0327 35.8685C35.5423 36.0125 36.0126 35.5422 35.8686 35.0326L35.3656 33.2522C34.868 31.4911 35.9215 29.6664 37.6954 29.2167L39.4887 28.7622C40.0021 28.6321 40.1742 27.9896 39.7947 27.6202L38.469 26.3299C37.1577 25.0534 37.1577 22.9466 38.4692 21.6701Z" fill="#FFD15B"/>
<path d="M23.9994 34.8372C29.9846 34.8372 34.8366 29.9852 34.8366 24C34.8366 18.0148 29.9846 13.1628 23.9994 13.1628C18.0141 13.1628 13.1621 18.0148 13.1621 24C13.1621 29.9852 18.0141 34.8372 23.9994 34.8372Z" fill="#FFC344"/>
<path d="M30.495 15.3236C31.852 17.1336 32.6559 19.3819 32.6559 21.8181C32.6559 27.8033 27.8039 32.6553 21.8187 32.6553C19.3825 32.6553 17.1342 31.8514 15.3242 30.4945C17.301 33.1311 20.4515 34.8373 24.0006 34.8373C29.9858 34.8373 34.8378 29.9853 34.8378 24C34.8378 20.451 33.1317 17.3005 30.495 15.3236Z" fill="#FEB237"/>
</g>
<defs>
<clipPath id="clip0_226_1175">
<rect width="32" height="32" fill="white" transform="translate(8 8)"/>
</clipPath>
</defs>
</svg>
